<svg width="32" height="33" viewBox="0 0 32 33" fill="none" xmlns="http://www.w3.org/2000/svg">
<path d="M22 3.375V5.375H25.563L22.188 8.781C20.9817 7.8701 19.5116 7.37658 18 7.375C16.13 7.375 14.384 8.115 13.062 9.438C12.4086 10.0836 11.8898 10.8525 11.5357 11.7001C11.1817 12.5477 10.9994 13.4571 10.9995 14.3757C10.9996 15.2943 11.182 16.2037 11.5363 17.0512C11.8905 17.8988 12.4094 18.6676 13.063 19.313C13.933 20.183 14.969 20.808 16.125 21.125C16.239 21.038 16.367 20.947 16.469 20.845C16.8882 20.4187 17.1894 19.8908 17.343 19.313C16.2543 19.1786 15.2421 18.6832 14.468 17.906C13.524 16.963 13 15.711 13 14.375C13 13.039 13.525 11.789 14.47 10.845C15.412 9.898 16.664 9.375 18 9.375C19.336 9.375 20.587 9.9 21.53 10.845C21.9966 11.3067 22.3668 11.8565 22.6192 12.4625C22.8715 13.0685 23.001 13.7186 23 14.375C23 15.24 22.755 16.045 22.344 16.781C22.44 17.297 22.5 17.839 22.5 18.375C22.5 18.873 22.458 19.365 22.375 19.845C22.575 19.682 22.753 19.497 22.938 19.313C24.26 17.989 25 16.245 25 14.375C25 12.845 24.496 11.391 23.594 10.187L27 6.813V10.375H29V3.375H22ZM15.875 11.625C15.761 11.712 15.633 11.803 15.531 11.905C15.099 12.339 14.817 12.865 14.657 13.438C15.747 13.578 16.742 14.054 17.532 14.844C18.477 15.787 19.002 17.039 19.002 18.374C19.002 19.709 18.477 20.96 17.532 21.904C16.588 22.852 15.336 23.375 14 23.375C12.664 23.375 11.413 22.85 10.47 21.905C10.0031 21.4435 9.63263 20.8938 9.38025 20.2877C9.12788 19.6817 8.99863 19.0315 9.00003 18.375C9.00003 17.51 9.24503 16.705 9.65603 15.969C9.55562 15.4435 9.50341 14.91 9.50003 14.375C9.50003 13.877 9.54203 13.385 9.62503 12.905C9.42503 13.068 9.24803 13.253 9.06203 13.438C7.74203 14.759 7.00003 16.505 7.00003 18.375C7.00003 19.905 7.50403 21.359 8.40603 22.563L6.72003 24.25L4.72003 22.25L3.28003 23.656L5.28003 25.656L3.28003 27.656L4.72003 29.096L6.72003 27.096L8.72003 29.096L10.125 27.656L8.12503 25.656L9.81303 23.97C11.0182 24.8823 12.4885 25.3757 14 25.375C15.87 25.375 17.616 24.635 18.938 23.312C20.26 21.991 21 20.245 21 18.375C21 16.505 20.26 14.761 18.937 13.437C18.067 12.567 17.031 11.942 15.875 11.625Z" fill="black"/>
</svg>
