<svg width="90" height="90" viewBox="0 0 90 90" fill="none" xmlns="http://www.w3.org/2000/svg">
<path fill-rule="evenodd" clip-rule="evenodd" d="M48.3883 59.985C52.1144 57.8253 55.3711 54.9424 57.9668 51.5057C57.1267 50.2086 56.5319 48.7683 56.2118 47.2564L56.0897 46.6907C55.7363 45.077 54.9106 43.6051 53.7176 42.4625C52.5246 41.32 51.0185 40.5584 49.3911 40.275C36.0711 37.9607 36.0711 18.8421 49.3911 16.5214C50.9634 16.2483 52.4238 15.5285 53.5979 14.4478C54.772 13.3671 55.6103 11.9713 56.0126 10.4271C52.8804 7.01395 49.0474 4.31817 44.7762 2.52444C40.5051 0.730703 35.8967 -0.118605 31.2667 0.0346959C26.6367 0.187996 22.0946 1.34028 17.9514 3.41262C13.8083 5.48495 10.162 8.42837 7.26244 12.0412C4.36287 15.6541 2.27851 19.851 1.15212 24.3445C0.0257406 28.838 -0.116039 33.5219 0.736498 38.0753C1.58903 42.6287 3.41574 46.944 6.09148 50.7256C8.76722 54.5073 12.2288 57.6658 16.239 59.985V67.5C16.239 69.2049 16.9163 70.84 18.1219 72.0456C19.3275 73.2512 20.9626 73.9285 22.6676 73.9285H41.9533C43.6582 73.9285 45.2934 73.2512 46.499 72.0456C47.7045 70.84 48.3818 69.2049 48.3818 67.5L48.3883 59.985ZM16.2454 85.1785C16.2454 83.8998 16.7534 82.6735 17.6576 81.7693C18.5618 80.8651 19.7881 80.3571 21.0668 80.3571H43.5668C44.8456 80.3571 46.0719 80.8651 46.9761 81.7693C47.8803 82.6735 48.3883 83.8998 48.3883 85.1785C48.3883 86.4572 47.8803 87.6836 46.9761 88.5878C46.0719 89.492 44.8456 90 43.5668 90H21.0668C19.7881 90 18.5618 89.492 17.6576 88.5878C16.7534 87.6836 16.2454 86.4572 16.2454 85.1785ZM63.0454 11.0378C64.2218 5.66352 71.8718 5.63138 73.0933 10.9928L73.1511 11.25L73.2668 11.7514C73.9569 14.6897 75.4953 17.3604 77.691 19.4315C79.8866 21.5025 82.6425 22.8825 85.6161 23.4C91.2218 24.3771 91.2218 32.4257 85.6161 33.4028C82.6256 33.9233 79.8556 35.3158 77.6539 37.4054C75.4522 39.495 73.917 42.1886 73.2411 45.1478L73.0933 45.8035C71.8718 51.1714 64.2154 51.1392 63.0326 45.7585L62.9104 45.1992C62.2623 42.2301 60.7447 39.5213 58.551 37.418C56.3574 35.3148 53.587 33.9125 50.5933 33.39C44.994 32.4192 44.994 24.3835 50.5933 23.4064C53.5766 22.8876 56.3388 21.4952 58.5303 19.4056C60.7218 17.316 62.2439 14.623 62.904 11.6678L63.0004 11.25L63.0454 11.0378Z" fill="#292D32"/>
</svg>
