<svg width="24" height="25" viewBox="0 0 24 25" fill="none" xmlns="http://www.w3.org/2000/svg">
<path d="M12.1596 12.495C12.1296 12.495 12.1096 12.495 12.0796 12.495C12.0296 12.485 11.9596 12.485 11.8996 12.495C8.99957 12.405 6.80957 10.125 6.80957 7.315C6.80957 4.455 9.13957 2.125 11.9996 2.125C14.8596 2.125 17.1896 4.455 17.1896 7.315C17.1796 10.125 14.9796 12.405 12.1896 12.495C12.1796 12.495 12.1696 12.495 12.1596 12.495ZM11.9996 3.625C9.96957 3.625 8.30957 5.285 8.30957 7.315C8.30957 9.315 9.86957 10.925 11.8596 10.995C11.9096 10.985 12.0496 10.985 12.1796 10.995C14.1396 10.905 15.6796 9.295 15.6896 7.315C15.6896 5.285 14.0296 3.625 11.9996 3.625Z" fill="#292D32"/>
<path d="M12.1696 23.425C10.2096 23.425 8.23961 22.925 6.74961 21.925C5.35961 21.005 4.59961 19.745 4.59961 18.375C4.59961 17.005 5.35961 15.735 6.74961 14.805C9.74961 12.815 14.6096 12.815 17.5896 14.805C18.9696 15.725 19.7396 16.985 19.7396 18.355C19.7396 19.725 18.9796 20.995 17.5896 21.925C16.0896 22.925 14.1296 23.425 12.1696 23.425ZM7.57961 16.065C6.61961 16.705 6.09961 17.525 6.09961 18.385C6.09961 19.235 6.62961 20.055 7.57961 20.685C10.0696 22.355 14.2696 22.355 16.7596 20.685C17.7196 20.045 18.2396 19.225 18.2396 18.365C18.2396 17.515 17.7096 16.695 16.7596 16.065C14.2696 14.405 10.0696 14.405 7.57961 16.065Z" fill="#292D32"/>
</svg>
