<svg width="24" height="25" viewBox="0 0 24 25" fill="none" xmlns="http://www.w3.org/2000/svg">
<path d="M11.9998 23.1248C11.7598 23.1248 11.5199 23.0948 11.2899 23.0248C6.09986 21.5948 2.33984 16.7448 2.33984 11.4848V7.09478C2.33984 5.97478 3.14985 4.76483 4.18985 4.33483L9.75986 2.0548C11.2099 1.4648 12.7998 1.4648 14.2398 2.0548L19.8098 4.33483C20.8498 4.76483 21.6599 5.97478 21.6599 7.09478V11.4848C21.6599 16.7348 17.8898 21.5848 12.7098 23.0248C12.4798 23.0948 12.2398 23.1248 11.9998 23.1248ZM11.9998 3.12481C11.4298 3.12481 10.8698 3.23483 10.3298 3.45483L4.75986 5.7348C4.27986 5.9348 3.83984 6.58479 3.83984 7.10479V11.4948C3.83984 16.0848 7.13985 20.3248 11.6898 21.5848C11.8898 21.6448 12.1098 21.6448 12.3098 21.5848C16.8598 20.3248 20.1599 16.0848 20.1599 11.4948V7.10479C20.1599 6.58479 19.7198 5.9348 19.2398 5.7348L13.6699 3.45483C13.1299 3.23483 12.5698 3.12481 11.9998 3.12481Z" fill="#292D32"/>
<path d="M12 13.625C10.48 13.625 9.25 12.395 9.25 10.875C9.25 9.355 10.48 8.125 12 8.125C13.52 8.125 14.75 9.355 14.75 10.875C14.75 12.395 13.52 13.625 12 13.625ZM12 9.625C11.31 9.625 10.75 10.185 10.75 10.875C10.75 11.565 11.31 12.125 12 12.125C12.69 12.125 13.25 11.565 13.25 10.875C13.25 10.185 12.69 9.625 12 9.625Z" fill="#292D32"/>
<path d="M12 16.625C11.59 16.625 11.25 16.285 11.25 15.875V12.875C11.25 12.465 11.59 12.125 12 12.125C12.41 12.125 12.75 12.465 12.75 12.875V15.875C12.75 16.285 12.41 16.625 12 16.625Z" fill="#292D32"/>
</svg>
