<svg width="24" height="25" viewBox="0 0 24 25" fill="none" xmlns="http://www.w3.org/2000/svg">
<path d="M17 22.125H7C3.35 22.125 1.25 20.025 1.25 16.375V9.375C1.25 5.725 3.35 3.625 7 3.625H17C20.65 3.625 22.75 5.725 22.75 9.375V16.375C22.75 20.025 20.65 22.125 17 22.125ZM7 5.125C4.14 5.125 2.75 6.515 2.75 9.375V16.375C2.75 19.235 4.14 20.625 7 20.625H17C19.86 20.625 21.25 19.235 21.25 16.375V9.375C21.25 6.515 19.86 5.125 17 5.125H7Z" fill="#292D32"/>
<path d="M11.9998 13.745C11.1598 13.745 10.3098 13.485 9.65978 12.955L6.52978 10.455C6.20978 10.195 6.14978 9.72497 6.40978 9.40497C6.66978 9.08497 7.13978 9.02497 7.45978 9.28497L10.5898 11.785C11.3498 12.395 12.6398 12.395 13.3998 11.785L16.5298 9.28497C16.8498 9.02497 17.3298 9.07497 17.5798 9.40497C17.8398 9.72497 17.7898 10.205 17.4598 10.455L14.3298 12.955C13.6898 13.485 12.8398 13.745 11.9998 13.745Z" fill="#292D32"/>
</svg>
