 <svg width="135" height="39" viewBox="0 0 135 39" fill="none" xmlns="http://www.w3.org/2000/svg">
                <path
                  d="M134.25 34.5018C134.25 36.5801 132.531 38.2636 130.406 38.2636H4.59932C2.47462 38.2636 0.75 36.5801 0.75 34.5018V4.50213C0.75 2.42475 2.47462 0.735352 4.59932 0.735352H130.405C132.531 0.735352 134.249 2.42475 134.249 4.50213L134.25 34.5018Z"
                  fill="white" />
                <path
                  d="M130 0.781225C132.315 0.781225 134.199 2.61788 134.199 4.87501V34.125C134.199 36.3821 132.315 38.2188 130 38.2188H5C2.685 38.2188 0.80125 36.3821 0.80125 34.125V4.87501C0.80125 2.61788 2.685 0.781225 5 0.781225H130ZM130 7.62939e-06H5C2.25125 7.62939e-06 0 2.19498 0 4.87501V34.125C0 36.805 2.25125 39 5 39H130C132.749 39 135 36.805 135 34.125V4.87501C135 2.19498 132.749 7.62939e-06 130 7.62939e-06Z"
                  fill="#A6A6A6" />
                <path
                  d="M30.1281 19.2893C30.0991 16.1469 32.7671 14.6181 32.8891 14.5469C31.3781 12.399 29.0361 12.1055 28.2131 12.0821C26.2461 11.8803 24.3381 13.2297 23.3361 13.2297C22.3141 13.2297 20.7711 12.1016 19.1081 12.1348C16.9681 12.167 14.9661 13.375 13.8681 15.2509C11.6021 19.0758 13.2921 24.6967 15.4631 27.7884C16.5491 29.3026 17.8181 30.9932 19.4791 30.9338C21.1041 30.8684 21.7111 29.9237 23.6721 29.9237C25.6151 29.9237 26.1851 30.9338 27.8791 30.8957C29.6231 30.8684 30.7211 29.3747 31.7691 27.8469C33.0241 26.1114 33.5281 24.4022 33.5481 24.3145C33.5071 24.3008 30.1611 23.0558 30.1281 19.2893Z"
                  fill="black" />
                <path
                  d="M26.9281 10.0483C27.8021 8.98262 28.4001 7.5328 28.2341 6.06152C26.9691 6.11612 25.3871 6.91465 24.4761 7.95692C23.6701 8.87537 22.9501 10.3808 23.1361 11.7965C24.5571 11.8998 26.0161 11.0974 26.9281 10.0483Z"
                  fill="black" />
                <path
                  d="M49.0498 9.75971C49.0498 10.9073 48.6968 11.7711 47.9918 12.3513C47.3388 12.8865 46.4108 13.1547 45.2088 13.1547C44.6128 13.1547 44.1028 13.1293 43.6758 13.0786V6.80838C44.2328 6.72063 44.8328 6.67578 45.4808 6.67578C46.6258 6.67578 47.4888 6.91856 48.0708 7.40411C48.7228 7.95303 49.0498 8.73791 49.0498 9.75971ZM47.9448 9.78798C47.9448 9.04406 47.7428 8.47368 47.3388 8.07588C46.9348 7.67906 46.3448 7.48016 45.5678 7.48016C45.2378 7.48016 44.9568 7.50161 44.7238 7.54646V12.3132C44.8528 12.3327 45.0888 12.3415 45.4318 12.3415C46.2338 12.3415 46.8528 12.1241 47.2888 11.6892C47.7248 11.2544 47.9448 10.6206 47.9448 9.78798Z"
                  fill="black" />
                <path
                  d="M54.909 10.7619C54.909 11.4687 54.702 12.0479 54.288 12.5022C53.854 12.9693 53.279 13.2023 52.561 13.2023C51.869 13.2023 51.318 12.979 50.907 12.5305C50.497 12.083 50.292 11.5185 50.292 10.8379C50.292 10.1262 50.503 9.54213 50.927 9.08875C51.351 8.63538 51.921 8.4082 52.639 8.4082C53.331 8.4082 53.887 8.63148 54.308 9.079C54.708 9.51385 54.909 10.0755 54.909 10.7619ZM53.822 10.795C53.822 10.3709 53.728 10.0072 53.541 9.70398C53.321 9.33738 53.008 9.15408 52.601 9.15408C52.18 9.15408 51.86 9.33738 51.64 9.70398C51.452 10.0072 51.359 10.3767 51.359 10.8135C51.359 11.2377 51.453 11.6013 51.64 11.9046C51.867 12.2712 52.183 12.4545 52.591 12.4545C52.991 12.4545 53.305 12.2682 53.531 11.8948C53.725 11.5857 53.822 11.2191 53.822 10.795Z"
                  fill="black" />
                <path
                  d="M62.7646 8.50195L61.2896 13.0981H60.3296L59.7186 11.1023C59.5636 10.6041 59.4376 10.1088 59.3396 9.61735H59.3206C59.2296 10.1224 59.1036 10.6167 58.9416 11.1023L58.2926 13.0981H57.3216L55.9346 8.50195H57.0116L57.5446 10.6869C57.6736 11.2037 57.7796 11.6961 57.8646 12.1621H57.8836C57.9616 11.778 58.0906 11.2885 58.2726 10.6967L58.9416 8.50293H59.7956L60.4366 10.6499C60.5916 11.1735 60.7176 11.6775 60.8146 12.1631H60.8436C60.9146 11.6902 61.0216 11.1861 61.1636 10.6499L61.7356 8.50293H62.7646V8.50195Z"
                  fill="black" />
                <path
                  d="M68.1979 13.0979H67.1499V10.4654C67.1499 9.65425 66.8339 9.24865 66.1999 9.24865C65.8889 9.24865 65.6379 9.3598 65.4429 9.58307C65.2499 9.80635 65.1519 10.0696 65.1519 10.3709V13.097H64.1039V9.81512C64.1039 9.41147 64.0909 8.9737 64.0659 8.49985H64.9869L65.0359 9.21842H65.0649C65.1869 8.99515 65.3689 8.81087 65.6079 8.66365C65.8919 8.49205 66.2099 8.40527 66.5579 8.40527C66.9979 8.40527 67.3639 8.54372 67.6549 8.8216C68.0169 9.16187 68.1979 9.66985 68.1979 10.3445V13.0979V13.0979Z"
                  fill="black" />
                <path d="M71.0875 13.0977H70.0405V6.39258H71.0875V13.0977Z" fill="black" />
                <path
                  d="M77.2576 10.7619C77.2576 11.4687 77.0506 12.0479 76.6366 12.5022C76.2026 12.9693 75.6266 13.2023 74.9096 13.2023C74.2166 13.2023 73.6656 12.979 73.2556 12.5305C72.8456 12.083 72.6406 11.5185 72.6406 10.8379C72.6406 10.1262 72.8516 9.54213 73.2756 9.08875C73.6996 8.63538 74.2696 8.4082 74.9866 8.4082C75.6796 8.4082 76.2346 8.63148 76.6566 9.079C77.0566 9.51385 77.2576 10.0755 77.2576 10.7619ZM76.1696 10.795C76.1696 10.3709 76.0756 10.0072 75.8886 9.70398C75.6696 9.33738 75.3556 9.15408 74.9496 9.15408C74.5276 9.15408 74.2076 9.33738 73.9886 9.70398C73.8006 10.0072 73.7076 10.3767 73.7076 10.8135C73.7076 11.2377 73.8016 11.6013 73.9886 11.9046C74.2156 12.2712 74.5316 12.4545 74.9396 12.4545C75.3396 12.4545 75.6526 12.2682 75.8786 11.8948C76.0736 11.5857 76.1696 11.2191 76.1696 10.795Z"
                  fill="black" />
                <path
                  d="M82.33 13.098H81.389L81.311 12.5685H81.282C80.96 12.9907 80.501 13.2023 79.905 13.2023C79.46 13.2023 79.1 13.0629 78.829 12.786C78.583 12.5344 78.46 12.2214 78.46 11.85C78.46 11.2884 78.7 10.8603 79.183 10.5639C79.665 10.2675 80.343 10.1223 81.216 10.1291V10.0433C81.216 9.4378 80.89 9.13555 80.237 9.13555C79.772 9.13555 79.362 9.24963 79.008 9.47583L78.795 8.80503C79.233 8.5408 79.774 8.4082 80.412 8.4082C81.644 8.4082 82.262 9.04195 82.262 10.3095V12.0021C82.262 12.4613 82.285 12.8269 82.33 13.098ZM81.242 11.5185V10.8096C80.086 10.7901 79.508 11.0992 79.508 11.7359C79.508 11.9757 79.574 12.1551 79.709 12.2751C79.844 12.395 80.016 12.4545 80.221 12.4545C80.451 12.4545 80.666 12.3833 80.862 12.2419C81.059 12.0996 81.18 11.9192 81.225 11.6979C81.236 11.6481 81.242 11.5877 81.242 11.5185Z"
                  fill="black" />
                <path
                  d="M88.2847 13.0977H87.3547L87.3057 12.3596H87.2767C86.9797 12.9212 86.4737 13.202 85.7627 13.202C85.1947 13.202 84.7217 12.9846 84.3467 12.5497C83.9717 12.1149 83.7847 11.5503 83.7847 10.8571C83.7847 10.1132 83.9877 9.51063 84.3957 9.05043C84.7907 8.62143 85.2747 8.40693 85.8507 8.40693C86.4837 8.40693 86.9267 8.6146 87.1787 9.03093H87.1987V6.39258H88.2477V11.8594C88.2477 12.3069 88.2597 12.7194 88.2847 13.0977ZM87.1987 11.1594V10.393C87.1987 10.2604 87.1887 10.1532 87.1697 10.0713C87.1107 9.82555 86.9837 9.61885 86.7907 9.45213C86.5957 9.2854 86.3607 9.20155 86.0897 9.20155C85.6987 9.20155 85.3927 9.35268 85.1677 9.6559C84.9447 9.95913 84.8317 10.3462 84.8317 10.8191C84.8317 11.2734 84.9387 11.642 85.1537 11.9257C85.3807 12.228 85.6867 12.3791 86.0697 12.3791C86.4137 12.3791 86.6887 12.2533 86.8977 12.0008C87.0997 11.7678 87.1987 11.487 87.1987 11.1594Z"
                  fill="black" />
                <path
                  d="M97.2479 10.7619C97.2479 11.4687 97.0409 12.0479 96.6269 12.5022C96.1929 12.9693 95.6189 13.2023 94.8999 13.2023C94.2089 13.2023 93.6579 12.979 93.2459 12.5305C92.8359 12.083 92.6309 11.5185 92.6309 10.8379C92.6309 10.1262 92.8419 9.54213 93.2659 9.08875C93.6899 8.63538 94.2599 8.4082 94.9789 8.4082C95.6699 8.4082 96.2269 8.63148 96.6469 9.079C97.0469 9.51385 97.2479 10.0755 97.2479 10.7619ZM96.1619 10.795C96.1619 10.3709 96.0679 10.0072 95.8809 9.70398C95.6599 9.33738 95.3479 9.15408 94.9399 9.15408C94.5199 9.15408 94.1999 9.33738 93.9789 9.70398C93.7909 10.0072 93.6979 10.3767 93.6979 10.8135C93.6979 11.2377 93.7919 11.6013 93.9789 11.9046C94.2059 12.2712 94.5219 12.4545 94.9299 12.4545C95.3299 12.4545 95.6449 12.2682 95.8709 11.8948C96.0639 11.5857 96.1619 11.2191 96.1619 10.795Z"
                  fill="black" />
                <path
                  d="M102.883 13.0979H101.836V10.4654C101.836 9.65425 101.52 9.24865 100.885 9.24865C100.574 9.24865 100.323 9.3598 100.129 9.58307C99.9349 9.80635 99.8379 10.0696 99.8379 10.3709V13.097H98.789V9.81512C98.789 9.41147 98.777 8.9737 98.752 8.49985H99.6719L99.721 9.21842H99.75C99.873 8.99515 100.055 8.81087 100.293 8.66365C100.578 8.49205 100.895 8.40527 101.244 8.40527C101.683 8.40527 102.049 8.54372 102.34 8.8216C102.703 9.16187 102.883 9.66985 102.883 10.3445V13.0979V13.0979Z"
                  fill="black" />
                <path
                  d="M109.936 9.26647H108.782V11.4992C108.782 12.0667 108.987 12.3504 109.393 12.3504C109.581 12.3504 109.737 12.3348 109.86 12.3026L109.887 13.0777C109.68 13.1538 109.408 13.1918 109.073 13.1918C108.659 13.1918 108.337 13.069 108.104 12.8233C107.87 12.5776 107.754 12.1642 107.754 11.584V9.26647H107.065V8.5011H107.754V7.6587L108.781 7.35645V8.50012H109.935V9.26647H109.936Z"
                  fill="black" />
                <path
                  d="M115.484 13.0977H114.435V10.4847C114.435 9.66078 114.119 9.24835 113.486 9.24835C113 9.24835 112.668 9.48723 112.486 9.96498C112.455 10.0654 112.437 10.1883 112.437 10.3326V13.0967H111.39V6.39258H112.437V9.16255H112.457C112.787 8.65848 113.26 8.40693 113.873 8.40693C114.307 8.40693 114.666 8.54538 114.951 8.82325C115.306 9.16938 115.484 9.68418 115.484 10.3647V13.0977V13.0977Z"
                  fill="black" />
                <path
                  d="M121.207 10.5824C121.207 10.7657 121.193 10.9198 121.168 11.0456H118.025C118.039 11.4999 118.189 11.846 118.48 12.0859C118.746 12.3004 119.089 12.4076 119.509 12.4076C119.974 12.4076 120.398 12.3355 120.78 12.1902L120.944 12.9C120.497 13.0892 119.971 13.1837 119.362 13.1837C118.632 13.1837 118.057 12.9741 117.641 12.5549C117.223 12.1356 117.016 11.573 117.016 10.8671C117.016 10.1739 117.209 9.59671 117.598 9.13651C118.004 8.64511 118.553 8.39941 119.246 8.39941C119.924 8.39941 120.439 8.64511 120.787 9.13651C121.068 9.52651 121.207 10.0091 121.207 10.5824ZM120.207 10.3182C120.215 10.015 120.146 9.75369 120.004 9.53334C119.822 9.24961 119.545 9.10726 119.17 9.10726C118.828 9.10726 118.549 9.24571 118.336 9.52359C118.162 9.74491 118.059 10.0091 118.025 10.3182H120.207Z"
                  fill="black" />
                <path
                  d="M53.6452 30.7165H51.3742L50.1302 26.9052H45.8062L44.6212 30.7165H42.4102L46.6942 17.7412H49.3402L53.6452 30.7165ZM49.7552 25.3062L48.6302 21.9181C48.5112 21.572 48.2882 20.7569 47.9592 19.4738H47.9192C47.7882 20.0256 47.5772 20.8407 47.2872 21.9181L46.1822 25.3062H49.7552V25.3062Z"
                  fill="black" />
                <path
                  d="M64.6624 25.923C64.6624 27.5142 64.2214 28.772 63.3394 29.6953C62.5494 30.5172 61.5684 30.9277 60.3974 30.9277C59.1334 30.9277 58.2254 30.4851 57.6724 29.5998H57.6324V34.5284H55.5004V24.4401C55.5004 23.4397 55.4734 22.413 55.4214 21.36H57.2964L57.4154 22.843H57.4554C58.1664 21.7257 59.2454 21.168 60.6934 21.168C61.8254 21.168 62.7704 21.6038 63.5264 22.4764C64.2844 23.35 64.6624 24.4986 64.6624 25.923ZM62.4904 25.9991C62.4904 25.0884 62.2804 24.3377 61.8584 23.7468C61.3974 23.1306 60.7784 22.8225 60.0024 22.8225C59.4764 22.8225 58.9984 22.9941 58.5714 23.3325C58.1434 23.6737 57.8634 24.1193 57.7324 24.6711C57.6664 24.9285 57.6334 25.1391 57.6334 25.3049V26.8649C57.6334 27.5454 57.8474 28.1197 58.2754 28.5887C58.7034 29.0577 59.2594 29.2917 59.9434 29.2917C60.7464 29.2917 61.3714 28.9894 61.8184 28.3869C62.2664 27.7833 62.4904 26.9877 62.4904 25.9991Z"
                  fill="black" />
                <path
                  d="M75.699 25.923C75.699 27.5142 75.258 28.772 74.375 29.6953C73.586 30.5172 72.605 30.9277 71.434 30.9277C70.17 30.9277 69.262 30.4851 68.71 29.5998H68.67V34.5284H66.538V24.4401C66.538 23.4397 66.511 22.413 66.459 21.36H68.334L68.453 22.843H68.493C69.203 21.7257 70.282 21.168 71.731 21.168C72.862 21.168 73.807 21.6038 74.565 22.4764C75.32 23.35 75.699 24.4986 75.699 25.923ZM73.527 25.9991C73.527 25.0884 73.316 24.3377 72.894 23.7468C72.433 23.1306 71.816 22.8225 71.039 22.8225C70.512 22.8225 70.035 22.9941 69.607 23.3325C69.179 23.6737 68.9 24.1193 68.769 24.6711C68.704 24.9285 68.67 25.1391 68.67 25.3049V26.8649C68.67 27.5454 68.884 28.1197 69.31 28.5887C69.738 29.0567 70.294 29.2917 70.98 29.2917C71.783 29.2917 72.408 28.9894 72.855 28.3869C73.303 27.7833 73.527 26.9877 73.527 25.9991Z"
                  fill="black" />
                <path
                  d="M88.0392 27.0775C88.0392 28.1812 87.6462 29.0792 86.8572 29.7724C85.9902 30.53 84.7832 30.9083 83.2322 30.9083C81.8002 30.9083 80.6522 30.6392 79.7832 30.1L80.2772 28.3674C81.2132 28.9193 82.2402 29.1962 83.3592 29.1962C84.1622 29.1962 84.7872 29.0187 85.2362 28.6658C85.6832 28.3128 85.9062 27.839 85.9062 27.2481C85.9062 26.7216 85.7222 26.278 85.3532 25.9182C84.9862 25.5585 84.3732 25.224 83.5172 24.915C81.1872 24.0677 80.0232 22.8265 80.0232 21.1944C80.0232 20.1277 80.4312 19.2531 81.2482 18.5726C82.0622 17.8911 83.1482 17.5508 84.5062 17.5508C85.7172 17.5508 86.7232 17.7565 87.5262 18.167L86.9932 19.8615C86.2432 19.4637 85.3952 19.2648 84.4462 19.2648C83.6962 19.2648 83.1102 19.4452 82.6902 19.804C82.3352 20.1248 82.1572 20.5158 82.1572 20.9789C82.1572 21.4917 82.3602 21.9159 82.7682 22.2493C83.1232 22.5574 83.7682 22.8909 84.7042 23.2506C85.8492 23.7001 86.6902 24.2256 87.2312 24.8282C87.7702 25.4288 88.0392 26.1805 88.0392 27.0775Z"
                  fill="black" />
                <path
                  d="M95.0881 22.9205H92.7381V27.463C92.7381 28.6184 93.1521 29.1956 93.9821 29.1956C94.3631 29.1956 94.6791 29.1634 94.9291 29.0991L94.9881 30.6776C94.5681 30.8307 94.0151 30.9077 93.3301 30.9077C92.4881 30.9077 91.8301 30.6571 91.3551 30.157C90.8821 29.6558 90.6441 28.8154 90.6441 27.6346V22.9186H89.2441V21.3586H90.6441V19.6455L92.7381 19.0293V21.3586H95.0881V22.9205Z"
                  fill="black" />
                <path
                  d="M105.691 25.9611C105.691 27.3992 105.269 28.5799 104.427 29.5032C103.544 30.4539 102.372 30.9277 100.911 30.9277C99.503 30.9277 98.382 30.4724 97.546 29.5617C96.71 28.6511 96.292 27.5016 96.292 26.1161C96.292 24.6663 96.722 23.4787 97.585 22.5554C98.446 21.6311 99.608 21.1689 101.069 21.1689C102.477 21.1689 103.61 21.6243 104.465 22.5359C105.283 23.4202 105.691 24.5619 105.691 25.9611ZM103.479 26.0283C103.479 25.1655 103.29 24.4254 102.907 23.8083C102.46 23.0614 101.821 22.689 100.993 22.689C100.136 22.689 99.485 23.0624 99.038 23.8083C98.655 24.4264 98.466 25.1781 98.466 26.0673C98.466 26.9302 98.655 27.6702 99.038 28.2864C99.499 29.0333 100.143 29.4057 100.974 29.4057C101.788 29.4057 102.427 29.0255 102.888 28.2669C103.281 27.6381 103.479 26.8902 103.479 26.0283Z"
                  fill="black" />
                <path
                  d="M112.621 23.1882C112.41 23.1501 112.185 23.1306 111.949 23.1306C111.199 23.1306 110.619 23.4066 110.211 23.9594C109.856 24.4469 109.678 25.0631 109.678 25.807V30.7161H107.547L107.567 24.3065C107.567 23.2281 107.54 22.2463 107.487 21.361H109.344L109.422 23.1511H109.481C109.706 22.5359 110.061 22.0406 110.547 21.6691C111.022 21.3347 111.535 21.168 112.088 21.168C112.285 21.168 112.463 21.1816 112.621 21.206V23.1882Z"
                  fill="black" />
                <path
                  d="M122.156 25.5954C122.156 25.9679 122.131 26.2818 122.078 26.5382H115.682C115.707 27.4625 116.016 28.1694 116.61 28.6569C117.149 29.0927 117.846 29.3111 118.702 29.3111C119.649 29.3111 120.513 29.1639 121.29 28.8685L121.624 30.3115C120.716 30.6976 119.644 30.8897 118.407 30.8897C116.919 30.8897 115.751 30.4626 114.901 29.6095C114.053 28.7564 113.628 27.6107 113.628 26.1736C113.628 24.7628 114.023 23.5879 114.814 22.6509C115.642 21.6506 116.761 21.1504 118.169 21.1504C119.552 21.1504 120.599 21.6506 121.31 22.6509C121.873 23.4455 122.156 24.4283 122.156 25.5954ZM120.123 25.0562C120.137 24.44 119.998 23.9077 119.709 23.4582C119.34 22.88 118.773 22.5914 118.01 22.5914C117.313 22.5914 116.746 22.8732 116.313 23.4387C115.958 23.8882 115.747 24.4274 115.682 25.0553H120.123V25.0562Z"
                  fill="black" />
              </svg>