<svg width="32" height="32" viewBox="0 0 32 32" fill="none" xmlns="http://www.w3.org/2000/svg">
<path d="M3.43994 25.347L3.41328 25.3737C3.05328 24.587 2.82661 23.6937 2.73328 22.707C2.82661 23.6804 3.07994 24.5604 3.43994 25.347Z" fill="#292D32"/>
<path d="M12 13.8408C13.7526 13.8408 15.1733 12.4201 15.1733 10.6675C15.1733 8.91489 13.7526 7.49414 12 7.49414C10.2474 7.49414 8.82666 8.91489 8.82666 10.6675C8.82666 12.4201 10.2474 13.8408 12 13.8408Z" fill="#292D32"/>
<path d="M21.5866 2.66602H10.4133C5.55996 2.66602 2.66663 5.55935 2.66663 10.4127V21.586C2.66663 23.0394 2.91996 24.306 3.41329 25.3727C4.55996 27.906 7.01329 29.3327 10.4133 29.3327H21.5866C26.44 29.3327 29.3333 26.4394 29.3333 21.586V18.5327V10.4127C29.3333 5.55935 26.44 2.66602 21.5866 2.66602ZM27.16 16.666C26.12 15.7727 24.44 15.7727 23.4 16.666L17.8533 21.426C16.8133 22.3193 15.1333 22.3193 14.0933 21.426L13.64 21.0527C12.6933 20.226 11.1866 20.146 10.12 20.866L5.13329 24.2127C4.83996 23.466 4.66663 22.5993 4.66663 21.586V10.4127C4.66663 6.65268 6.65329 4.66602 10.4133 4.66602H21.5866C25.3466 4.66602 27.3333 6.65268 27.3333 10.4127V16.8127L27.16 16.666Z" fill="#292D32"/>
</svg>
