   <svg  width="82" height="83" viewBox="0 0 82 83" fill="none" xmlns="http://www.w3.org/2000/svg">
      <g filter="url(#filter0_d_2528_5494)">
        <path
          d="M52.5835 7.08789H23.4168C14.6668 7.08789 8.8335 12.9212 8.8335 21.6712V39.1712C8.8335 47.9212 14.6668 53.7546 23.4168 53.7546V59.9671C23.4168 62.3004 26.0127 63.7004 27.9377 62.3879L40.9168 53.7546H52.5835C61.3335 53.7546 67.1668 47.9212 67.1668 39.1712V21.6712C67.1668 12.9212 61.3335 7.08789 52.5835 7.08789ZM38.0002 42.5837C36.7752 42.5837 35.8127 41.5921 35.8127 40.3962C35.8127 39.2004 36.7752 38.2087 38.0002 38.2087C39.2252 38.2087 40.1877 39.2004 40.1877 40.3962C40.1877 41.5921 39.2252 42.5837 38.0002 42.5837ZM41.6752 30.4796C40.5377 31.2379 40.1877 31.7337 40.1877 32.5504V33.1629C40.1877 34.3587 39.196 35.3504 38.0002 35.3504C36.8043 35.3504 35.8127 34.3587 35.8127 33.1629V32.5504C35.8127 29.1671 38.2918 27.5046 39.2252 26.8629C40.3043 26.1337 40.6543 25.6379 40.6543 24.8796C40.6543 23.4212 39.4585 22.2254 38.0002 22.2254C36.5418 22.2254 35.346 23.4212 35.346 24.8796C35.346 26.0754 34.3543 27.0671 33.1585 27.0671C31.9627 27.0671 30.971 26.0754 30.971 24.8796C30.971 21.0004 34.121 17.8504 38.0002 17.8504C41.8793 17.8504 45.0293 21.0004 45.0293 24.8796C45.0293 28.2046 42.5793 29.8671 41.6752 30.4796Z"
          fill="#1DB559" stroke="white" />
      </g>
      <defs>
        <filter id="filter0_d_2528_5494" x="-5" y="-3" width="92" height="92" filterUnits="userSpaceOnUse"
          color-interpolation-filters="sRGB">
          <feFlood flood-opacity="0" result="BackgroundImageFix" />
          <feColorMatrix in="SourceAlpha" type="matrix" values="0 0 0 0 0 0 0 0 0 0 0 0 0 0 0 0 0 0 127 0"
            result="hardAlpha" />
          <feOffset dx="3" dy="8" />
          <feGaussianBlur stdDeviation="5.5" />
          <feComposite in2="hardAlpha" operator="out" />
          <feColorMatrix type="matrix" values="0 0 0 0 0.113725 0 0 0 0 0.709804 0 0 0 0 0.34902 0 0 0 0.28 0" />
          <feBlend mode="normal" in2="BackgroundImageFix" result="effect1_dropShadow_2528_5494" />
          <feBlend mode="normal" in="SourceGraphic" in2="effect1_dropShadow_2528_5494" result="shape" />
        </filter>
      </defs>
    </svg>