<svg width="25" height="25" viewBox="0 0 25 25" fill="none" xmlns="http://www.w3.org/2000/svg">
<path d="M15.6504 19.5449C15.6504 21.0649 14.4204 22.2949 12.9004 22.2949C11.3804 22.2949 10.1504 21.0649 10.1504 19.5449C10.1504 18.0249 11.3804 16.7949 12.9004 16.7949C14.4204 16.7949 15.6504 18.0249 15.6504 19.5449ZM11.6504 19.5449C11.6504 20.2349 12.2104 20.7949 12.9004 20.7949C13.5904 20.7949 14.1504 20.2349 14.1504 19.5449C14.1504 18.8549 13.5904 18.2949 12.9004 18.2949C12.2104 18.2949 11.6504 18.8549 11.6504 19.5449Z" fill="#292D32"/>
<path d="M15.6504 5.54492C15.6504 7.06492 14.4204 8.29492 12.9004 8.29492C11.3804 8.29492 10.1504 7.06492 10.1504 5.54492C10.1504 4.02492 11.3804 2.79492 12.9004 2.79492C14.4204 2.79492 15.6504 4.02492 15.6504 5.54492ZM11.6504 5.54492C11.6504 6.23492 12.2104 6.79492 12.9004 6.79492C13.5904 6.79492 14.1504 6.23492 14.1504 5.54492C14.1504 4.85492 13.5904 4.29492 12.9004 4.29492C12.2104 4.29492 11.6504 4.85492 11.6504 5.54492Z" fill="#292D32"/>
<path d="M15.6504 12.5449C15.6504 14.0649 14.4204 15.2949 12.9004 15.2949C11.3804 15.2949 10.1504 14.0649 10.1504 12.5449C10.1504 11.0249 11.3804 9.79492 12.9004 9.79492C14.4204 9.79492 15.6504 11.0249 15.6504 12.5449ZM11.6504 12.5449C11.6504 13.2349 12.2104 13.7949 12.9004 13.7949C13.5904 13.7949 14.1504 13.2349 14.1504 12.5449C14.1504 11.8549 13.5904 11.2949 12.9004 11.2949C12.2104 11.2949 11.6504 11.8549 11.6504 12.5449Z" fill="#292D32"/>
</svg>
