 <svg width="54" height="54" viewBox="0 0 54 54" fill="none" xmlns="http://www.w3.org/2000/svg">
            <circle cx="27" cy="27" r="27" fill="#F67218" />
            <path
              d="M23.2499 20.2504C23.25 19.5408 23.4514 18.8458 23.8308 18.2462C24.2101 17.6465 24.7518 17.1668 25.3929 16.8628C26.034 16.5587 26.7482 16.4427 27.4526 16.5284C28.157 16.6141 28.8226 16.8978 29.3721 17.3467C29.9217 17.7955 30.3326 18.3911 30.5571 19.0642C30.7817 19.7373 30.8107 20.4603 30.6407 21.1492C30.4708 21.8381 30.1088 22.4646 29.597 22.9561C29.0851 23.4475 28.4444 23.7836 27.7491 23.9254V26.2504H31.7001C32.2436 26.2504 32.7649 26.4662 33.1492 26.8505C33.5336 27.2347 33.7497 27.7559 33.7499 28.2994V30.0754C34.6584 30.2636 35.4649 30.7817 36.0137 31.5298C36.5625 32.2779 36.8147 33.2028 36.7214 34.1259C36.6282 35.049 36.1962 35.9048 35.5089 36.528C34.8215 37.1512 33.9277 37.4977 32.9999 37.5004C32.0699 37.5013 31.1728 37.1567 30.4826 36.5333C29.7925 35.91 29.3585 35.0525 29.2651 34.1272C29.1716 33.202 29.4253 32.275 29.9769 31.5263C30.5284 30.7775 31.3385 30.2604 32.2499 30.0754V28.2994C32.2499 28.1536 32.1919 28.0137 32.0889 27.9106C31.9858 27.8075 31.8459 27.7496 31.7001 27.7496H22.2996C22.1538 27.7496 22.014 27.8075 21.9109 27.9106C21.8078 28.0137 21.7499 28.1536 21.7499 28.2994V30.0754C22.6584 30.2636 23.4649 30.7817 24.0137 31.5298C24.5625 32.2779 24.8147 33.2028 24.7214 34.1259C24.6282 35.049 24.1962 35.9048 23.5089 36.528C22.8215 37.1512 21.9277 37.4977 20.9999 37.5004C20.0699 37.5013 19.1728 37.1567 18.4826 36.5333C17.7925 35.91 17.3585 35.0525 17.2651 34.1272C17.1716 33.202 17.4253 32.275 17.9769 31.5263C18.5284 30.7775 19.3385 30.2604 20.2499 30.0754V28.2994C20.2499 28.0302 20.3029 27.7636 20.4059 27.515C20.5089 27.2663 20.6599 27.0403 20.8502 26.85C21.0406 26.6596 21.2665 26.5087 21.5152 26.4056C21.7639 26.3026 22.0304 26.2496 22.2996 26.2496H26.2499V23.9246C25.4031 23.7515 24.6421 23.2913 24.0955 22.6218C23.5488 21.9523 23.2501 21.1147 23.2499 20.2504Z"
              fill="white" />
          </svg>