<svg width="20" height="20" viewBox="0 0 20 20" fill="none" xmlns="http://www.w3.org/2000/svg">
<path d="M10.0001 1.66602C5.40008 1.66602 1.66675 5.39935 1.66675 9.99935C1.66675 14.5993 5.40008 18.3327 10.0001 18.3327C14.6001 18.3327 18.3334 14.5993 18.3334 9.99935C18.3334 5.39935 14.6001 1.66602 10.0001 1.66602ZM5.50008 9.35768C5.64175 8.36602 6.08342 7.47435 6.77508 6.77435C8.44175 5.11602 11.0667 5.02435 12.8501 6.47435V5.68268C12.8501 5.34102 13.1334 5.05768 13.4751 5.05768C13.8167 5.05768 14.1001 5.34102 14.1001 5.68268V7.90768C14.1001 8.24935 13.8167 8.53268 13.4751 8.53268H11.2501C10.9084 8.53268 10.6251 8.24935 10.6251 7.90768C10.6251 7.56602 10.9084 7.28268 11.2501 7.28268H11.8751C10.5834 6.38268 8.80008 6.50768 7.65008 7.65768C7.15008 8.15768 6.83341 8.80768 6.72508 9.53268C6.68341 9.84102 6.41675 10.066 6.10841 10.066C6.07508 10.066 6.05008 10.066 6.01675 10.0577C5.69175 10.016 5.45008 9.69935 5.50008 9.35768ZM13.2251 13.2243C12.3334 14.116 11.1667 14.5577 10.0001 14.5577C8.98342 14.5577 7.97508 14.1993 7.14175 13.5243V14.3077C7.14175 14.6493 6.85842 14.9327 6.51675 14.9327C6.17508 14.9327 5.89175 14.6493 5.89175 14.3077V12.0827C5.89175 11.741 6.17508 11.4577 6.51675 11.4577H8.74175C9.08342 11.4577 9.36675 11.741 9.36675 12.0827C9.36675 12.4243 9.08342 12.7077 8.74175 12.7077H8.11675C9.40841 13.6077 11.1917 13.4827 12.3417 12.3327C12.8417 11.8327 13.1584 11.1827 13.2667 10.4577C13.3167 10.116 13.6251 9.87435 13.9751 9.92435C14.3167 9.97435 14.5501 10.291 14.5084 10.6327C14.3584 11.641 13.9167 12.5327 13.2251 13.2243Z" fill="#292D32"/>
</svg>
