<svg width="17" height="15" viewBox="0 0 17 15" fill="none"
            xmlns="http://www.w3.org/2000/svg">
            <path
              d="M15.253 4.03866C15.264 4.18966 15.264 4.34066 15.264 4.49266C15.264 9.09766 11.758 14.4047 5.351 14.4047C3.377 14.4047 1.543 13.8327 0 12.8407C0.281 12.8727 0.551 12.8827 0.842 12.8827C2.471 12.8827 3.969 12.3327 5.167 11.3947C3.635 11.3627 2.352 10.3587 1.91 8.97766C2.125 9.00966 2.341 9.03166 2.566 9.03166C2.88 9.03166 3.193 8.98866 3.484 8.91366C1.888 8.58966 0.69 7.18766 0.69 5.49466C0.69 5.48366 0.69 5.46166 0.69 5.45166C1.154 5.70966 1.693 5.87166 2.265 5.89366C1.327 5.26766 0.712 4.19966 0.712 2.99266C0.712 2.34566 0.885 1.75166 1.187 1.23366C2.902 3.34866 5.48 4.72966 8.371 4.87966C8.316 4.62066 8.284 4.35066 8.284 4.08066C8.284 2.16166 9.838 0.597656 11.768 0.597656C12.771 0.597656 13.677 1.01766 14.314 1.69766C15.101 1.54666 15.855 1.25566 16.525 0.856656C16.266 1.66566 15.716 2.34566 14.993 2.77566C15.695 2.70066 16.374 2.50666 17 2.23666C16.525 2.92666 15.932 3.54266 15.253 4.03866Z"
              fill="white" />
          </svg>