<svg width="86" height="86" viewBox="0 0 86 86" fill="none" xmlns="http://www.w3.org/2000/svg">
<path d="M43.0002 45.6888C31.641 45.6888 22.396 36.4438 22.396 25.0846C22.396 13.7255 31.641 4.48047 43.0002 4.48047C54.3593 4.48047 63.6043 13.7255 63.6043 25.0846C63.6043 36.4438 54.3593 45.6888 43.0002 45.6888ZM43.0002 9.85547C34.6152 9.85547 27.771 16.6996 27.771 25.0846C27.771 33.4696 34.6152 40.3138 43.0002 40.3138C51.3852 40.3138 58.2293 33.4696 58.2293 25.0846C58.2293 16.6996 51.3852 9.85547 43.0002 9.85547Z" fill="#292D32"/>
<path d="M73.7814 81.5208C72.3122 81.5208 71.0939 80.3025 71.0939 78.8333C71.0939 66.4708 58.4805 56.4375 43.0005 56.4375C27.5205 56.4375 14.9072 66.4708 14.9072 78.8333C14.9072 80.3025 13.6889 81.5208 12.2197 81.5208C10.7506 81.5208 9.53223 80.3025 9.53223 78.8333C9.53223 63.5325 24.5464 51.0625 43.0005 51.0625C61.4547 51.0625 76.4689 63.5325 76.4689 78.8333C76.4689 80.3025 75.2505 81.5208 73.7814 81.5208Z" fill="#292D32"/>
</svg>
