<svg width="51" height="50" viewBox="0 0 51 50" fill="none" xmlns="http://www.w3.org/2000/svg">
<rect x="0.5" width="50" height="50" rx="25" fill="#DCFBE4"/>
<path d="M25.796 13.0691C24.362 12.7106 23.03 13.7951 22.934 15.1991C22.826 16.7756 22.589 18.2231 22.292 19.0841C22.1045 19.6241 21.5735 20.6036 20.732 21.5426C19.8965 22.4771 18.809 23.3096 17.5355 23.6576C16.5275 23.9321 15.5 24.8051 15.5 26.0801V32.0816C15.5 33.3491 16.523 34.2776 17.672 34.3991C19.277 34.5701 20.018 35.0216 20.774 35.4836L20.846 35.5286C21.254 35.7761 21.713 36.0506 22.301 36.2546C22.8965 36.4586 23.5925 36.5801 24.5 36.5801H29.75C31.1555 36.5801 32.1485 35.8646 32.651 34.9841C32.8939 34.5686 33.0251 34.0974 33.032 33.6161C33.032 33.3881 32.9975 33.1481 32.9165 32.9201C33.218 32.5256 33.4865 32.0531 33.6485 31.5686C33.8135 31.0736 33.9065 30.4256 33.6545 29.8451C33.758 29.6501 33.8345 29.4416 33.893 29.2406C34.0085 28.8356 34.0625 28.3886 34.0625 27.9551C34.0625 27.5231 34.0085 27.0776 33.893 26.6711C33.8417 26.4839 33.7724 26.302 33.686 26.1281C33.9487 25.7544 34.1176 25.3231 34.1787 24.8704C34.2398 24.4178 34.1912 23.9571 34.037 23.5271C33.728 22.6391 33.014 21.8771 32.237 21.6191C30.9665 21.1961 29.5325 21.2051 28.463 21.3026C28.241 21.3227 28.0194 21.3477 27.7985 21.3776C28.3167 19.149 28.2848 16.8277 27.7055 14.6141C27.6043 14.2595 27.4103 13.9384 27.1434 13.6839C26.8765 13.4294 26.5465 13.2508 26.1875 13.1666L25.796 13.0691ZM29.75 35.0816H24.5C23.735 35.0816 23.2055 34.9781 22.79 34.8356C22.3685 34.6901 22.031 34.4936 21.626 34.2461L21.566 34.2101C20.7335 33.7016 19.769 33.1136 17.831 32.9081C17.3315 32.8541 17 32.4731 17 32.0831V26.0801C17 25.6991 17.339 25.2656 17.93 25.1051C19.5725 24.6551 20.8955 23.6111 21.851 22.5431C22.8035 21.4781 23.447 20.3306 23.708 19.5761C24.0725 18.5261 24.3185 16.9241 24.431 15.3011C24.4685 14.7581 24.971 14.4101 25.4315 14.5241L25.8245 14.6231C26.0645 14.6831 26.2115 14.8376 26.2565 15.0056C26.8691 17.3397 26.7935 19.801 26.039 22.0931C25.9963 22.2206 25.9886 22.3572 26.0168 22.4887C26.045 22.6201 26.108 22.7416 26.1993 22.8403C26.2905 22.9391 26.4066 23.0115 26.5354 23.05C26.6642 23.0885 26.801 23.0916 26.9315 23.0591L26.936 23.0576L26.957 23.0531L27.044 23.0321C27.557 22.9235 28.0759 22.8449 28.598 22.7966C29.5925 22.7066 30.7835 22.7156 31.763 23.0426C32.0255 23.1296 32.438 23.4926 32.618 24.0176C32.7785 24.4796 32.7485 25.0226 32.219 25.5506L31.6895 26.0801L32.219 26.6111C32.2835 26.6756 32.3765 26.8226 32.45 27.0836C32.522 27.3341 32.5625 27.6386 32.5625 27.9551C32.5625 28.2731 32.522 28.5761 32.45 28.8281C32.375 29.0891 32.2835 29.2361 32.219 29.3006L31.6895 29.8301L32.219 30.3611C32.2895 30.4316 32.3825 30.6266 32.2265 31.0931C32.065 31.546 31.8065 31.9581 31.469 32.3006L30.9395 32.8301L31.469 33.3611C31.478 33.3686 31.5305 33.4361 31.5305 33.6161C31.5217 33.8358 31.4594 34.05 31.349 34.2401C31.1015 34.6721 30.5945 35.0816 29.75 35.0816Z" fill="#1DB559"/>
</svg>
