<svg width="24" height="25" viewBox="0 0 24 25" fill="none" xmlns="http://www.w3.org/2000/svg">
<mask id="mask0_4099_8499" style="mask-type:alpha" maskUnits="userSpaceOnUse" x="0" y="0" width="24" height="25">
<rect y="0.5" width="24" height="24" fill="#D9D9D9"/>
</mask>
<g mask="url(#mask0_4099_8499)">
<path d="M20.95 22.875L18 19.925V22.15H16V16.5H21.65V18.5H19.4L22.35 21.45L20.95 22.875ZM12 22.5C10.6167 22.5 9.31667 22.2375 8.1 21.7125C6.88333 21.1875 5.825 20.475 4.925 19.575C4.025 18.675 3.3125 17.6167 2.7875 16.4C2.2625 15.1833 2 13.8833 2 12.5C2 11.1167 2.2625 9.81667 2.7875 8.6C3.3125 7.38333 4.025 6.325 4.925 5.425C5.825 4.525 6.88333 3.8125 8.1 3.2875C9.31667 2.7625 10.6167 2.5 12 2.5C13.3833 2.5 14.6833 2.7625 15.9 3.2875C17.1167 3.8125 18.175 4.525 19.075 5.425C19.975 6.325 20.6875 7.38333 21.2125 8.6C21.7375 9.81667 22 11.1167 22 12.5C22 12.8333 21.9833 13.1667 21.95 13.5C21.9167 13.8333 21.8667 14.1667 21.8 14.5H19.75C19.8333 14.1667 19.8958 13.8333 19.9375 13.5C19.9792 13.1667 20 12.8333 20 12.5C20 12.1667 19.9792 11.8333 19.9375 11.5C19.8958 11.1667 19.8333 10.8333 19.75 10.5H16.35C16.4 10.8333 16.4375 11.1667 16.4625 11.5C16.4875 11.8333 16.5 12.1667 16.5 12.5C16.5 12.8333 16.4875 13.1667 16.4625 13.5C16.4375 13.8333 16.4 14.1667 16.35 14.5H14.35C14.4 14.1667 14.4375 13.8333 14.4625 13.5C14.4875 13.1667 14.5 12.8333 14.5 12.5C14.5 12.1667 14.4875 11.8333 14.4625 11.5C14.4375 11.1667 14.4 10.8333 14.35 10.5H9.65C9.6 10.8333 9.5625 11.1667 9.5375 11.5C9.5125 11.8333 9.5 12.1667 9.5 12.5C9.5 12.8333 9.5125 13.1667 9.5375 13.5C9.5625 13.8333 9.6 14.1667 9.65 14.5H13V16.5H10.1C10.3 17.2167 10.5583 17.9042 10.875 18.5625C11.1917 19.2208 11.5667 19.85 12 20.45C12.3333 20.45 12.6667 20.4292 13 20.3875C13.3333 20.3458 13.6667 20.3083 14 20.275V22.325C13.6667 22.3583 13.3333 22.3958 13 22.4375C12.6667 22.4792 12.3333 22.5 12 22.5ZM4.25 14.5H7.65C7.6 14.1667 7.5625 13.8333 7.5375 13.5C7.5125 13.1667 7.5 12.8333 7.5 12.5C7.5 12.1667 7.5125 11.8333 7.5375 11.5C7.5625 11.1667 7.6 10.8333 7.65 10.5H4.25C4.16667 10.8333 4.10417 11.1667 4.0625 11.5C4.02083 11.8333 4 12.1667 4 12.5C4 12.8333 4.02083 13.1667 4.0625 13.5C4.10417 13.8333 4.16667 14.1667 4.25 14.5ZM5.1 8.5H8.05C8.2 7.88333 8.3875 7.27917 8.6125 6.6875C8.8375 6.09583 9.1 5.51667 9.4 4.95C8.48333 5.25 7.65833 5.70417 6.925 6.3125C6.19167 6.92083 5.58333 7.65 5.1 8.5ZM9.4 20.05C9.1 19.4833 8.8375 18.9042 8.6125 18.3125C8.3875 17.7208 8.2 17.1167 8.05 16.5H5.1C5.58333 17.35 6.19167 18.0792 6.925 18.6875C7.65833 19.2958 8.48333 19.75 9.4 20.05ZM10.1 8.5H13.9C13.7 7.78333 13.4417 7.09583 13.125 6.4375C12.8083 5.77917 12.4333 5.15 12 4.55C11.5667 5.15 11.1917 5.77917 10.875 6.4375C10.5583 7.09583 10.3 7.78333 10.1 8.5ZM15.95 8.5H18.9C18.4167 7.65 17.8083 6.92083 17.075 6.3125C16.3417 5.70417 15.5167 5.25 14.6 4.95C14.9 5.51667 15.1625 6.09583 15.3875 6.6875C15.6125 7.27917 15.8 7.88333 15.95 8.5Z" fill="#1DB559"/>
</g>
</svg>
