<svg width="115" height="152" viewBox="0 0 115 152" fill="none" xmlns="http://www.w3.org/2000/svg">
<path d="M77.7665 95.5866C78.9926 94.7041 78.6929 94.2289 79.265 93.1156C79.8372 92.0023 79.3468 91.6086 80.3276 90.6854C81.3085 89.7622 80.1505 89.1512 81.3902 88.581C82.6299 88.0107 82.4392 89.1105 81.3902 90.3867C80.3412 91.6629 80.1914 92.0159 81.5264 91.0384C82.6973 89.9874 83.579 88.6554 84.0875 87.169C84.8368 85.6212 85.4498 85.1325 86.0765 85.051C86.7031 84.9696 86.744 83.3267 86.6486 82.1863C86.5532 81.0458 86.2127 79.9868 86.6486 79.2401C87.0845 78.4934 86.6486 77.7738 87.2753 77.7738C87.9019 77.7738 88.8147 76.8506 89.7955 75.8867C90.1206 75.5203 90.5216 75.2286 90.9708 75.0317C91.4201 74.8348 91.9068 74.7374 92.3974 74.7462C93.4191 74.6511 92.847 74.2982 93.5009 74.1217C94.1548 73.9452 94.6044 73.3342 95.0539 72.9269C95.5035 72.5196 97.3017 72.9269 98.3642 72.9269C99.4268 72.9269 100.135 73.0084 100.135 72.3567C100.128 72.2058 100.151 72.0549 100.202 71.9129C100.254 71.7709 100.334 71.6405 100.436 71.5293C100.539 71.4182 100.663 71.3284 100.8 71.2654C100.938 71.2023 101.087 71.1671 101.239 71.1619C101.865 71.1619 102.124 70.9854 102.124 70.1029C102.093 69.76 102.149 69.4149 102.287 69.0993C102.425 68.7837 102.641 68.5078 102.914 68.2972C103.446 67.9035 103.541 67.021 103.718 66.4508C103.895 65.8805 104.467 66.22 104.467 65.3918C104.467 64.5636 104.781 63.6268 104.781 62.9615C104.781 62.2962 105.489 62.3913 105.789 61.9025C106.088 61.4137 105.53 60.8028 106.02 59.4451C106.259 58.1617 106.259 56.8456 106.02 55.5622C106.02 54.3267 106.02 53.0504 106.456 52.6567C106.892 52.263 106.674 52.0458 106.32 51.8693C105.966 51.6928 106.32 51.204 106.674 51.2854C107.028 51.3669 107.342 52.0458 107.914 51.6928C108.657 50.7837 109.2 49.729 109.508 48.5972C109.998 47.3753 110.788 47.4161 111.415 47.1445C112.702 46.1428 113.652 44.7742 114.14 43.2208C114.984 41.0757 114.14 38.9577 113.744 37.4506C113.349 35.9436 112.9 36.2695 112.014 36.3102C111.129 36.3509 109.453 36.1337 107.246 33.7578C106.565 32.9084 105.645 32.2822 104.603 31.9603C103.561 31.6383 102.446 31.6355 101.402 31.9521C99.9445 32.3458 98.446 31.2461 97.4788 31.0288C96.5115 30.8116 95.5716 32.0335 94.8632 32.3051C94.1548 32.5766 95.2174 31.2461 95.2582 30.4043C95.2991 29.5626 92.6154 28.3814 90.572 27.5939C88.5286 26.8064 87.6567 27.1866 87.6567 28.4628C87.6567 29.739 86.8666 28.0691 86.2944 29.4403C85.7223 30.8116 84.5234 29.9155 85.2863 29.4403C86.0984 28.8868 86.7023 28.0795 87.0028 27.1458C87.2753 26.3177 84.0875 25.6524 82.9841 26.0869C81.8806 26.5213 82.589 28.1234 81.7035 27.6346C80.8181 27.1459 81.5264 25.9647 82.2348 26.0054C82.9432 26.0461 83.7333 24.6477 84.2237 23.5344C84.7141 22.4211 83.3791 22.2989 82.589 21.4164C81.7989 20.5339 81.9623 18.0086 81.1586 17.6013C80.1745 18.4987 79.3742 19.5776 78.8019 20.7783C78.3796 22.0274 77.8346 21.3078 76.7039 21.6744C76.3595 21.8395 75.9653 21.8698 75.5995 21.7592C75.2337 21.6485 74.9229 21.4051 74.7286 21.077C74.4289 20.5882 73.2982 21.077 72.5081 21.077C71.718 21.077 72.2084 22.0274 71.6771 22.3397C71.1458 22.652 69.7563 21.7423 69.2795 22.2718C68.8027 22.8013 68.503 22.2718 68.2714 22.747C68.0398 23.2222 67.1952 22.9235 66.9091 23.2222C66.623 23.5209 65.8329 23.7109 64.7567 22.5161C64.3309 22.0423 64.062 21.4492 63.9864 20.8176C63.9108 20.186 64.0324 19.5466 64.3344 18.9862C64.455 18.8757 64.5479 18.7386 64.6057 18.5859C64.6636 18.4332 64.6847 18.2691 64.6675 18.1068C64.6503 17.9445 64.5952 17.7884 64.5066 17.6511C64.418 17.5139 64.2984 17.3992 64.1573 17.3162C63.4898 17.0311 64.1573 15.7685 63.3127 15.6463C62.4681 15.5241 62.6043 16.6102 62.0594 16.7867C61.5145 16.9632 60.2067 17.8593 59.6073 17.7371C59.0079 17.6149 58.245 17.8593 58.245 18.511C58.245 19.1627 57.5911 18.9862 57.4685 18.511C57.3459 18.0358 56.1062 18.2666 55.7248 17.9136C55.3433 17.5606 53.695 17.7371 54.3625 18.158C54.6389 18.2832 54.8654 18.4968 55.006 18.7649C55.1467 19.033 55.1935 19.3402 55.139 19.6379C55.139 20.3031 55.6703 20.1267 55.6703 20.9005C55.6703 21.6744 56.2697 21.1313 56.692 21.1313C57.1143 21.1313 57.1143 21.8509 56.4604 21.9731C56.1819 22.0123 55.9224 22.1364 55.7175 22.3285C55.5126 22.5205 55.3724 22.771 55.3161 23.0457C55.139 23.643 54.5396 23.2222 53.9538 23.6974C53.368 24.1726 52.9457 24.6477 52.5915 24.4169C52.2373 24.1861 51.9376 24.4169 51.5153 24.5934C51.093 24.7699 50.9159 24.5934 50.3165 24.1182C49.7171 23.6431 49.5945 22.8963 48.8043 22.1089C48.188 22.4094 47.5245 22.6023 46.8427 22.6791C46.1479 22.6791 43.9546 22.5161 43.832 22.8963C43.786 23.1108 43.8117 23.3344 43.9052 23.533C43.9987 23.7315 44.1548 23.8942 44.3497 23.9961C44.7175 24.0775 45.4667 24.2947 44.7584 24.8106C44.05 25.3266 43.3961 24.6341 43.3961 25.8832C43.3961 27.1323 45.0036 27.9469 44.6766 29.1009C44.4541 29.991 44.3173 30.9003 44.2679 31.8163C44.2679 32.4001 44.0364 34.3959 43.5051 34.5316C42.9738 34.6674 42.497 34.07 41.7886 34.6538C41.0802 35.2376 40.1947 34.8847 39.3774 35.5364C38.56 36.188 37.6609 35.9437 37.6064 36.7175C37.5519 37.4914 36.7754 37.8851 36.9525 38.5911C37.1296 39.2971 36.5983 39.1206 36.067 39.6501C35.5357 40.1796 36.067 40.5326 35.7809 40.9399C35.4948 41.3472 35.8899 41.9989 36.3122 42.6506C36.7345 43.3023 37.1977 43.7639 37.1296 44.3477C37.0615 44.9315 37.5519 45.1759 38.1377 45.108C38.7235 45.0401 38.2467 46.2349 39.2003 46.2349C40.1538 46.2349 41.0802 46.4657 41.3118 45.9362C41.5434 45.4067 42.1973 44.9994 42.1973 45.7597C42.1973 46.52 42.0202 48.5837 42.6741 48.3393C43.5266 48.1235 44.4225 48.147 45.2624 48.4072C45.5589 48.5084 45.8783 48.5225 46.1827 48.4479C46.487 48.3733 46.7634 48.213 46.9789 47.9863C47.3876 47.579 47.8644 47.579 48.6817 47.1174C49.3724 46.5838 50.18 46.2209 51.0385 46.0584C51.815 46.0584 53.1092 45.5832 52.9321 46.167C52.6269 47.4949 52.8568 48.8892 53.5723 50.0499C54.5259 51.1632 55.0573 51.5705 55.9427 51.4076C56.8282 51.2447 56.7056 51.7606 57.305 51.6928C57.9044 51.6249 57.5502 52.3987 58.136 52.3987C58.7218 52.3987 59.7844 52.5209 59.7844 53.159C59.7844 53.7971 61.5553 53.2812 61.964 53.6342C62.3727 53.9872 62.8495 54.2859 62.7269 54.9919C62.6043 55.6979 63.6124 56.2138 63.0266 56.5125C62.4408 56.8112 63.2037 57.395 63.2582 58.1553C63.3127 58.9156 64.1437 59.2143 65.4515 59.16C66.7592 59.1057 67.0998 59.16 67.0998 60.1511C67.0998 61.1422 67.9853 61.2101 68.2714 62.0926C68.5575 62.9751 67.9172 63.9798 68.0398 64.6858C68.0716 64.9463 68.0312 65.2104 67.9231 65.4497C67.8151 65.689 67.6435 65.8944 67.4268 66.0435C67.89 66.6273 67.9172 66.8852 67.5222 67.1025C67.1271 67.3197 68.176 68.2429 67.8763 69.5463C67.5766 70.8496 67.5221 71.094 68.898 71.1619C70.2739 71.2298 70.1514 71.6371 70.6282 71.3384C71.105 71.0397 71.827 72.3567 71.9904 73.0083C72.1539 73.66 72.7124 75.2214 72.944 75.2214C73.1756 75.2214 73.9113 74.5018 74.6196 74.8548C75.328 75.2078 74.4562 77.4344 74.4425 78.4119C74.8981 78.3688 75.3577 78.3962 75.8048 78.4934C76.1982 79.4562 76.3206 80.5076 76.159 81.5346C75.9819 81.9826 74.4971 82.3764 73.7478 82.8923C72.4006 83.8956 71.2311 85.1162 70.2876 86.5037C69.8433 87.2383 69.3422 87.9374 68.7891 88.5946C68.9855 88.6463 69.1921 88.6463 69.3885 88.5946C69.7972 88.4181 70.4238 88.418 71.0913 89.2191C71.7589 90.0201 71.718 90.5768 71.9904 90.5768C72.2629 90.5768 72.5626 89.5042 73.1075 90.2645C73.6524 91.0248 75.0283 91.6222 75.3416 91.9616C75.655 92.301 76.7039 92.5861 76.7039 93.5229C76.5241 94.5292 76.5942 95.564 76.9083 96.537C77.1449 96.1791 77.4343 95.8587 77.7665 95.5866Z" fill="#BABABA" stroke="white" stroke-width="0.331796" stroke-miterlimit="10"/>
<path d="M76.6237 93.4786C76.6237 92.5418 75.5883 92.2703 75.2614 91.9173C74.9344 91.5643 73.5585 90.9805 73.0272 90.2202C72.4959 89.4599 72.169 90.4917 71.9102 90.5324C71.6513 90.5731 71.6786 89.9486 71.0111 89.1747C70.3435 88.4008 69.7169 88.3737 69.3082 88.5502C69.1118 88.602 68.9052 88.602 68.7088 88.5502C68.3832 88.8465 68.1672 89.2434 68.0957 89.6771C68.0957 90.5188 67.4691 91.4556 67.4282 93.0713C67.3874 94.6869 66.9378 94.429 66.8833 95.6509C66.8288 96.8728 67.292 96.6827 67.4691 96.8592C67.6462 97.0357 67.4691 97.3616 67.3193 97.6874C67.51 97.8639 67.7007 98.1219 68.1094 98.0676C69.0067 98.0625 69.8898 98.2919 70.6705 98.7328C71.6513 99.1808 71.2971 98.597 72.2235 98.7328C73.2418 98.9679 74.3111 98.828 75.2341 98.3391C75.8709 97.8209 76.4066 97.1904 76.8144 96.4791C76.5072 95.5092 76.4417 94.4793 76.6237 93.4786Z" fill="#BABABA" stroke="white" stroke-width="0.331796" stroke-miterlimit="10"/>
<path d="M51.5064 148.039C50.403 148.039 48.2369 145.975 47.5694 145.446C46.9019 144.916 47.3923 144.387 46.6022 144.522C45.812 144.658 46.3297 143.898 46.7793 143.681C47.2288 143.463 46.6158 142.73 46.0709 142.608C46.0709 143.789 45.7712 149.098 46.0709 149.152C46.3706 149.206 48.7955 148.88 49.4357 149.328C49.6946 149.41 50.0624 149.627 50.3349 149.328C50.6073 149.03 52.1058 149.098 52.8142 148.663C53.5226 148.229 52.6098 148.093 51.5064 148.039ZM76.0275 78.4711C75.5804 78.3739 75.1208 78.3464 74.6652 78.3896C74.6583 78.4573 74.6583 78.5256 74.6652 78.5933C74.7878 79.435 74.2429 81.5802 73.6572 81.5123C73.0714 81.4444 72.5673 82.4083 72.0905 82.2861C71.6137 82.1639 70.9598 83.0057 70.3604 82.6527C69.761 82.2997 68.93 82.7749 68.4396 82.4762C67.9492 82.1775 66.5869 82.4084 66.5869 82.0554C66.5869 81.7024 67.2544 81.811 67.2544 80.6977C67.2544 79.5844 69.039 78.4303 68.8074 77.9823C68.5758 77.5343 65.5107 76.6246 65.0884 76.1223C64.8269 75.7836 64.4934 75.5069 64.1118 75.3121C63.7302 75.1172 63.31 75.0091 62.8815 74.9954C61.6827 74.8732 61.7372 74.2758 60.6609 73.6377C59.5855 72.8723 58.6617 71.9148 57.9364 70.8137C57.2144 70.7323 56.179 70.5829 55.9747 70.8137C55.7703 71.0446 55.1982 72.8095 54.7895 71.9949C54.3808 71.1803 53.4272 71.1667 52.4872 71.0445C51.5473 70.9223 51.6699 70.1078 50.7163 71.1124C50.2852 71.5728 49.7951 71.9745 49.2586 72.3072C49.2412 73.1017 49.1034 73.889 48.8499 74.6424C48.6183 75.0497 46.6431 76.0001 46.5886 76.421C46.5341 76.8419 46.8201 77.5614 46.4659 77.8601C46.1117 78.1588 47.2969 79.6387 46.643 80.0052C45.9891 80.3718 47.1198 80.9556 46.643 81.3629C46.1662 81.7702 45.4442 81.8924 45.4442 82.3133C45.4442 82.7342 45.4443 83.671 44.8449 83.9832C44.5607 84.1863 44.3312 84.4562 44.1768 84.7688C44.0223 85.0814 43.9476 85.4271 43.9594 85.7754C43.9594 86.4271 43.1147 86.0062 43.4144 86.848C43.7141 87.6897 44.0683 88.6944 43.4144 88.8709C42.7605 89.0474 42.9376 90.4187 42.5834 90.4187C42.2292 90.4187 42.0385 91.8578 42.5834 92.5638C43.0251 93.124 43.2564 93.8203 43.2373 94.5325C43.2373 95.1977 43.9593 95.5507 43.7141 96.2703C43.4689 96.9899 43.5915 97.628 43.1692 97.9403C42.7469 98.2525 43.1692 99.135 42.5834 99.3658C41.9977 99.5966 42.9921 101.511 42.5834 101.878C42.1747 102.244 41.0849 102.529 41.0849 103.846C41.1555 104.718 41.1555 105.594 41.0849 106.466C40.9623 106.942 41.6843 106.819 41.5617 107.593C41.4391 108.367 40.4855 107.892 40.431 108.367C40.3765 108.842 40.6626 109.806 40.3084 109.861C39.9542 109.915 39.7635 110.282 39.7635 111.123C39.7635 111.965 39.2867 112.074 39.2322 112.481C39.1777 112.888 39.6545 113.377 39.6545 113.839C39.6545 114.3 39.9542 115.916 39.5319 115.984C39.1096 116.052 38.878 117.83 39.2322 118.075C39.3866 118.202 39.4895 118.381 39.522 118.578C39.5546 118.775 39.5145 118.977 39.4093 119.147C39.2322 119.5 40.2539 119.853 39.709 120.396C39.5983 120.486 39.5235 120.613 39.4982 120.753C39.473 120.894 39.4988 121.038 39.5712 121.161C39.6436 121.284 39.7576 121.377 39.8928 121.424C40.028 121.47 40.1754 121.467 40.3084 121.415C40.9078 121.238 41.262 122.297 40.6081 122.297C39.9542 122.297 39.2459 122.297 39.8316 122.718C40.4174 123.139 40.9078 123.736 40.1313 124.076C39.3548 124.415 40.0087 124.904 39.8316 125.623C39.6545 126.343 40.3629 126.981 39.8316 127.171C39.3003 127.361 40.0632 128.434 39.2322 128.529C38.4012 128.624 38.9325 129.425 38.3876 129.887C37.8427 130.348 39.1096 131.027 38.3876 131.434C37.6656 131.842 38.2105 132.792 37.5566 132.792C36.9027 132.792 36.5349 133.688 36.4804 134.15C36.4259 134.611 36.0036 135.399 36.4804 135.996C36.9572 136.593 36.3578 137.069 36.8482 137.354C37.3387 137.639 38.9325 137.232 38.7009 137.951C38.4693 138.671 38.5238 140.218 38.8235 140.218C39.1232 140.218 39.3003 141.115 39.7771 141.047C40.9482 140.893 42.1344 140.893 43.3054 141.047C43.7087 141.16 44.0781 141.37 44.3816 141.658C44.8993 141.44 46.0164 142.16 46.2752 141.916C46.5341 141.671 45.1718 140.463 45.2127 140.056C45.2535 139.648 44.9947 138.997 44.9947 138.562C44.9947 138.128 44.7631 137.204 45.3898 136.716C46.0164 136.227 46.0437 135.833 46.4523 135.915C46.861 135.996 47.6375 135.562 47.692 134.557C47.7465 133.552 48.2097 133.104 49.0543 132.357C49.8989 131.611 51.629 130.769 51.3974 130.416C51.1658 130.063 51.7516 128.923 51.7516 128.488C51.7516 128.054 50.2531 128.135 49.7627 127.959C49.2723 127.782 47.5149 126.601 48.4004 124.917C48.7507 124.364 49.232 123.905 49.8022 123.581C50.3723 123.256 51.0137 123.077 51.6699 123.057C52.2012 123.057 51.6699 122.27 52.1603 122.012C52.6507 121.754 52.678 121.306 52.678 120.654C52.678 120.003 52.678 118.713 53.4817 118.631C54.2855 118.55 54.5034 118.102 54.013 117.966C53.5226 117.83 53.3046 117.26 54.0947 117.179C54.8849 117.097 54.626 117.83 55.1982 117.83C55.7703 117.83 56.7512 116.866 56.0019 116.296C55.2527 115.726 55.0211 116.554 54.6396 116.649C54.2582 116.744 53.9313 116.12 53.5362 116.12C53.1411 116.12 53.4 115.02 53.2229 114.613C53.0783 114.328 52.9962 114.017 52.9821 113.698C52.968 113.38 53.0222 113.062 53.1412 112.766C53.4954 112.277 54.9939 113.513 56.3289 113.608C57.6639 113.703 58.6175 112.943 58.6175 112.454C58.6175 111.965 58.0045 111.096 58.7946 110.567C59.5848 110.037 58.9309 109.861 58.7129 109.209C58.4949 108.557 59.0671 108.069 59.4213 108.422C59.7755 108.775 62.3774 108.544 64.5435 108.109C66.7095 107.675 68.2216 106.874 68.3443 106.263C68.8694 105.342 69.4757 104.47 70.1561 103.656C70.4694 103.127 70.1561 102.475 69.3251 102.298C68.4941 102.122 68.4805 101.144 68.9709 100.574C69.4613 100.004 68.6984 99.4744 67.8674 99.3929C67.0365 99.3115 65.7014 98.7277 66.5052 98.0353C66.8594 97.6958 67.0364 97.7637 67.2135 97.9131C67.3498 97.5872 67.4588 97.1799 67.3634 97.0849C67.268 96.9899 66.7367 97.0849 66.7776 95.8765C66.8185 94.6682 67.2817 94.899 67.3225 93.297C67.3634 91.6949 67.99 90.7445 67.99 89.9028C67.99 89.061 69.5158 88.0699 70.3604 86.6851C71.3039 85.2975 72.4734 84.0769 73.8206 83.0736C74.5699 82.5713 76.0548 82.1775 76.2318 81.7159C76.4716 80.6348 76.3912 79.5075 76.0003 78.4711H76.0275Z" fill="#BABABA" stroke="white" stroke-width="0.663592" stroke-miterlimit="10"/>
<path d="M39.9244 140.981C39.4476 141.049 39.2705 140.153 38.9708 140.153C38.6711 140.153 38.603 138.592 38.8482 137.886C39.0934 137.18 37.4859 137.519 36.9955 137.288C36.5051 137.057 37.1726 136.569 36.6277 135.93C36.0828 135.292 36.5051 134.573 36.6277 134.084C36.7503 133.595 37.05 132.726 37.7039 132.726C38.3578 132.726 37.881 131.776 38.5349 131.369C39.1888 130.961 37.9355 130.242 38.5349 129.821C39.1343 129.4 38.5349 128.626 39.3795 128.463C40.2241 128.3 39.3795 127.268 39.9789 127.106C40.5783 126.943 39.8563 126.277 39.9789 125.558C40.1015 124.838 39.5021 124.309 40.2786 124.01C41.0551 123.711 40.5102 123.114 39.9789 122.652C39.4476 122.191 40.1015 122.231 40.7554 122.231C41.4093 122.231 41.0551 121.172 40.4557 121.349C40.3227 121.401 40.1753 121.405 40.0401 121.358C39.9049 121.312 39.7908 121.219 39.7185 121.096C39.6461 120.973 39.6202 120.828 39.6455 120.688C39.6708 120.547 39.7455 120.421 39.8563 120.331C40.4012 119.788 39.3795 119.435 39.5566 119.082C39.6618 118.912 39.7019 118.709 39.6693 118.512C39.6368 118.315 39.5339 118.137 39.3795 118.009C39.0253 117.765 39.2569 115.973 39.6792 115.918C40.1015 115.864 39.8018 114.248 39.8018 113.773C39.8018 113.298 39.325 112.809 39.3795 112.415C39.434 112.022 39.9108 111.872 39.9108 111.058C39.9108 110.243 40.1015 109.863 40.4557 109.795C40.8099 109.727 40.4557 108.79 40.5783 108.302C40.7009 107.813 41.5864 108.302 41.709 107.528C41.8316 106.754 41.1096 106.876 41.2322 106.401C41.3028 105.529 41.3028 104.653 41.2322 103.781C41.2322 102.423 42.3084 102.165 42.7307 101.812C43.153 101.459 42.1858 99.5446 42.7307 99.3002C43.2756 99.0558 42.9078 98.1733 43.3165 97.8746C43.7252 97.5759 43.6162 96.9106 43.8614 96.2047C44.1066 95.4987 43.3846 95.1321 43.3846 94.4668C43.4037 93.7547 43.1723 93.0584 42.7307 92.4982C42.1858 91.7922 42.3629 90.353 42.7307 90.353C43.0985 90.353 42.9078 88.9954 43.5617 88.8053C44.2156 88.6152 43.8614 87.6106 43.5617 86.7824C43.262 85.9542 44.1066 86.3615 44.1066 85.7098C44.0949 85.3615 44.1696 85.0158 44.3241 84.7031C44.4785 84.3905 44.708 84.1207 44.9921 83.9176C45.537 83.6733 45.5915 82.6686 45.5915 82.2477C45.5915 81.8268 46.3817 81.6503 46.7903 81.2973C47.199 80.9443 46.082 80.3334 46.7903 79.9396C47.4987 79.5459 46.2454 78.0932 46.6132 77.7945C46.9811 77.4958 46.6132 76.8305 46.7358 76.3553C46.8584 75.8802 48.7656 74.9977 48.9972 74.5768C49.2507 73.8233 49.3885 73.036 49.4059 72.2416C48.7929 72.6489 48.2616 72.8661 48.1526 72.6353C48.0436 72.4045 48.1526 70.9789 47.6895 70.463C47.2263 69.9471 47.5123 68.8745 46.981 68.6301C46.4497 68.3857 45.7959 67.2725 46.2727 66.9873C46.7495 66.7022 46.2726 65.9284 46.6813 65.6297C47.09 65.331 46.4498 65.2224 45.864 64.5164C45.2782 63.8104 46.0956 62.9279 45.3872 62.3984C44.6788 61.8689 44.6788 61.2308 44.5017 61.5295C44.3246 61.8282 44.2701 62.8193 43.6843 63.1044C43.5304 63.1959 43.3845 63.3004 43.2484 63.4166C43.1529 64.0102 43.1529 64.6152 43.2484 65.2088C43.5751 66.896 43.6212 68.6252 43.3846 70.3272C43.181 71.3376 42.9171 72.335 42.5945 73.3142C42.322 74.0609 43.2075 74.1152 42.8533 74.4682C42.4991 74.8212 42.6354 75.7037 42.6354 77.1021C42.3602 78.687 41.9963 80.2553 41.5455 81.7997C41.5455 82.5464 40.9325 83.0216 41.0142 83.8633C41.0383 84.2039 40.9685 84.5445 40.8124 84.8484C40.6564 85.1522 40.42 85.4079 40.1288 85.5876C39.6384 85.9813 40.9325 87.2576 40.878 87.9636C40.8235 88.6695 39.9108 88.9682 40.1288 90.1223C40.2686 91.5716 40.2686 93.031 40.1288 94.4804C40.1288 94.9692 39.5566 94.9284 39.6928 95.8381C39.8291 96.7477 39.1207 96.9785 38.9844 98.2955C38.6334 99.7627 38.1122 101.184 37.4314 102.531C37.0364 103.55 37.0364 104.12 36.5051 104.12C35.9738 104.12 35.8376 104.69 36.2463 105.573C36.6549 106.455 35.9738 107.202 36.5051 108.084C37.0364 108.967 36.8593 109.279 36.6004 110.107C36.3416 110.936 35.9738 110.99 35.9738 111.777C35.9738 112.565 35.3608 113.244 35.715 114.112C36.0692 114.981 35.9738 115.307 35.5379 115.307C35.1019 115.307 34.8703 116.013 34.6933 117.466C34.5162 118.919 34.557 118.824 35.6196 118.824C36.6822 118.824 35.8376 115.267 36.5051 115.267C37.1726 115.267 36.6005 114.683 37.2544 114.506C37.9082 114.33 37.3497 115.131 37.7856 115.267C38.2216 115.402 38.5349 115.742 37.9219 116.135C37.3088 116.529 38.0581 117.33 37.7448 117.819C37.4314 118.308 36.9955 118.824 37.2544 119.407C37.5132 119.991 36.941 119.937 36.9001 120.684C36.8593 121.43 37.2952 121.471 36.9955 121.648C36.6958 121.824 37.3906 122.394 36.9955 122.489C36.6005 122.584 36.8184 123.141 37.0909 123.671C37.3633 124.2 36.5187 123.901 36.0691 124.254C35.6196 124.607 36.5187 125.083 36.2463 125.612C35.9738 126.142 35.279 125.354 34.9657 125.083C34.6524 124.811 35.4561 124.295 35.8512 123.725C36.2463 123.155 35.4561 122.001 34.7886 122.272C34.1211 122.544 35.4561 123.277 35.4561 123.847C35.4561 124.417 34.3527 123.725 34.3935 124.336C34.4344 124.947 33.6443 124.73 33.2492 125.178C32.8542 125.626 33.7805 126.006 33.331 126.142C32.8814 126.277 32.1458 126.888 32.0913 127.336C32.0368 127.784 32.5817 127.866 32.5817 127.418C32.5817 126.97 33.2901 126.848 33.5081 127.418C33.726 127.988 34.0394 127.418 34.6524 127.554C35.2654 127.689 35.1837 128.613 34.8295 128.572C34.4753 128.531 34.1347 129.142 34.2164 129.794C34.2982 130.445 35.5787 129.794 36.0691 129.984C36.5596 130.174 36.4233 131.084 36.0691 130.771C35.715 130.459 35.0474 129.929 34.7069 130.459C34.3663 130.988 33.9167 130.731 33.5217 130.554C33.1266 130.378 31.7098 131.301 32.1594 131.654C32.609 132.007 32.609 132.577 32.9087 132.536C33.1067 132.506 33.2962 132.434 33.465 132.327C33.6339 132.219 33.7784 132.078 33.8895 131.912C34.0666 131.559 34.6796 131.206 34.7205 132.007C34.7614 132.808 33.8895 132.4 33.7124 132.835C33.479 133.325 33.1105 133.74 32.6498 134.03C32.5482 134.093 32.4741 134.192 32.4423 134.307C32.4105 134.422 32.4234 134.545 32.4783 134.651C32.5333 134.757 32.6263 134.839 32.7388 134.879C32.8514 134.92 32.9752 134.917 33.0857 134.871C33.5353 134.641 32.9631 135.401 33.5762 135.482C34.1892 135.564 34.3254 135.129 34.2028 134.695C34.0802 134.26 34.5025 133.337 35.0338 133.772C35.5651 134.206 34.775 134.736 34.775 135.129C34.775 135.523 34.4617 136.148 34.4617 136.636C34.4617 137.125 33.8895 136.854 33.9304 137.383C33.9712 137.913 32.6907 137.56 33.2628 137.913C33.835 138.266 32.9087 138.754 33.2628 139.094C33.617 139.433 33.835 138.619 34.3254 138.795C34.8159 138.972 34.7205 139.094 35.3471 138.795C35.9738 138.496 36.3144 139.284 35.7422 139.46C35.1701 139.637 34.5434 140.289 34.8159 140.384C35.0883 140.479 35.8239 139.936 36.001 140.519C36.1781 141.103 36.6277 140.913 36.6686 140.289C36.7094 139.664 37.772 140.207 37.9491 140.737C38.1262 141.266 36.8457 141.565 36.1781 141.443C35.5106 141.32 35.17 142.054 35.606 142.624C36.0419 143.194 36.5868 142.624 37.0636 142.149C37.5404 141.673 39.938 141.796 40.1151 142.325C40.2922 142.855 39.0117 142.407 38.8755 142.719C38.7392 143.031 37.772 143.289 37.6358 142.936C37.4996 142.583 36.5868 143.072 36.5323 143.642C36.4779 144.212 35.7831 144.212 36.5323 144.43C37.2816 144.647 37.1045 143.601 38.3442 143.683C39.5838 143.764 40.2378 142.542 40.5919 143.248C40.9461 143.954 39.5702 144.525 39.0934 144.077C38.6166 143.629 38.0308 144.389 38.0717 145.054C38.1126 145.719 36.7094 144.878 35.9465 144.783C35.1837 144.688 35.5515 145.448 36.1781 146.14C36.8048 146.833 37.1454 146.045 37.8946 146.534C38.6439 147.023 38.6439 147.552 39.1752 147.063C39.7064 146.575 39.1752 146.615 38.821 146.398C38.4668 146.181 38.821 145.434 39.6247 145.828C39.8227 145.909 40.0396 145.934 40.2508 145.898C40.462 145.863 40.659 145.769 40.8194 145.628C40.9797 145.486 41.0971 145.303 41.158 145.098C41.219 144.894 41.2211 144.676 41.1641 144.47C40.9053 143.411 41.9134 142.936 42.9351 142.583C43.9568 142.23 43.4255 143.235 42.6762 143.547C41.927 143.859 41.7908 144.077 42.3629 144.688C42.9351 145.298 43.7252 144.294 44.1747 144.783C44.6243 145.271 43.2893 145.176 43.0713 145.665C42.8533 146.154 43.9023 146.724 43.153 147.023C42.4038 147.321 42.758 145.556 42.3221 145.393C41.8861 145.231 41.4774 145.611 41.9134 146.615C42.3493 147.62 41.3821 146.751 40.9461 146.262C40.5102 145.774 39.8835 146.493 40.4148 147.023C40.9461 147.552 39.3931 147.023 39.3931 147.81C39.3931 148.598 40.0606 147.946 40.8644 148.122C41.6681 148.299 41.3003 149.48 41.8725 149.887C42.4447 150.295 41.9678 148.53 42.5809 148.34C43.1939 148.15 42.5809 149.697 43.9432 150.186C45.3054 150.675 44.0249 149.928 44.6515 149.48C45.2782 149.032 46.0138 150.838 46.7222 150.987C47.4306 151.136 46.9538 150.186 46.4634 149.629C45.9729 149.073 46.9538 149.412 47.6077 149.629C48.2616 149.847 48.8065 149.942 48.97 149.453C48.97 149.276 49.1335 149.276 49.2969 149.331C48.6022 148.883 46.259 149.209 45.9321 149.154C45.6051 149.1 45.864 143.819 45.9321 142.61H45.7959C45.2237 142.61 43.9432 142.746 44.1611 141.864C44.1737 141.799 44.2012 141.739 44.2414 141.687C44.2816 141.635 44.3334 141.593 44.3927 141.565C44.0892 141.277 43.7198 141.067 43.3165 140.954C42.1892 140.821 41.0495 140.83 39.9244 140.981Z" fill="#BABABA" stroke="white" stroke-width="0.331796" stroke-miterlimit="10"/>
<path d="M74.8668 74.8348C74.1584 74.4818 73.5045 75.2014 73.1912 75.2014C72.8779 75.2014 72.4147 73.64 72.2376 72.9883C72.0605 72.3366 71.3385 71.0197 70.8753 71.3184C70.4121 71.6171 70.5211 71.1962 69.1452 71.1419C67.7693 71.0876 67.7829 70.8432 68.1235 69.5262C68.4641 68.2093 67.2244 67.3811 67.7693 67.0824C68.3142 66.7837 68.1371 66.6072 67.6739 66.0234C67.5781 66.0929 67.4651 66.1352 67.347 66.1456C66.8702 66.1456 66.2844 65.3174 65.4534 65.3174C64.6782 65.241 63.8955 65.3195 63.1511 65.5482C62.5653 65.8469 61.4483 65.5482 60.7399 65.9691C60.0315 66.39 59.146 67.4354 59.2141 67.8427C59.2823 68.25 58.9689 70.7889 58.6147 70.8975C58.3889 70.9311 58.1594 70.9311 57.9336 70.8975C58.6589 71.9985 59.5827 72.956 60.6582 73.7214C61.7344 74.3731 61.6799 74.9705 62.8787 75.0791C63.3072 75.0928 63.7274 75.201 64.109 75.3958C64.4906 75.5906 64.8241 75.8674 65.0856 76.206C65.5079 76.7491 68.5594 77.6452 68.8046 78.066C69.0499 78.4869 67.2516 79.6681 67.2516 80.7814C67.2516 81.8947 66.5841 81.7318 66.5841 82.1391C66.5841 82.5464 67.9464 82.2613 68.4368 82.56C68.9272 82.8587 69.7991 82.3699 70.3576 82.7365C70.9162 83.103 71.611 82.2613 72.0878 82.3699C72.5645 82.4785 73.055 81.5417 73.6544 81.596C74.2538 81.6503 74.7851 79.5188 74.6624 78.677C74.5398 77.8353 75.6024 75.2013 74.8668 74.8348Z" fill="#BABABA" stroke="white" stroke-width="0.331796" stroke-miterlimit="10"/>
<path d="M28.031 8.07751C27.3226 7.01852 26.042 7.09998 25.2383 6.71983C24.4345 6.33968 23.4264 6.8556 22.4183 7.77882C21.9458 8.10068 21.3835 8.26603 20.8113 8.25141C20.2391 8.23679 19.686 8.04294 19.2306 7.69736C18.85 7.43667 18.5064 7.12612 18.2089 6.77411C17.9444 7.1387 17.8321 7.59135 17.8956 8.03678C17.9773 8.28117 17.7729 8.66132 17.6367 9.1365C18.5979 9.21738 19.502 9.62475 20.1978 10.2905C20.8653 11.0915 21.2604 10.562 21.6555 11.268C22.0505 11.974 23.0177 11.2681 23.2085 10.8607C23.3992 10.4534 22.718 10.2498 22.6363 9.76103C22.5546 9.27226 23.5218 9.44877 23.6989 8.79708C23.876 8.1454 25.2791 7.81953 25.9058 8.09106C26.5324 8.3626 27.0501 8.79706 26.478 9.44874C25.9058 10.1004 26.9275 10.8064 27.6495 11.526C28.0786 11.0491 28.5333 10.5959 29.0118 10.1683C29.1738 9.99874 29.2703 9.77751 29.2843 9.54379C28.7764 9.1392 28.351 8.6415 28.031 8.07751Z" fill="#BABABA" stroke="white" stroke-width="0.331796" stroke-miterlimit="10"/>
<path d="M29.2856 25.3371C29.5151 25.4775 29.7791 25.5519 30.0485 25.5519C30.3178 25.5519 30.5818 25.4775 30.8113 25.3371C30.9884 25.1062 31.4925 25.6222 32.2417 26.4504L32.3235 26.5454C32.8843 26.3847 33.4792 26.3847 34.04 26.5454C34.5985 26.8984 34.4623 28.1339 35.2251 28.2017C35.5468 28.2298 35.848 28.3707 36.075 28.5995C36.3021 28.8283 36.4402 29.13 36.4648 29.4508C36.3967 29.8717 37.2958 30.0753 37.2277 30.6999C37.1596 31.3244 39.2439 31.1751 39.5163 30.9714C39.6859 30.8501 39.8838 30.7739 40.0913 30.7502C40.2987 30.7264 40.5087 30.7558 40.7015 30.8356C41.0557 31.0393 41.6688 30.632 42.0638 30.7678C42.4589 30.9035 43.7939 31.4602 43.5215 31.9354C43.249 32.4106 42.2681 33.1844 42.4725 33.6053C42.6768 34.0262 43.3716 34.1348 43.6577 34.5421H43.7667C44.298 34.4335 44.5295 32.4377 44.5295 31.8268C44.5789 30.9108 44.7157 30.0015 44.9382 29.1114C45.2652 27.9574 43.6577 27.1428 43.6577 25.8937C43.6577 24.6446 44.2979 25.337 45.02 24.8211C45.742 24.3052 45.02 24.088 44.6113 24.0065C44.4164 23.9046 44.2603 23.742 44.1668 23.5435C44.0733 23.3449 44.0476 23.1213 44.0936 22.9068C44.2162 22.5266 46.4095 22.6896 47.1042 22.6896C47.8913 22.5993 48.6516 22.3499 49.3384 21.9564C49.396 21.7712 49.3926 21.5726 49.3289 21.3894C49.2652 21.2062 49.1444 21.0481 48.9842 20.9382C48.4393 20.5309 48.6436 19.9335 49.0659 19.4583C49.4882 18.9831 48.8071 18.4943 48.2895 17.9241C47.7718 17.3539 48.1668 15.2087 48.7662 14.2855C49.3656 13.3623 47.5402 13.5388 46.4367 13.6746C45.905 13.7446 45.3643 13.6691 44.8723 13.4563C44.3804 13.2434 43.9558 12.9011 43.6441 12.4662C42.922 11.543 41.9412 12.1268 40.2247 12.1675C38.5082 12.2082 38.8624 10.2803 38.9306 9.53361C38.9987 8.78689 38.0587 8.70543 38.0587 8.17593C38.0587 7.64643 37.5547 7.70077 37.1187 7.7415C36.6828 7.78223 37.1187 7.1984 37.4184 6.81825C37.7181 6.4381 37.7045 6.153 37.7181 5.35197C37.7318 4.55094 38.8897 3.88568 39.4755 3.1118C39.629 2.92128 39.8387 2.78356 40.0749 2.71806C40.1152 2.6169 40.182 2.5283 40.2682 2.46147C40.3544 2.39463 40.457 2.35199 40.5653 2.33791C41.4508 2.16142 41.9276 1.59118 41.0557 1.10242C40.1839 0.613653 39.6934 2.02564 38.7943 2.16141C37.8952 2.29718 37.6909 2.86739 37.0642 3.16608C36.4376 3.46477 35.3069 3.16611 35.2524 3.74991C35.1979 4.33372 34.8573 3.74991 34.326 3.61414C33.7947 3.47837 32.4325 4.67314 32.4733 5.32483C32.5142 5.97652 32.7322 6.61462 31.765 7.22558C30.9737 7.86992 30.3007 8.64628 29.776 9.52006C29.7538 9.55506 29.7249 9.5853 29.6909 9.60906C29.6569 9.63282 29.6186 9.64961 29.578 9.65845C29.5374 9.66729 29.4955 9.66801 29.4547 9.66056C29.4138 9.65312 29.3749 9.63765 29.3401 9.61507C29.3261 9.84879 29.2296 10.0701 29.0676 10.2396C28.5891 10.6672 28.1344 11.1205 27.7053 11.5973C27.9642 11.8281 28.1958 12.0453 28.3456 12.2082C28.9723 12.8735 28.5636 13.403 28.7407 13.756C28.9178 14.109 29.0949 14.6385 28.7407 14.8557C28.3865 15.073 28.7407 17.5032 29.0949 17.9377C29.4491 18.3721 29.0949 18.7795 28.6589 19.662C28.223 20.5444 27.8143 20.9382 27.0242 21.0196C26.2341 21.1011 26.2749 22.2959 26.0025 22.2959C25.73 22.2959 25.6347 22.7439 25.6074 23.124C26.3294 23.7371 27.168 24.1989 28.0732 24.4817C28.4273 24.4274 28.7134 25.0248 29.2856 25.3371Z" fill="#BABABA" stroke="white" stroke-width="0.331796" stroke-miterlimit="10"/>
<path d="M68.5048 62.0877C68.2187 61.2052 67.3332 61.0965 67.3332 60.1462C67.3332 59.1958 66.979 59.1008 65.6849 59.1551C64.3907 59.2094 63.5597 58.9242 63.4916 58.1504C63.4235 57.3765 62.6742 56.7927 63.26 56.5076C63.8458 56.2225 62.8513 55.693 62.9603 54.987C63.0693 54.281 62.6197 53.9823 62.1974 53.6293C61.7751 53.2763 60.0178 53.8058 60.0178 53.1541C60.0178 52.5024 58.9552 52.3938 58.3694 52.3938C57.7836 52.3938 58.1923 51.6335 57.5384 51.6878C56.8845 51.7421 57.0071 51.2805 56.1761 51.4027C55.3451 51.5249 54.8138 51.104 53.8058 50.045C53.0902 48.8842 52.8603 47.49 53.1655 46.1621C53.3426 45.5782 52.0484 46.0535 51.2719 46.0535C50.4134 46.216 49.6058 46.5789 48.9152 47.1124C48.0978 47.5741 47.621 47.574 47.2123 47.9813C46.9968 48.2081 46.7204 48.3683 46.416 48.4429C46.1117 48.5176 45.7923 48.5034 45.4958 48.4022C45.2805 48.3247 45.0562 48.2745 44.8283 48.2529C45.1825 49.1082 46.0271 50.5338 46.1906 51.0361C46.3541 51.5385 45.9045 51.8643 45.6593 52.0951C45.5821 53.04 45.6418 53.9911 45.8364 54.9191C45.9045 55.3943 45.019 56.2768 45.3732 56.5619C45.7274 56.847 44.8964 57.7431 44.8964 58.2726C44.8964 58.8021 45.6593 58.8021 45.6593 59.2094C45.5003 59.842 45.1305 60.4021 44.6103 60.7979C44.3924 60.9201 44.3787 61.2459 44.4332 61.6125C44.5558 61.6125 44.6512 62.1012 45.2506 62.5493C45.85 62.9973 45.128 63.907 45.7274 64.6673C46.3268 65.4276 46.9671 65.4412 46.5448 65.7806C46.1225 66.12 46.6129 66.8396 46.1361 67.1383C45.6593 67.4369 46.3132 68.4959 46.8445 68.781C47.3758 69.0662 47.0216 70.1387 47.5529 70.6139C48.0842 71.0891 47.839 72.3653 48.016 72.7862C48.1931 73.2071 49.787 72.1888 50.7406 71.1977C51.6942 70.2066 51.6261 71.0212 52.5116 71.1298C53.3971 71.2385 54.4051 71.252 54.8138 72.0802C55.2225 72.9084 55.6993 71.252 55.999 70.899C56.2987 70.546 58.2877 71.0212 58.6418 70.899C58.996 70.7768 59.2957 68.2651 59.2413 67.8442C59.1868 67.4234 60.0586 66.4865 60.767 65.9706C61.4754 65.4547 62.5925 65.8484 63.1783 65.5498C63.9227 65.321 64.7054 65.2425 65.4805 65.3189C66.3115 65.3189 66.8428 66.1471 67.3741 66.1471C67.9054 66.1471 68.4367 65.3869 68.3141 64.6809C68.1915 63.9749 68.7909 62.9702 68.5048 62.0877Z" fill="#BABABA" stroke="white" stroke-width="0.331796" stroke-miterlimit="10"/>
<path d="M44.3351 61.6206C44.3351 61.6206 44.3351 61.5527 44.4032 61.5527C44.4032 61.1861 44.4032 60.8603 44.5803 60.7381C45.1005 60.3423 45.4703 59.7823 45.6293 59.1496C45.6293 58.7423 44.8664 58.7423 44.8664 58.2128C44.8664 57.6833 45.6974 56.8551 45.3432 56.5021C44.989 56.1491 45.8745 55.3345 45.8064 54.8593C45.6117 53.9314 45.5521 52.9803 45.6293 52.0353C45.8745 51.8045 46.4058 51.628 46.1606 50.9764C45.9154 50.3247 45.1389 49.0485 44.7983 48.1931C44.1593 48.0865 43.505 48.1142 42.8774 48.2746C42.2235 48.519 42.4007 46.4553 42.4007 45.695C42.4007 44.9347 41.7604 45.342 41.5152 45.8715C41.2699 46.401 40.3436 46.1702 39.4036 46.1702C38.4636 46.1702 38.9268 44.989 38.341 45.0433C37.7553 45.0976 37.2785 44.8668 37.333 44.283C37.3874 43.6992 36.9243 43.224 36.5156 42.5859C36.1069 41.9478 35.6301 41.2282 35.9843 40.8752C36.3385 40.5222 35.7391 40.1149 36.2704 39.5854C36.8017 39.0559 37.333 39.2324 37.1559 38.5264C36.9788 37.8204 37.7553 37.4131 37.8097 36.6528C37.8642 35.8925 38.7497 36.1233 39.5807 35.4716C40.4117 34.82 41.2836 35.173 41.992 34.5892C42.7004 34.0054 43.109 34.5213 43.5995 34.4805C43.3134 34.0732 42.5914 33.8696 42.4143 33.5437C42.2372 33.2179 43.1772 32.3626 43.4632 31.8738C43.7493 31.385 42.3462 30.8419 42.0056 30.7062C41.665 30.5704 41.0384 30.9777 40.6433 30.7741C40.4505 30.6943 40.2404 30.6648 40.033 30.6886C39.8256 30.7124 39.6277 30.7885 39.4581 30.9098C39.1857 31.1135 37.1014 31.2493 37.1695 30.6383C37.2376 30.0273 36.3385 29.8101 36.4066 29.3892C36.382 29.0684 36.2438 28.7667 36.0168 28.5379C35.7897 28.3092 35.4886 28.1682 35.1669 28.1402C34.4041 28.0723 34.5403 26.7825 33.9817 26.4838C33.4209 26.3231 32.8261 26.3231 32.2653 26.4838C32.9328 27.2305 33.1644 27.5428 32.7284 27.8415C32.2925 28.1402 32.7284 28.3981 31.625 29.8644C30.5833 30.9771 29.2058 31.7207 27.7016 31.9824C26.7889 32.2539 26.4211 33.9511 25.9034 35.1458C25.3857 36.3406 24.9907 35.9332 24.5411 35.2408C24.0916 34.5484 23.6147 35.3766 23.0153 34.8199C22.4159 34.2633 22.6884 34.2769 23.0153 33.8153C23.1924 33.5709 23.0153 33.1772 22.6339 32.797C21.9664 32.9328 21.2716 33.8288 20.9855 34.5213C20.6995 35.2137 21.5986 36.7343 21.7348 37.2366C21.871 37.739 21.2035 37.2366 21.1081 37.7661C21.0128 38.2956 22.5658 38.9473 23.2742 39.4768C23.9826 40.0063 24.6365 41.4997 25.2631 42.1921C25.8898 42.8846 25.9715 43.5499 26.6254 45.2334C27.4508 47.2894 28.4871 49.2549 29.7178 51.0986C30.6986 52.3341 31.0801 53.298 30.9166 53.651C30.8375 53.9922 30.8672 54.3496 31.0015 54.6733C31.1358 54.9969 31.368 55.2708 31.6658 55.4567C32.6141 56.3173 33.6667 57.0562 34.7991 57.6562C36.6654 58.593 40.0711 60.3715 40.5479 61.1861C41.2072 61.9533 42.0251 62.5692 42.9456 62.9918C43.0273 62.9918 43.0545 63.1819 43.0545 63.3584C43.1907 63.2422 43.3365 63.1377 43.4905 63.0462C44.1035 62.9104 44.158 61.9057 44.3351 61.6206Z" fill="#BABABA" stroke="white" stroke-width="0.331796" stroke-miterlimit="10"/>
<path d="M39.4081 3.11883C38.8223 3.89271 37.678 4.558 37.6508 5.35904C37.6235 6.16007 37.6508 6.45874 37.3511 6.82531C37.0514 7.19189 36.6154 7.78926 37.0514 7.74853C37.4873 7.7078 37.9913 7.74854 37.9913 8.183C37.9913 8.61746 38.9449 8.75322 38.8632 9.54068C38.7815 10.3281 38.4545 12.256 40.1574 12.1746C41.8602 12.0931 42.8819 11.5501 43.5767 12.4733C43.8884 12.9082 44.313 13.2504 44.8049 13.4633C45.2969 13.6761 45.8377 13.7516 46.3694 13.6816C47.4728 13.5458 49.2983 13.3286 48.6989 14.2926C48.0995 15.2565 47.7044 17.3609 48.2221 17.9311C48.7398 18.5014 49.4073 18.9766 48.9986 19.4653C48.5899 19.9541 48.3719 20.5379 48.9169 20.9452C49.0771 21.0552 49.1978 21.2133 49.2615 21.3965C49.3253 21.5796 49.3286 21.7783 49.2711 21.9635C49.2711 21.9635 49.1621 22.0449 48.9986 22.1264C49.7887 22.9138 50.0748 23.7828 50.5107 24.1358C50.9466 24.4888 51.3008 24.8553 51.7095 24.611C52.1182 24.3666 52.4316 24.1901 52.7857 24.4345C53.1399 24.6788 53.6304 24.1901 54.148 23.7149C54.6657 23.2397 55.2923 23.7149 55.5103 23.0632C55.5666 22.7885 55.7069 22.538 55.9117 22.346C56.1166 22.1539 56.3761 22.0298 56.6546 21.9906C57.3085 21.8685 57.3085 21.1488 56.8862 21.1488C56.4639 21.1488 55.8645 21.6919 55.8645 20.9181C55.8645 20.1442 55.3332 20.3207 55.3332 19.6554C55.3877 19.3578 55.3409 19.0505 55.2003 18.7824C55.0596 18.5143 54.8331 18.3007 54.5567 18.1756C53.8347 17.7547 55.5103 17.5781 55.919 17.9311C56.3277 18.2841 57.5401 17.9311 57.6627 18.5285C57.7853 19.1259 58.4392 19.2481 58.4392 18.5285C58.4392 17.809 59.2157 17.6324 59.8015 17.7546C60.3873 17.8768 61.7223 16.9808 62.2536 16.8043C62.5397 16.7092 62.6351 16.3698 62.7985 16.0847C62.3833 15.519 61.9281 14.9837 61.4363 14.4827C61.0003 14.1297 61.7223 13.9124 61.6406 13.4237C61.5589 12.9349 61.6406 12.5683 62.5806 12.4869C63.5205 12.4054 63.3707 11.6994 62.8666 11.4143C62.3626 11.1292 63.0846 10.3417 63.5751 10.0566C63.8987 9.80866 64.1522 9.48115 64.3107 9.10621C63.374 8.83365 62.3947 8.73699 61.4226 8.82111C60.6734 8.82111 61.9131 7.97933 61.9539 7.19187C61.9948 6.40442 59.8287 6.26865 58.9841 6.09215C58.1395 5.91566 58.3711 5.03317 59.2566 4.99244C60.1421 4.9517 58.7662 4.32719 57.5674 4.50369C56.2266 4.76482 54.932 5.22234 53.7257 5.86137C52.7585 6.39087 51.0693 4.32719 49.9658 4.76165C48.8624 5.19611 47.323 5.20968 47.3638 4.32718C47.3962 4.11652 47.3785 3.90121 47.3119 3.69868C47.2453 3.49616 47.1318 3.31208 46.9806 3.16138C46.8294 3.01068 46.6447 2.8976 46.4415 2.83124C46.2383 2.76488 46.0222 2.74711 45.8109 2.77941C44.7074 2.87444 44.9798 1.67969 44.1352 1.67969C43.2906 1.67969 44.1352 2.69795 43.5631 2.95591C42.9909 3.21387 41.002 3.70266 40.8385 4.50369C40.675 5.30472 41.9011 6.62165 41.4924 7.40911C41.0837 8.19656 39.7759 7.54489 39.3809 6.70313C38.9858 5.86137 40.5252 4.58514 40.2663 4.10995C40.0136 3.7052 39.9168 3.22278 39.9939 2.75227C39.7661 2.81292 39.5619 2.94067 39.4081 3.11883Z" fill="#BABABA" stroke="white" stroke-width="0.331796" stroke-miterlimit="10"/>
<path d="M69.6472 15.3511C69.9333 15.9214 69.293 16.2065 68.7209 16.2743C68.1487 16.3422 68.2849 17.632 67.9307 17.985C67.5765 18.338 69.293 19.2748 69.5791 20.0487C69.9172 20.824 70.3134 21.5729 70.7643 22.2889C71.0804 22.4151 71.4283 22.4388 71.7587 22.3568C72.29 22.0445 71.7588 20.9991 72.5898 21.0941C73.4207 21.1892 74.5106 20.6733 74.8103 21.0941L75.001 21.3385C75.2598 20.9719 75.5187 20.5646 75.6004 20.4153C75.7559 19.5333 75.6809 18.6261 75.3824 17.7814C75.2241 17.392 75.1734 16.9675 75.2357 16.552C75.298 16.1365 75.471 15.7452 75.7366 15.419C75.9237 15.1036 76.0572 14.7595 76.1317 14.4007C75.5089 14.0962 74.8228 13.9427 74.1291 13.9527C73.0802 14.0749 71.9631 14.5637 71.568 13.9527C71.173 13.3418 70.6008 13.464 70.0695 13.9527C70.004 13.9791 69.9307 13.9791 69.8652 13.9527C69.6881 14.5908 69.511 15.0524 69.6472 15.3511Z" fill="#BABABA" stroke="white" stroke-width="0.331796" stroke-miterlimit="10"/>
<path d="M63.5608 10.0598C63.0704 10.3449 62.3484 11.1323 62.8524 11.4175C63.3565 11.7026 63.4927 12.4221 62.5663 12.49C61.64 12.5579 61.5582 12.9245 61.6263 13.4268C61.6944 13.9292 60.9861 14.1328 61.422 14.4858C61.9138 14.9868 62.369 15.5222 62.7843 16.0879C62.8337 15.9458 62.9318 15.8256 63.0614 15.7486C63.191 15.6716 63.3437 15.6427 63.4926 15.667C64.3373 15.7892 63.6698 17.0247 64.3373 17.3369C64.4784 17.4199 64.598 17.5345 64.6866 17.6718C64.7752 17.8091 64.8303 17.9652 64.8475 18.1275C64.8647 18.2898 64.8436 18.4539 64.7857 18.6066C64.7279 18.7593 64.6349 18.8964 64.5144 19.0069C64.2123 19.5672 64.0908 20.2067 64.1664 20.8383C64.242 21.4699 64.5109 22.063 64.9367 22.5369C66.0129 23.7316 66.8439 23.5415 67.0891 23.2429C67.3343 22.9442 68.1653 23.2428 68.4514 22.7677C68.7375 22.2925 68.9827 22.8356 69.4595 22.2925C69.7455 21.9802 70.3177 22.1567 70.8217 22.2925C70.3709 21.5765 69.9747 20.8276 69.6366 20.0523C69.3505 19.2784 67.634 18.3416 67.9882 17.9886C68.3424 17.6356 68.2062 16.3458 68.7783 16.2779C69.3505 16.2101 69.9908 15.9249 69.7047 15.3547C69.5685 15.056 69.7047 14.5944 69.9226 14.0785C69.3777 14.0785 68.5604 12.4357 68.0972 12.4357C67.9467 12.438 67.7976 12.4071 67.6605 12.3453C67.5234 12.2834 67.4017 12.1922 67.3041 12.0781C67.2065 11.9639 67.1354 11.8297 67.0958 11.685C67.0563 11.5403 67.0494 11.3886 67.0755 11.2409C67.2117 10.4942 65.8358 10.4127 65.0865 9.57098C64.8806 9.36234 64.6287 9.20431 64.3509 9.10938C64.1772 9.4907 63.9045 9.81884 63.5608 10.0598Z" fill="#BABABA" stroke="white" stroke-width="0.331796" stroke-miterlimit="10"/>
<path d="M75.3814 17.8553C75.6799 18.7 75.755 19.6072 75.5994 20.4892C75.5177 20.6386 75.2588 21.0459 75 21.4124C75.2212 21.6526 75.5135 21.8164 75.8344 21.8798C76.1553 21.9433 76.4881 21.9032 76.7846 21.7654C77.9153 21.3989 78.4602 22.1184 78.8825 20.8694C79.4548 19.6686 80.2552 18.5897 81.2393 17.6924C80.3947 17.3394 79.1141 15.3164 77.8336 15.0449C77.2592 14.9107 76.6983 14.7244 76.1579 14.4883C76.0834 14.8471 75.9499 15.1911 75.7629 15.5065C75.4952 15.8287 75.3187 16.2163 75.2516 16.6292C75.1846 17.0421 75.2294 17.4654 75.3814 17.8553Z" fill="#BABABA" stroke="white" stroke-width="0.331796" stroke-miterlimit="10"/>
<path d="M68.043 139.815C67.3346 138.458 64.0651 140.956 64.7598 141.309C65.4546 141.662 68.3835 140.453 68.043 139.815ZM64.4056 138.838C63.4384 138.661 61.1089 140.63 62.117 141.132C63.1251 141.635 65.3865 139.014 64.4056 138.824V138.838Z" fill="#BABABA" stroke="white" stroke-width="0.331796" stroke-miterlimit="10"/>
<path d="M32.212 26.4471C31.4627 25.6189 30.9587 25.0894 30.7816 25.3338C30.5521 25.4742 30.288 25.5486 30.0187 25.5486C29.7494 25.5486 29.4853 25.4742 29.2558 25.3338C28.7109 25.0215 28.4248 24.4241 28.0162 24.4241C27.111 24.1413 26.2724 23.6795 25.5504 23.0664C25.5436 23.1568 25.5436 23.2476 25.5504 23.338C25.5504 23.7453 24.9374 24.0032 24.1881 24.0439C23.4389 24.0847 23.5342 24.9264 23.5342 25.4967C23.5342 26.0669 22.9076 26.0805 22.6488 26.6914C22.3899 27.3024 22.7305 27.4382 22.1175 27.7504C21.984 27.7927 21.8626 27.8659 21.763 27.964C21.6635 28.0621 21.5887 28.1824 21.5449 28.3149C21.501 28.4474 21.4893 28.5883 21.5107 28.7262C21.5321 28.8641 21.5859 28.995 21.6679 29.1081C22.0221 29.6376 21.6679 30.1128 21.5453 30.4658C21.4227 30.8188 22.0766 30.9002 22.6896 31.4841C23.3026 32.0679 23.398 31.2533 23.6568 31.7013C23.9157 32.1493 23.4797 32.9368 22.785 32.9368H22.6215C22.9893 33.3169 23.18 33.7107 23.0029 33.955C22.676 34.4167 22.4035 34.4166 23.0029 34.9597C23.6023 35.5028 24.011 34.6882 24.5287 35.3806C25.0464 36.073 25.4414 36.4803 25.891 35.2855C26.3405 34.0908 26.7765 32.3937 27.6892 32.1222C29.1934 31.8605 30.5709 31.1169 31.6126 30.0042C32.716 28.5379 32.1302 28.4564 32.716 27.9812C33.3018 27.506 32.9476 27.2617 32.212 26.4471ZM0.74322 25.8768C-0.128641 27.2345 1.61509 28.4836 1.9829 27.8998C2.35072 27.3159 1.62871 24.5463 0.74322 25.8768Z" fill="#BABABA" stroke="white" stroke-width="0.331796" stroke-miterlimit="10"/>
<path d="M108.173 146.733C108.337 147.507 109.113 147.167 109.89 147.846C110.666 148.525 111.361 149.828 112.138 148.62C112.914 147.412 108.078 146.298 108.173 146.733Z" fill="#BABABA" stroke="white" stroke-width="0.331796" stroke-miterlimit="10"/>
<path d="M60.2919 5.86832C60.0195 5.62393 60.687 5.13516 60.2919 4.93151C59.8969 4.72786 61.3 4.14403 61.7632 4.52418C62.2264 4.90433 62.2672 5.51531 61.8586 5.69181C61.4499 5.86831 60.5235 6.08555 60.2919 5.86832Z" fill="#BABABA" stroke="white" stroke-width="0.331796" stroke-miterlimit="10"/>
</svg>
