<svg width="162" height="152" viewBox="0 0 162 152" fill="none" xmlns="http://www.w3.org/2000/svg">
<path d="M168.204 76.2651C168.935 75.701 167.838 72.7681 167.192 73.2475C166.545 73.727 166.573 68.6505 167.023 66.3661C167.473 64.0818 167.192 64.3638 166.011 65.5482C164.83 66.7327 163.565 63.2638 163.2 62.3331C162.834 61.4025 161.541 58.8643 159.995 59.231C158.449 59.5976 159.461 57.0311 157.999 57.3131C156.537 57.5952 156.256 55.198 156.537 52.9982C156.818 50.7984 155.525 52.547 154.907 51.6445C154.288 50.7421 153.529 51.4471 152.517 51.8137C151.505 52.1804 151.252 49.896 151.533 48.9935C151.814 48.091 151.336 46.9629 149.959 45.9476C149.446 45.6512 149.039 45.1999 148.797 44.6581C148.555 44.1162 148.489 43.5115 148.61 42.93C148.61 41.7455 140.851 37.7126 139.108 37.2896C137.365 36.8665 138.827 35.0898 138.096 34.4693C137.279 32.9207 136.936 31.1643 137.112 29.4211C137.112 27.4187 134.554 26.77 134.638 25.1343C134.722 23.4985 133.907 21.9193 134.104 20.0861C134.301 18.253 131.461 17.8017 131.293 16.8146C131.124 15.8276 129.662 16.8146 128.116 16.8146C126.57 16.8146 126.654 14.7841 126.823 12.6971C127.045 10.3335 126.362 7.97359 124.911 6.09771C123.646 5.08243 123.534 1.61355 122.915 1.0777C122.297 0.541858 120.104 2.91087 120.273 4.09537C120.348 4.68597 120.297 5.28597 120.123 5.85509C119.948 6.42421 119.654 6.94933 119.261 7.39508C118.445 8.12834 119.795 10.9486 118.698 11.9638C117.602 12.9791 118.698 16.9838 118.361 19.2682C118.403 21.4443 117.962 23.6024 117.068 25.5855C115.972 27.1367 115.803 29.6185 113.61 30.4363C111.417 31.2542 108.494 29.5339 108.578 28.3494C108.662 27.1649 106.217 26.4316 104.924 26.6009C103.63 26.7701 102.927 24.9651 100.932 23.3857C98.9356 21.8064 97.3613 23.7524 96.7147 21.9475C96.0682 20.1425 95.4497 19.8323 93.9035 18.817C92.3574 17.8017 92.8915 17.8299 94.269 16.8146C95.6465 15.7994 95.3654 14.5303 94.6345 13.3176C93.9036 12.1049 95.4497 12.415 97.277 11.3998C99.1043 10.3845 97.277 9.19998 98.6545 8.57953C100.032 7.95908 99.1887 6.83101 97.7269 6.57719C96.2651 6.32337 96.7428 8.04367 96.1806 8.21289C95.6184 8.3821 95.0843 5.9285 94.6345 6.01311C94.1847 6.09771 92.4418 8.49497 91.5422 7.31048C90.6426 6.12598 85.4982 5.11068 83.5022 4.82866C81.5063 4.54664 80.8596 2.00844 79.6789 2.45967C78.4982 2.91091 79.8477 3.72878 81.2252 5.27991C82.6026 6.83103 76.6709 7.76169 74.9279 7.19764C73.185 6.6336 75.2091 8.49499 73.7473 8.38218C72.2854 8.26937 72.0043 10.8639 70.9361 12.133C69.8678 13.4022 70.5706 14.3329 69.3055 15.1507C68.0405 15.9686 67.928 16.8992 69.4742 18.6478C71.0203 20.3963 68.7433 20.4809 67.3658 19.099C65.9883 17.7171 64.5547 17.7171 64.7234 19.2682C64.8921 20.8194 63.0928 20.1143 63.3739 18.3657C63.655 16.6172 61.4623 17.4633 61.0969 16.448C60.756 15.7768 60.2631 15.1951 59.6578 14.7494C59.0525 14.3037 58.3515 14.0065 57.611 13.8816C56.4303 13.8816 56.4302 15.2635 55.2495 15.2635C54.0688 15.2635 53.7878 15.884 53.9565 17.1813C54.1251 18.4786 52.1573 17.1813 50.7798 17.1813C49.4023 17.1813 50.7798 18.9298 50.0489 19.0144C49.318 19.099 49.318 20.3963 48.1373 20.3963C46.9566 20.3963 47.1253 23.0474 47.3221 24.4011C47.5189 25.7548 45.4948 23.7806 44.2859 24.1473C43.0771 24.5139 44.567 25.6983 44.9325 27.2495C45.2979 28.8006 44.2859 28.716 43.6674 29.3646C43.0489 30.0133 42.0089 27.6161 42.0089 26.2342C42.0089 24.8523 40.4627 26.2342 38.8322 27.8981C37.2017 29.5621 39.3663 32.2695 38.6354 32.7489C36.4886 34.5135 34.5035 36.4673 32.7038 38.5868C30.7922 40.8712 26.6878 39.5175 25.4227 40.6174C24.1577 41.7173 22.7803 40.8712 21.4871 41.8865C20.194 42.9017 17.8325 44.7068 17.5795 43.6351C17.3265 42.5634 14.0093 43.353 12.6318 44.8195C11.2896 46.2936 9.50185 47.2845 7.54352 47.6398C5.96925 47.6398 5.96917 50.0934 5.3507 50.6574C4.73224 51.2215 4.90099 48.7397 4.90099 48.091C4.90099 47.4424 3.43916 49.1909 2.79258 51.1087C2.14601 53.0264 4.33874 53.7597 2.96125 55.7903C1.58376 57.8208 0.318721 59.795 2.25845 62.3614C4.19818 64.9278 5.2384 66.5636 4.61993 67.8609C4.00147 69.1582 2.59586 65.2944 2.14606 65.7457C1.69627 66.1969 3.88896 67.8609 3.32672 68.5659C2.76448 69.271 0.824751 65.4637 0.515519 66.3661C0.206287 67.2686 4.61984 73.4167 4.70418 75.7011C4.78852 77.9855 8.35869 80.1852 8.1619 83.4849C8.62252 86.8699 9.87494 90.0977 11.8166 92.9044C12.3507 93.7223 10.5234 95.9221 10.8889 98.4039C11.2543 100.886 10.0735 101.788 8.52737 101.788C6.98121 101.788 7.88084 104.355 9.62378 104.608C11.3667 104.862 10.7202 105.99 12.6318 107.288C14.5434 108.585 19.0975 108.106 20.6718 108.106C22.2461 108.106 22.6678 105.708 24.7762 105.624C26.8846 105.539 26.6878 104.89 27.5874 103.621C28.487 102.352 33.2098 102.691 38.1575 102.973C43.1053 103.255 45.1012 101.788 45.8321 99.7577C46.563 97.7271 49.9364 97.9245 51.2858 96.6554C52.6352 95.3863 53.844 95.2735 57.4142 95.4709C60.6069 95.2653 63.7158 94.3604 66.5225 92.8198C69.3912 92.2649 72.2929 91.8976 75.2091 91.72C77.3738 91.156 77.7391 94.5402 80.213 94.1736C82.6869 93.807 83.7833 94.9069 85.0483 94.8223C86.3134 94.7377 86.1446 95.7529 87.4097 96.0067C88.6747 96.2605 88.5061 97.3886 87.6909 98.5731C86.8756 99.7576 89.6025 99.673 91.3454 102.07C93.0884 104.467 91.3454 104.891 92.3574 106.639C93.3694 108.388 93.9036 107.993 95.7309 105.455C97.5582 102.916 99.5542 104.524 99.8353 102.324C100.116 100.124 102.028 97.5861 103.293 98.6577C104.558 99.7294 102.393 100.322 101.55 104.524C100.707 108.726 99.2729 106.554 99.0199 107.739C98.7669 108.923 102.843 109.572 102.843 107.372C102.843 105.172 103.574 104.157 105.12 106.188C106.667 108.218 104.221 109.826 104.586 110.757C104.952 111.687 106.667 110.475 107.594 110.559C109.197 110.728 111.417 114.31 111.052 116.2C110.687 118.089 110.124 119.951 113.245 121.502C116.365 123.053 115.156 123.335 117.433 123.335C120.379 123.614 123.219 124.58 125.726 126.155C127.019 127.227 130.309 125.309 130.927 123.109C131.546 120.909 133.935 123.109 132.67 123.758C131.405 124.406 133.317 126.24 133.401 125.055C133.485 123.871 134.047 122.855 134.497 124.209C134.947 125.563 136.606 125.591 137.308 126.691C138.011 127.791 138.686 128.609 138.686 127.706C138.686 126.804 139.051 125.958 140.513 125.394C141.966 124.683 143.288 123.729 144.421 122.573C145.995 121.276 152.377 121.022 152.995 121.022C153.613 121.022 154.007 115.523 154.372 112.561C154.738 109.6 157.184 109.29 157.465 106.272C158.15 102.985 159.659 99.9275 161.85 97.3887C162.494 97.2163 163.073 96.8564 163.513 96.3545C163.953 95.8526 164.236 95.2311 164.324 94.5685C164.324 92.8481 166.517 90.9022 166.517 88.928C166.517 86.9538 167.698 84.331 167.501 83.7105C167.262 83.0869 167.179 82.4145 167.257 81.7512C167.335 81.0879 167.573 80.4536 167.951 79.9032C169.384 78.5495 167.473 76.8009 168.204 76.2651ZM76.8115 4.60299C76.6148 3.5031 70.1208 4.77224 71.4983 5.87213C72.3698 6.57719 76.9802 5.70288 76.8115 4.60299ZM97.3333 112.956C98.3172 113.859 101.691 113.605 102.253 112.308C102.815 111.01 96.4337 112.138 97.3333 112.956ZM138.545 138.338C136.1 138.62 132.389 136.082 131.546 136.336C130.702 136.59 134.722 142.907 133.457 144.571C132.192 146.235 137.196 150.691 138.911 150.973C140.626 151.255 140.007 149.225 141.216 149.337C142.425 149.45 141.947 148.125 142.116 147.222C142.284 146.32 143.493 148.237 144.477 147.673C145.461 147.109 144.224 143.189 145.686 143.189C147.148 143.189 145.939 138.423 145.489 136.872C145.039 135.321 141.019 138.113 138.545 138.395V138.338Z" fill="#BABABA" stroke="white" stroke-width="0.817867" stroke-miterlimit="10"/>
</svg>
