<svg width="32" height="31" viewBox="0 0 32 31" fill="none" xmlns="http://www.w3.org/2000/svg">
<path d="M7.65557 25.2134C6.86765 25.2134 6.13141 24.9422 5.60182 24.4384C4.93016 23.8055 4.60724 22.8497 4.72349 21.8163L5.20141 17.6313C5.29182 16.8434 5.76974 15.7972 6.32516 15.2288L16.9297 4.00425C19.5777 1.20133 22.3418 1.12383 25.1447 3.77175C27.9477 6.41967 28.0252 9.18383 25.3772 11.9867L14.7727 23.2113C14.2302 23.7926 13.2227 24.3351 12.4347 24.4643L8.27557 25.1747C8.05599 25.1876 7.86224 25.2134 7.65557 25.2134ZM21.076 3.75883C20.0814 3.75883 19.216 4.37883 18.3377 5.30883L7.73307 16.5463C7.47474 16.8176 7.17766 17.4634 7.12599 17.838L6.64807 22.023C6.59641 22.4492 6.69974 22.798 6.93224 23.0176C7.16474 23.2372 7.51349 23.3147 7.93974 23.2501L12.0989 22.5397C12.4735 22.4751 13.0935 22.1393 13.3518 21.868L23.9564 10.6434C25.5581 8.93842 26.1393 7.36258 23.8014 5.16675C22.7681 4.17217 21.8768 3.75883 21.076 3.75883Z" fill="#1DB559"/>
<path d="M22.8982 14.144C22.8724 14.144 22.8336 14.144 22.8078 14.144C18.7778 13.7436 15.5357 10.6823 14.9157 6.67817C14.8382 6.14859 15.1999 5.65775 15.7295 5.56734C16.2591 5.48984 16.7499 5.8515 16.8403 6.38109C17.3311 9.50692 19.8628 11.9094 23.0145 12.2194C23.5441 12.2711 23.9316 12.749 23.8799 13.2786C23.8153 13.7694 23.3891 14.144 22.8982 14.144Z" fill="#1DB559"/>
<path d="M27.625 29.3853H4.375C3.84542 29.3853 3.40625 28.9461 3.40625 28.4165C3.40625 27.8869 3.84542 27.4478 4.375 27.4478H27.625C28.1546 27.4478 28.5938 27.8869 28.5938 28.4165C28.5938 28.9461 28.1546 29.3853 27.625 29.3853Z" fill="#1DB559"/>
</svg>
