<svg width="53" height="52" viewBox="0 0 53 52" fill="none" xmlns="http://www.w3.org/2000/svg">
<path d="M32.9997 49.2916H19.9997C8.23467 49.2916 3.20801 44.2649 3.20801 32.4999V19.4999C3.20801 7.73492 8.23467 2.70825 19.9997 2.70825H32.9997C44.7647 2.70825 49.7913 7.73492 49.7913 19.4999V32.4999C49.7913 44.2649 44.7647 49.2916 32.9997 49.2916ZM19.9997 5.95825C10.0113 5.95825 6.45801 9.51158 6.45801 19.4999V32.4999C6.45801 42.4883 10.0113 46.0416 19.9997 46.0416H32.9997C42.988 46.0416 46.5413 42.4883 46.5413 32.4999V19.4999C46.5413 9.51158 42.988 5.95825 32.9997 5.95825H19.9997Z" fill="#292D32"/>
<path d="M20.0003 23.2917C16.707 23.2917 14.042 20.6267 14.042 17.3333C14.042 14.04 16.707 11.375 20.0003 11.375C23.2937 11.375 25.9587 14.04 25.9587 17.3333C25.9587 20.6267 23.2937 23.2917 20.0003 23.2917ZM20.0003 14.625C18.5053 14.625 17.292 15.8383 17.292 17.3333C17.292 18.8283 18.5053 20.0417 20.0003 20.0417C21.4953 20.0417 22.7087 18.8283 22.7087 17.3333C22.7087 15.8383 21.4953 14.625 20.0003 14.625Z" fill="#292D32"/>
<path d="M6.28434 42.6834C5.76434 42.6834 5.24434 42.4234 4.94101 41.9684C4.44268 41.2317 4.63768 40.2134 5.39601 39.715L16.0777 32.5434C18.4177 30.9617 21.646 31.1567 23.7693 32.955L24.4843 33.5834C25.5677 34.515 27.4093 34.515 28.471 33.5834L37.4843 25.8484C39.781 23.8767 43.3993 23.8767 45.7177 25.8484L49.2493 28.8817C49.921 29.4667 50.0077 30.485 49.4227 31.1784C48.8377 31.85 47.8193 31.9367 47.126 31.3517L43.5943 28.3184C42.511 27.3867 40.6693 27.3867 39.586 28.3184L30.5727 36.0534C28.276 38.025 24.6577 38.025 22.3393 36.0534L21.6243 35.425C20.6277 34.58 18.981 34.4934 17.876 35.2517L7.19434 42.4234C6.91268 42.5967 6.58768 42.6834 6.28434 42.6834Z" fill="#292D32"/>
</svg>
