<svg width="167" height="152" viewBox="0 0 167 152" fill="none" xmlns="http://www.w3.org/2000/svg">
<path d="M115.687 142.948C115.434 142.616 114.801 143.006 114.13 142.548C113.934 142.426 113.725 142.325 113.508 142.246C113.15 142.488 112.824 142.773 112.535 143.094C113.387 143.588 114.324 143.919 115.297 144.068C115.47 144.066 115.634 143.996 115.755 143.873C115.807 143.564 115.783 143.246 115.687 142.948Z" fill="#BABABA" stroke="white" stroke-width="0.23663" stroke-miterlimit="10"/>
<path d="M117.175 143.897C117.233 143.77 116.805 143.069 117.632 143.01C118.459 142.952 119.062 142.854 119.188 142.338C119.315 141.821 120.287 142.065 120.56 142.036C120.832 142.006 121.532 141.344 122.223 141.363C122.223 140.671 121.25 140.896 120.637 140.243C120.025 139.59 118.43 139.863 117.613 140.184C116.795 140.506 115.842 139.833 114.957 140.34C114.73 140.633 114.472 140.901 114.189 141.139C113.595 141.626 113.761 142.114 113.537 142.24C113.754 142.319 113.963 142.421 114.16 142.542C114.831 143 115.463 142.611 115.716 142.942C115.79 143.246 115.79 143.564 115.716 143.868C115.742 143.837 115.775 143.812 115.812 143.795C115.849 143.778 115.889 143.769 115.93 143.769C115.97 143.769 116.011 143.778 116.048 143.795C116.085 143.812 116.117 143.837 116.144 143.868C116.329 144.024 116.29 144.218 116.27 144.404L116.795 144.287C116.938 144.174 117.066 144.043 117.175 143.897Z" fill="#BABABA" stroke="white" stroke-width="0.23663" stroke-miterlimit="10"/>
<path d="M110.017 139.865C110.173 139.865 111.748 140.05 111.904 139.66C112.06 139.27 110.717 138.374 110.873 138.286C111.029 138.198 111.087 137.214 111.33 137.214C111.573 137.214 113.791 137.273 113.917 137.214C114.044 137.156 114.462 136.357 114.832 136.327C114.997 136.327 115.26 136.522 115.493 136.746C115.897 136.176 116.118 135.496 116.125 134.797C116.223 133.94 115.94 133.657 116.378 133.19C116.816 132.722 117.292 132.683 117.166 132.011C117.04 131.338 116.446 132.011 115.94 131.699C115.435 131.387 114.968 131.601 113.694 131.796C112.419 131.991 111.807 132.517 111.865 133.433C111.923 134.349 111.427 133.94 111.457 134.739C111.486 135.538 110.484 135.558 110.484 136.035C110.484 136.512 109.667 136.035 109.414 135.869C108.281 136.023 107.162 136.268 106.068 136.6C105.689 136.659 104.998 135.811 104.463 135.84C103.928 135.869 103.705 135.051 103.636 134.388C103.568 133.726 102.567 133.121 102.129 132.517C101.729 131.648 101.542 130.696 101.584 129.74C101.471 128.393 101.633 127.037 102.061 125.755C102.13 125.563 102.173 125.363 102.187 125.16C102.015 125.03 101.809 124.952 101.594 124.936C101.059 124.936 99.8431 124.225 99.6486 124.225C99.454 124.225 99.4443 123.65 99.2401 123.348C99.0358 123.046 99.172 122.471 98.8996 122.266C98.2761 121.758 97.8105 121.082 97.5574 120.317C97.285 119.343 95.6121 118.894 95.0285 118.865C94.4449 118.836 94.0558 120.112 93.91 120.181C93.3308 119.957 92.7766 119.672 92.2564 119.333C92.0939 119.244 91.96 119.111 91.8704 118.949C91.7808 118.786 91.7392 118.602 91.7507 118.417C91.7507 118.017 91.0504 117.374 90.8461 117.306C90.2766 116.854 89.7343 116.37 89.2218 115.854H87.0041L86.5275 116.458H82.4813C82.4813 116.458 79.3786 115.308 78.8047 115.172C78.2412 114.961 77.708 114.676 77.2193 114.324L73.9512 114.763C74.1513 115.185 74.4029 115.581 74.7001 115.942C75.2923 116.776 75.7032 117.725 75.9062 118.729C75.9646 119.235 76.8788 119.645 77.6667 120.151C77.9545 120.378 78.1728 120.68 78.2967 121.025C78.4205 121.37 78.4449 121.742 78.367 122.1C78.2697 122.383 77.2874 121.905 77.229 122.188C77.1706 122.471 78.4934 123.582 78.9992 123.523C79.505 123.465 79.7482 123.776 80.5457 124.497C81.3433 125.219 81.2655 126.018 80.9542 126.271C80.643 126.524 81.5865 127.06 82.598 127.723C83.2931 128.145 83.8246 128.791 84.1056 129.555C84.2029 129.906 84.6406 129.555 84.8059 129.116C84.9713 128.678 84.485 128.512 84.485 127.976C84.485 127.44 83.6679 127.538 83.2886 127.47C82.9093 127.401 83.2886 126.583 82.9385 126.203C82.5009 125.599 82.1899 124.913 82.0242 124.186C81.8394 123.484 80.857 122.792 80.4485 122.032C80.173 121.447 79.7865 120.92 79.3105 120.483C79.0284 120.288 79.719 120.005 79.4661 119.723C79.2132 119.44 78.8339 119.469 78.367 119.245C78.1401 119.163 77.9435 119.013 77.8029 118.817C77.6623 118.62 77.5843 118.386 77.5792 118.144C77.5043 117.42 77.3444 116.707 77.1026 116.02C76.9469 115.61 77.4527 115.679 77.6083 115.864C77.764 116.049 77.8904 116.244 78.1141 116.117C78.1849 116.087 78.2609 116.072 78.3377 116.072C78.4146 116.072 78.4906 116.087 78.5613 116.117C78.6321 116.147 78.6961 116.191 78.7496 116.246C78.8031 116.302 78.845 116.367 78.8728 116.439C79.0284 116.78 79.5634 116.439 79.8454 116.624C80.1275 116.809 79.2813 116.975 80.0983 118.427C80.9153 119.879 80.3512 119.06 80.3512 120.044C80.3512 121.028 80.857 120.58 81.0126 120.415C81.1682 120.249 81.6156 120.736 81.9853 121.243C82.3549 121.75 83.1816 121.779 83.1816 122.061C83.173 122.279 83.2372 122.493 83.3642 122.67C83.4911 122.846 83.6733 122.975 83.8819 123.036C84.4169 123.124 84.5044 123.728 84.8546 123.786C85.2047 123.845 85.2631 124.234 85.0783 124.644C84.8935 125.053 85.0783 125.404 85.9634 125.755C86.8485 126.105 86.4303 126.164 87.1306 126.826C88.2122 127.911 89.2349 129.053 90.1944 130.247C90.5004 130.722 90.7332 131.241 90.885 131.786C91.0406 132.235 90.5738 132.459 90.8267 132.839C91.0795 133.219 90.35 133.053 90.3792 133.345C90.4084 133.638 90.8266 135.051 91.5172 135.109C92.2078 135.168 92.9957 136.025 93.5695 136.503C94.1434 136.98 94.9896 136.883 95.8455 137.195C96.7429 137.738 97.6792 138.213 98.6467 138.617C99.7787 138.931 100.862 139.4 101.866 140.011C102.654 140.517 103.636 140.293 104.784 139.855C105.217 139.728 105.673 139.697 106.119 139.762C106.566 139.828 106.993 139.989 107.371 140.235C107.925 140.57 108.437 140.969 108.898 141.424C109.236 140.88 109.61 140.359 110.017 139.865Z" fill="#BABABA" stroke="white" stroke-width="0.23663" stroke-miterlimit="10"/>
<path d="M114.16 141.144C114.444 140.905 114.701 140.637 114.929 140.345C114.433 140.618 114.277 140.345 114.355 140.013L113.645 140.111L113.713 137.188C113.139 137.188 111.534 137.188 111.33 137.188C111.126 137.188 111.019 138.162 110.873 138.259C110.727 138.357 112.059 139.234 111.904 139.633C111.748 140.033 110.172 139.809 110.017 139.838C109.594 140.324 109.204 140.839 108.85 141.378C109.482 141.943 110.114 142.527 110.416 142.722C111.009 143.093 111.991 142.722 112.361 143.063H112.409C112.698 142.742 113.025 142.458 113.382 142.216C113.761 142.186 113.518 141.66 114.16 141.144Z" fill="#BABABA" stroke="white" stroke-width="0.23663" stroke-miterlimit="10"/>
<path d="M113.915 137.207C113.847 137.217 113.778 137.217 113.711 137.207L113.643 140.131L114.353 140.033C114.413 139.748 114.571 139.493 114.8 139.312C115.364 138.864 114.518 137.1 115.179 136.935C115.298 136.902 115.405 136.838 115.491 136.749C115.257 136.525 114.995 136.33 114.829 136.34C114.46 136.35 114.032 137.149 113.915 137.207Z" fill="#BABABA" stroke="white" stroke-width="0.23663" stroke-miterlimit="10"/>
<path d="M136.511 133.969C135.889 134.418 137.484 135.363 137.484 135.918C137.484 136.474 134.945 135.811 134.702 136.425C134.576 136.747 135.587 137.185 136.531 136.873C136.854 136.775 137.195 136.746 137.531 136.79C137.866 136.834 138.188 136.949 138.476 137.127C138.544 136.152 138.651 135.09 138.748 134.359C137.97 134.116 136.978 133.599 136.511 133.969Z" fill="#BABABA" stroke="white" stroke-width="0.23663" stroke-miterlimit="10"/>
<path d="M140.36 136.505C141.498 136.125 143.326 136.827 143.326 135.94C143.326 135.053 140.301 134.108 139.543 134.361C139.284 134.416 139.015 134.399 138.765 134.312C138.667 135.043 138.56 136.125 138.492 137.08L138.599 137.138C139.105 137.392 139.231 136.885 140.36 136.505Z" fill="#BABABA" stroke="white" stroke-width="0.23663" stroke-miterlimit="10"/>
<path d="M119.446 147.259C119.758 147.415 120.536 147.259 120.857 147.493C121.072 147.605 121.322 147.633 121.557 147.571C121.47 147.434 121.392 147.327 121.363 147.268C121.139 146.849 121.518 146.031 121.703 145.427C121.888 144.823 121.547 143.371 121.898 143C122.248 142.63 122.053 142.396 122.209 141.509C122.213 141.461 122.213 141.412 122.209 141.363C121.499 141.363 120.769 142.006 120.546 142.036C120.322 142.065 119.291 141.821 119.174 142.338C119.057 142.854 118.445 142.952 117.618 143.01C116.791 143.069 117.219 143.77 117.161 143.897C117.037 144.049 116.893 144.184 116.733 144.296L116.208 144.413C116.173 144.516 116.176 144.628 116.217 144.728C116.258 144.829 116.334 144.911 116.431 144.959C116.927 145.242 117.628 146.352 118.163 146.635C118.278 146.694 118.38 146.775 118.463 146.874C118.547 146.972 118.61 147.087 118.649 147.21C118.915 147.166 119.188 147.182 119.446 147.259Z" fill="#BABABA" stroke="white" stroke-width="0.23663" stroke-miterlimit="10"/>
<path d="M122.749 150.231C122.704 149.912 122.784 149.587 122.973 149.325C122.467 148.77 121.996 148.184 121.562 147.571C121.328 147.634 121.078 147.606 120.862 147.493C120.541 147.259 119.763 147.415 119.452 147.259C119.196 147.185 118.927 147.168 118.664 147.211C118.707 147.304 118.72 147.409 118.7 147.51C118.681 147.612 118.631 147.704 118.557 147.776C118.474 147.873 118.417 147.99 118.391 148.116C118.365 148.242 118.371 148.372 118.409 148.494C118.447 148.617 118.515 148.728 118.607 148.817C118.699 148.906 118.813 148.97 118.936 149.004C119.627 149.286 119.413 148.848 119.753 148.848C120.094 148.848 120.074 149.384 120.386 149.384C120.697 149.384 121.426 149.764 121.358 150.27C121.29 150.777 121.611 151.001 122.175 151.001H122.525C122.662 150.68 122.807 150.407 122.749 150.231Z" fill="#BABABA" stroke="white" stroke-width="0.23663" stroke-miterlimit="10"/>
<path d="M132.287 132.144C131.314 132.144 128.241 130 125.401 129.367C122.56 128.733 120.08 130.78 120.353 131.14C120.625 131.501 122.123 130.507 122.813 130C123.504 129.494 124.136 130.254 124.204 130.565C124.272 130.877 125.177 131.072 126.607 131.14C128.036 131.209 128.241 132.397 129.632 132.719C131.023 133.041 129.632 133.606 130.322 133.859C131.013 134.112 134.68 134.044 134.933 133.732C135.185 133.421 133.23 132.144 132.287 132.144Z" fill="#BABABA" stroke="white" stroke-width="0.23663" stroke-miterlimit="10"/>
<path d="M129.07 136.514C129.322 136.962 131.715 137.595 131.988 137.02C132.26 136.445 128.749 135.968 129.07 136.514Z" fill="#BABABA" stroke="white" stroke-width="0.23663" stroke-miterlimit="10"/>
<path d="M145.292 136.629C145.857 137.515 147.481 136.989 147.627 136.629C147.88 135.995 144.719 135.742 145.292 136.629Z" fill="#BABABA" stroke="white" stroke-width="0.23663" stroke-miterlimit="10"/>
<path d="M64.4873 86.393C64.0787 85.9448 63.0088 86.0422 62.8435 85.6329C62.6781 85.2237 61.7055 83.684 61.1705 83.762C60.5218 83.8678 59.8573 83.7214 59.3128 83.3527C58.6805 82.8752 58.272 82.846 57.8246 83.1286C57.3772 83.4112 58.3012 83.4794 58.272 83.801C58.2428 84.1225 58.5541 84.2979 58.9334 84.2395C59.3128 84.181 59.5365 84.9703 59.9061 84.9995C60.2757 85.0288 60.4118 85.6329 60.8787 85.6329C61.3456 85.6329 61.4137 86.1397 61.6374 86.4222C61.8611 86.7048 62.3572 86.4222 62.3572 86.7341C62.3572 87.0459 62.8629 87.2213 62.9894 87.5428C63.7349 87.6844 64.5004 87.6844 65.2459 87.5428C65.2445 87.3356 65.2947 87.1314 65.3918 86.9484C65.5961 86.5489 64.8958 86.8315 64.4873 86.393ZM63.4173 36.1406C64.5553 36.3939 64.6721 38.4208 65.4307 38.4208C65.9365 38.4208 65.5572 37.7874 66.4034 37.7874C67.2496 37.7874 67.0356 37.3391 67.7943 37.4074C68.5529 37.4756 69.1754 37.2125 69.1754 36.3355C69.1754 35.4584 69.7493 35.1271 70.5079 34.942C71.2666 34.7568 70.5663 33.8019 71.6362 33.5485C73.2148 33.0737 74.7402 32.4369 76.1882 31.6483C76.694 31.2683 75.556 30.7616 74.418 30.0697C73.28 29.3779 72.3949 29.183 71.5001 29.7579C70.6052 30.3328 71.3153 29.1245 70.6247 29.4363C69.9341 29.7482 68.0277 28.9296 67.7845 28.6178C67.5414 28.306 64.1176 29.3097 63.3006 29.3097C62.4836 29.3097 63.359 30.1964 63.9328 30.6349C64.5067 31.0734 62.542 32.4766 62.9602 32.7885C63.3784 33.1003 62.5809 33.9286 61.6957 34.942C60.8106 35.9554 62.2793 35.8872 63.4173 36.1406ZM94.9798 41.3246C95.3591 40.8861 96.9251 42.2114 97.0029 41.2662C97.0807 40.321 95.2327 39.8727 94.474 39.3173C93.7154 38.7618 93.4041 39.0639 92.198 38.1772C90.992 37.2904 92.519 36.8519 91.6339 36.1601C90.7488 35.4682 90.4375 33.5583 91.06 32.9346C91.6825 32.311 92.3926 31.3463 91.2546 30.9078C90.1166 30.4693 88.3366 31.2878 88.4728 31.5412C88.609 31.7945 90.243 32.6813 90.243 33.0613C90.243 33.4413 88.7938 31.9797 88.2977 32.3012C87.8017 32.6228 87.2278 31.6678 86.7804 32.3012C86.333 32.9346 87.3542 35.1466 87.753 35.78C88.1518 36.4134 87.3834 36.4134 86.8776 36.5401C86.3719 36.6668 86.3038 34.7666 85.798 34.065C85.2922 33.3634 83.2788 32.5546 83.1524 33.0905C83.0259 33.6265 84.4071 33.5875 84.2223 34.2891C84.0375 34.9907 83.2497 33.8409 82.5785 34.4158C81.9074 34.9907 82.0144 34.6009 82.1408 34.0357C82.2673 33.4706 81.1682 32.8372 79.8648 32.9639C78.5615 33.0905 79.3007 33.9383 78.8922 34.2891C78.4837 34.6399 76.6162 34.0942 77.8126 33.8409C79.0089 33.5875 78.5129 32.8664 78.0654 32.2038C77.618 31.5412 76.4314 32.3305 74.4666 33.0223C72.5019 33.7142 71.6265 34.4743 71.8794 34.5425C72.1323 34.6107 72.2004 34.9225 71.4417 35.5169C70.683 36.1113 71.4417 36.7155 72.1323 36.7155C72.8229 36.7155 72.2198 37.2709 72.7061 37.4074C73.1925 37.5438 75.4198 36.5303 76.0521 36.9689C76.6843 37.4074 72.3268 37.6607 72.3268 38.4208C72.3268 39.1808 74.7195 39.6291 76.4897 39.3075C78.26 38.986 81.353 39.5609 81.353 40.0091C81.353 40.4574 79.2715 40.321 77.6958 40.2528C76.1201 40.1845 73.3967 40.701 73.5232 41.2272C73.6496 41.7534 73.8441 41.7924 75.4685 42.5525C77.0928 43.3125 78.8144 42.1724 78.756 43.2541C78.6977 44.3357 79.6411 44.5793 81.849 44.6378C84.057 44.6962 85.0685 43.6633 86.1384 43.6633C86.5344 43.7513 86.9478 43.7132 87.321 43.5542C87.6942 43.3952 88.0085 43.1233 88.2199 42.7766C88.7257 42.0165 89.1926 42.4648 89.2995 42.8448C89.4065 43.2248 90.8169 43.1566 91.1281 43.4684C91.9354 44.2772 94.6005 44.0434 95.612 43.5366C96.6236 43.0299 95.1646 41.5877 94.6394 42.2699C94.1142 42.952 93.6667 42.5232 93.5695 42.2114C93.4722 41.8996 94.6005 41.7729 94.9798 41.3246ZM70.9943 25.7334C72.1225 25.8601 73.2605 24.8467 73.2022 24.2717C73.1438 23.6968 70.4204 25.7042 70.9943 25.8016V25.7334ZM65.7128 23.9989C66.1505 24.184 65.7128 25.0708 66.2186 24.8174C66.7243 24.5641 66.8508 24.5056 67.1912 24.6323C67.8721 24.8564 68.0082 24.2523 68.3195 23.9307C68.6307 23.6091 68.514 25.0708 69.2921 25.0708C70.0703 25.0708 69.866 23.5604 70.4982 23.9989C71.1304 24.4374 71.3153 23.804 71.4709 23.3655C71.6265 22.927 71.5973 22.1669 72.2879 22.0403C72.9785 21.9136 72.4143 22.7321 72.7353 23.307C73.1925 24.1353 73.9998 23.3655 74.0581 22.9855C74.1165 22.6054 75.2545 22.8588 75.1961 22.4203C75.1378 21.9818 75.5074 21.8454 75.1961 21.3386C74.8849 20.8319 75.7019 20.9586 76.0812 20.5786C76.4606 20.1985 75.5755 20.5201 74.9432 19.9549C74.311 19.3897 74.0581 20.1401 74.0581 20.5201C74.0581 20.9001 72.8618 20.5786 72.1615 20.335C71.4612 20.0913 70.5858 21.1535 69.5742 21.6602C68.5627 22.1669 68.5043 23.0537 67.5608 22.9855C66.6173 22.9173 65.3043 23.8527 65.7128 23.9989ZM75.556 23.6773C74.6709 23.7456 74.739 24.6518 75.7505 24.6518C76.7621 24.6518 77.0733 24.9636 75.6241 24.9051C74.1748 24.8467 73.5426 26.1037 74.5445 25.8796C75.5463 25.6555 76.7621 25.6262 76.0034 25.8796C75.2448 26.1329 73.1827 26.3083 73.4745 26.7079C73.6691 26.9515 74.4472 26.893 75.3031 27.2048C76.159 27.5167 76.6356 27.7116 77.2484 27.0197C77.8612 26.3278 78.6977 25.6262 78.3767 26.5812C78.0557 27.5362 79.3493 26.8346 81.0904 26.7663C82.8314 26.6981 80.7791 27.7408 79.0089 27.9065C77.2387 28.0721 77.5597 28.8809 78.9506 29.2317C80.3414 29.5825 83.308 28.3449 83.9986 27.6531C84.6892 26.9612 85.3214 28.0331 86.0217 27.5264C86.722 27.0197 88.0351 27.5849 89.2412 27.3315C90.4473 27.0782 90.6321 24.8077 89.747 24.4082C88.8619 24.0087 88.8619 24.8467 88.1615 24.9733C87.4612 25.1 87.0916 24.2133 86.5275 23.6481C85.9634 23.0829 86.333 22.0013 85.5548 22.1279C84.7767 22.2546 82.9676 23.5896 84.0375 23.7066C85.1074 23.8235 84.7281 24.4082 84.164 24.681C83.5998 24.9539 85.4868 25.3729 85.2339 25.7529C84.981 26.1329 82.0825 25.8211 81.956 25.1877C81.8296 24.5543 79.5536 23.4142 78.6101 23.6676C77.6666 23.9209 78.0363 22.9075 77.0928 22.849C76.1493 22.7906 76.48 23.6189 75.5949 23.6773H75.556ZM78.8436 19.1266C79.1548 18.3666 76.7524 18.4932 76.9469 18.7466C77.4332 19.3215 78.5615 19.8867 78.8825 19.1266H78.8436ZM84.0861 18.8148C84.9032 18.6881 84.5238 18.0548 83.201 18.2399C81.8782 18.425 79.6022 18.4348 79.6022 19.38C79.6022 20.1401 80.0399 20.5201 81.4892 20.6468C82.9384 20.7735 84.2126 19.38 83.5123 19.38C82.812 19.38 83.2983 18.9805 84.125 18.8148H84.0861ZM80.9834 17.6065C81.6156 17.8599 82.2478 17.0413 82.6953 17.4213C83.1427 17.8014 85.088 18.1132 85.088 17.0998C85.088 16.0864 82.6272 15.9694 81.995 16.3495C81.3627 16.7295 78.4642 16.8562 79.2812 17.4798C79.8259 17.8696 80.3998 17.3531 81.0223 17.6065H80.9834ZM91.5269 15.6576C92.2856 15.1509 93.6765 15.9792 93.4236 16.5443C93.1707 17.1095 90.992 16.4274 91.1476 16.9244C91.2157 17.1095 91.4685 17.8988 92.9859 17.4311C93.6234 17.2156 94.3051 17.1661 94.9669 17.2871C95.6288 17.4082 96.2491 17.6958 96.7695 18.123C97.7421 18.9512 98.7148 19.2631 99.4248 18.4445C100.135 17.626 98.5397 17.4701 98.851 16.8659C99.1622 16.2618 97.8783 15.8915 97.1488 15.8915C96.4193 15.8915 96.1762 14.6247 95.6315 14.917C95.0868 15.2094 94.6588 15.6089 94.6588 14.7903C94.6588 13.9718 91.3713 13.9036 90.5543 14.2154C89.7372 14.5272 90.8169 16.1546 91.5658 15.6479L91.5269 15.6576ZM91.9743 20.9294C92.4801 20.3057 89.9512 18.2789 89.8248 19.2241C89.6983 20.1693 91.4783 21.631 91.9743 20.9294ZM100.183 12.6465C100.621 11.8865 97.5184 11.292 98.2868 11.9547C98.7829 12.3639 99.7555 13.4358 100.222 12.6758L100.183 12.6465ZM93.0443 27.0002C93.4917 26.5032 92.0716 25.4216 91.7215 26.3084C91.3713 27.1951 92.6357 27.5459 93.0832 27.0294L93.0443 27.0002ZM100.183 22.5762C100.115 23.2096 98.6662 22.4495 97.5282 22.011C96.3902 21.5725 97.0905 22.8978 97.9659 23.6481C98.8412 24.3984 97.5282 24.0281 96.3318 23.2096C95.1354 22.3911 95.2522 23.7748 95.826 24.184C96.3999 24.5933 95.6996 25.2559 94.9409 24.2425C94.1823 23.2291 93.8029 22.1572 92.6065 22.0987C91.4102 22.0402 91.9549 23.2681 92.412 23.8625C93.0391 24.5598 93.8178 25.1032 94.688 25.4508C95.6607 26.016 97.3434 25.1975 98.0923 25.3826C98.8412 25.5678 97.2753 26.5227 97.7811 27.1561C98.2868 27.7895 99.7264 27.3413 100.748 27.2828C101.769 27.2243 101.312 26.5909 101.944 26.1427C102.576 25.6945 101.312 25.7627 101.818 24.6908C102.323 23.6189 100.281 21.972 100.222 22.6054L100.183 22.5762ZM102.829 18.8441C103.692 18.8598 104.55 18.711 105.358 18.4056C106.175 18.084 104.911 18.084 105.484 17.3239C106.058 16.5638 104.094 16.5054 103.967 16.7587C103.841 17.0121 101.38 15.2386 101.001 15.7843C100.621 16.33 101.925 18.8733 102.868 18.8733L102.829 18.8441ZM107.945 19.1656C107.819 18.7856 103.033 19.3605 103.773 19.9257C105.076 20.9294 108.111 19.5749 107.984 19.1949L107.945 19.1656ZM107.245 28.3937C108.383 28.3352 107.819 26.9417 106.554 25.9965C105.29 25.0513 102.459 26.971 102.956 27.3802C104.305 28.0391 105.783 28.395 107.284 28.4229L107.245 28.3937ZM99.1719 37.2514C100.563 38.2259 100.145 36.4914 101.691 36.5596C103.238 36.6278 103.335 34.026 103.588 33.0808C103.841 32.1356 102.323 32.194 102.703 32.8859C103.082 33.5778 102.644 34.2794 102.518 33.4511C102.391 32.6228 101.185 33.3926 100.748 32.7592C100.31 32.1258 102.139 32.0674 102.576 31.2391C103.014 30.4108 101.127 30.5472 101.604 29.9138C102.08 29.2804 98.8315 29.982 99.775 30.3523C100.718 30.7226 99.8431 31.2391 98.958 30.6057C98.0728 29.9723 95.6218 31.0344 96.4971 31.7458C97.1877 32.3207 99.2692 31.3657 98.0728 33.0126C96.8765 34.6594 96.3707 32.5741 95.2327 32.7592C94.0947 32.9444 94.6005 34.3378 96.3026 34.8445C98.0048 35.3513 97.8102 36.3355 99.2108 37.2807L99.1719 37.2514ZM109.482 27.1561C109.92 28.4229 110.455 27.5362 111.116 28.0429C111.777 28.5496 112.886 28.8712 113.46 28.3644C114.034 27.8577 114.277 27.4777 114.433 27.9162C114.744 28.6373 116.145 28.7445 119.17 28.8029C122.195 28.8614 121.446 27.5362 122.331 28.0429C123.539 28.4922 124.847 28.6034 126.114 28.3644C126.999 28.1696 127.437 26.7858 127.379 26.0842C127.32 25.3826 120.57 24.8174 119.364 25.5191C118.158 26.2207 116.271 25.1975 115.318 25.7042C114.365 26.2109 114.686 25.0708 112.984 25.0123C111.281 24.9539 113.11 24.0379 113.431 23.6773C113.752 23.3168 110.834 22.2936 109.638 22.547C108.441 22.8003 107.692 22.1669 106.613 21.6602C105.533 21.1535 102.391 21.2704 103.014 22.1669C103.452 22.8003 107.109 24.1158 107.488 23.4922C107.867 22.8685 108.821 24.2523 109.385 24.9441C109.949 25.636 109.054 25.8991 109.482 27.1561ZM112.701 19.7016C111.563 19.1266 110.134 20.335 111.311 20.7735C112.342 21.1535 113.849 20.2668 112.721 19.7016H112.701ZM103.646 12.6173C104.619 13.085 104.025 13.6892 105.037 14.1277C106.049 14.5662 108.928 13.5625 109.2 14.2544C109.472 14.9462 106.233 15.0145 106.681 15.4627C107.128 15.911 108.947 16.6028 108.694 16.9828C108.441 17.3629 111.729 18.4348 112.04 17.9573C112.351 17.4798 113.246 17.5773 114.063 17.8891C114.88 18.2009 114.948 15.9402 115.512 16.3105C116.077 16.6808 116.018 15.4919 116.962 15.1119C117.905 14.7319 119.277 14.7221 119.364 14.2836C119.452 13.8451 119.111 13.5333 117.973 13.66C116.835 13.7866 116.086 13.3384 116.592 12.6855C117.098 12.0326 115.328 11.867 115.96 11.3603C116.592 10.8535 114.754 10.3858 114.987 11.1069C115.221 11.828 113.849 11.1654 113.655 10.4735C113.46 9.78166 110.883 9.49907 109.181 8.00816C107.478 6.51725 105.708 7.50144 106.72 7.68659C107.731 7.87174 107.692 8.38819 106.846 8.31998C106 8.25177 104.57 8.38818 105.873 8.8949C107.177 9.40161 105.747 9.58677 104.677 9.58677C103.607 9.58677 103.539 10.9802 104.93 11.1654C106.321 11.3505 105.309 12.1398 104.171 11.867C103.033 11.5941 102.615 12.1593 103.646 12.6173ZM111.281 6.35158C112.167 5.7864 112.867 6.16645 112.108 6.54648C111.35 6.92652 111.602 7.17988 112.672 7.11167C113.742 7.04346 112.235 7.43324 112.235 8.08612C112.235 8.739 113.499 8.33946 113.557 8.97286C113.616 9.60625 116.339 9.85961 117.156 9.09954C117.973 8.33947 117.662 9.29443 117.594 9.80115C117.526 10.3079 121.485 10.7756 121.64 10.113C121.796 9.45034 122.399 9.73294 123.157 9.92783C123.916 10.1227 127.632 9.22623 127.7 8.46615C127.768 7.70608 128.896 8.84618 127.7 9.67446C126.503 10.5027 124.101 10.3663 123.031 10.6489C121.961 10.9315 123.722 11.7208 124.792 12.5394C125.861 13.3579 123.41 12.9194 122.399 11.8475C121.387 10.7756 119.111 10.7756 117.915 10.873C116.719 10.9705 117.088 13.1533 117.973 13.1533C118.531 13.1597 119.075 13.323 119.545 13.6245C120.014 13.9261 120.39 14.3536 120.629 14.8586C121.514 16.252 123.41 15.9304 123.41 16.5638C123.41 17.1972 120.94 16.0571 119.52 15.8038C118.1 15.5504 115.921 16.4372 115.853 17.4506C115.785 18.464 117.876 18.3373 119.267 17.5091C120.658 16.6808 119.646 17.7624 118.946 18.3958C118.246 19.0292 120.59 19.5359 120.59 20.296C120.59 21.0561 118.888 20.8027 118.693 20.1108C118.498 19.419 117.876 18.7174 116.232 18.8441C114.588 18.9707 115.036 20.1108 116.047 20.2375C117.059 20.3642 117.117 21.1145 115.979 21.1145C114.841 21.1145 112.283 21.8356 113.061 22.5762C113.839 23.3168 117.156 22.5762 117.73 23.0829C118.304 23.5896 119.88 23.7748 120.249 23.2096C120.619 22.6444 121.893 22.888 123.167 22.888C123.555 22.8291 123.952 22.8619 124.325 22.9837C124.698 23.1055 125.038 23.313 125.317 23.5896C125.667 23.7995 126.075 23.8936 126.481 23.8586C126.888 23.8236 127.273 23.6613 127.583 23.3947C127.788 23.19 128.039 23.0372 128.315 22.9491C128.59 22.8609 128.883 22.84 129.168 22.888C130.044 22.888 130.238 22.3228 129.801 21.6212C129.363 20.9196 128.215 22.128 128.089 21.6212C127.962 21.1145 126.892 20.8027 125.171 21.0561C123.449 21.3094 124.198 19.9159 125.239 20.2375C126.472 20.5055 127.752 20.462 128.964 20.1108C130.161 19.7893 129.217 19.2241 129.217 18.7174C129.217 18.2107 130.725 18.5225 131.863 18.5225C133.001 18.5225 134.644 16.6905 134.703 15.5991C134.761 14.5077 132.184 14.7708 130.919 14.7708C129.655 14.7708 131.736 13.7964 134.139 13.9523C136.541 14.1082 135.462 12.9779 135.909 12.627C136.356 12.2762 137.485 13.0656 138.681 12.8122C139.877 12.5588 139.06 11.5454 139.877 11.5454C140.461 11.5454 141.823 10.6684 144.361 9.20673C146.9 7.74505 148.972 8.00815 149.098 7.18961C149.225 6.37107 145.499 7.18962 144.867 6.93626C144.235 6.6829 147.454 5.96181 148.213 6.17619C148.972 6.39057 149.983 6.17618 152.57 4.9094C155.158 3.64261 154.02 3.33079 152.95 3.51594C151.88 3.70109 150.674 3.33079 150.742 2.62919C150.81 1.92758 149.166 2.57072 149.098 2.19069C149.03 1.81065 147.522 1.99579 145.879 2.62919C144.235 3.26258 145.752 1.99579 146.443 1.74243C147.133 1.48907 142.28 1.74243 141.463 1.17725C140.646 0.612066 139.693 2.1517 138.934 1.3624C138.175 0.57309 136.22 1.23572 136.473 1.81065C136.726 2.38558 136.162 2.37582 135.403 1.74243C134.644 1.10904 133.186 1.81064 131.863 1.61575C130.54 1.42086 131.104 2.69739 129.655 2.064C128.206 1.43061 126.63 1.74243 127.068 1.93732C127.505 2.13221 126.941 2.5025 126.309 2.31735C125.677 2.13221 125.113 2.37583 125.424 3.00922C125.735 3.64261 123.089 2.82408 123.089 3.51594C123.089 4.2078 122.117 4.58783 121.387 3.96418C120.658 3.34053 118.226 3.1359 118.926 3.71083C119.627 4.28575 116.777 3.96418 117.536 4.52936C118.294 5.09454 116.563 5.50382 116.563 5.22123C116.563 4.93864 114.978 4.33447 114.345 4.9094C113.713 5.48432 113.528 6.17619 113.217 5.79615C112.906 5.41612 111.505 5.54279 110.182 6.0495C108.86 6.55622 110.377 6.92651 111.262 6.31261L111.281 6.35158ZM127.194 60.9209C127.632 60.8624 128.517 59.2838 127.379 59.3422C126.241 59.4007 126.484 61.0281 127.175 60.9306L127.194 60.9209ZM121.64 59.5371C122.613 60.1608 124.159 58.4555 124.033 57.9488C123.906 57.4421 120.395 58.7771 121.621 59.5469L121.64 59.5371ZM126.182 56.0583C126.309 55.425 124.101 55.1716 124.237 54.47C124.373 53.7684 122.156 53.2032 121.455 52.8329C120.755 52.4626 119.695 52.258 119.695 51.4979C119.695 50.7378 118.178 51.3128 118.109 52.4724C118.041 53.632 117.419 53.3494 117.73 54.4213C118.041 55.4932 116.349 55.7465 116.534 56.3117C116.719 56.8769 117.506 56.2532 118.304 56.2532C119.102 56.2532 118.1 57.3154 119.063 57.3933C120.001 57.2762 120.857 56.8016 121.455 56.0681C121.776 55.5614 122.428 55.3665 123.284 55.9999C124.14 56.6333 126.017 56.6917 126.163 56.0681L126.182 56.0583ZM146.822 50.4845C147.581 50.5527 147.707 51.4589 148.913 52.5113C150.119 53.5638 150.236 52.8329 150.421 52.1313C150.606 51.4297 151.938 52.0046 151.88 51.3128C151.821 50.6209 152.95 49.7926 153.708 49.4808C154.467 49.169 153.076 48.3992 152.065 48.5064C151.91 48.5446 151.749 48.5442 151.595 48.5054C151.44 48.4666 151.298 48.3905 151.18 48.2837C151.062 48.177 150.972 48.0428 150.917 47.8931C150.863 47.7433 150.846 47.5825 150.868 47.4247C150.868 46.9862 148.972 45.9143 148.339 46.0995C147.707 46.2846 146.637 45.2809 145.82 45.2127C145.003 45.1445 143.797 44.5208 143.924 43.6341C144.05 42.7473 145.567 43.8874 145.869 43.1858C146.17 42.4842 144.293 42.874 144.225 42.3673C144.157 41.8606 144.673 42.0555 145.052 41.7339C145.431 41.4123 144.731 40.7595 144.293 40.5353C143.855 40.3112 143.719 41.0421 143.321 41.0421C142.922 41.0421 143.252 40.3405 143.573 39.9019C143.894 39.4634 142.124 38.9275 141.365 39.2101C140.607 39.4927 140.393 39.0152 140.393 38.5085C140.393 38.0018 139.07 38.5085 138.564 38.8885C138.058 39.2685 137.426 38.5085 138.058 38.45C138.691 38.3915 139.449 37.8751 139.255 37.3099C139.06 36.7447 137.426 36.6765 137.105 37.3684C136.784 38.0602 135.471 36.618 135.471 36.0431C135.471 35.4682 133.448 35.9846 133.701 35.0687C133.954 34.1527 131.367 33.8701 130.666 33.8701C129.966 33.8701 128.964 34.4353 129.091 35.0687C129.217 35.7021 128.332 35.4487 128.206 34.7568C128.079 34.065 126.377 35.5169 125.871 35.5169C125.365 35.5169 126.192 33.6752 125.939 33.11C125.578 32.5634 125.253 31.9937 124.967 31.4047C124.587 30.4303 122.691 30.8298 122.185 31.4047C121.679 31.9797 120.045 31.7166 119.16 32.6033C118.275 33.4901 119.218 34.3768 119.598 34.6886C119.977 35.0005 118.275 35.5169 118.839 36.0236C119.403 36.5303 120.288 36.277 120.356 37.0955C120.424 37.9141 118.275 36.8422 117.954 36.1211C117.633 35.4 118.08 34.7861 117.643 34.2794C117.205 33.7726 117.574 33.149 118.401 32.2623C119.228 31.3755 119.85 31.5022 119.85 30.9955C119.85 30.4887 116.32 30.4887 114.229 32.3889C113.574 33.0078 113.104 33.7963 112.871 34.6668C112.637 35.5373 112.649 36.4556 112.906 37.3197C113.032 37.8264 114.851 37.573 115.94 37.8848C117.03 38.1967 116.446 38.6449 115.619 38.5182C114.793 38.3915 113.412 38.1382 113.48 38.7131C113.548 39.288 115.24 40.3502 116.252 40.1066C117.263 39.863 117.224 39.8532 117.701 40.4184C118.178 40.9836 119.345 40.7984 120.541 40.8569C121.604 40.9906 122.66 41.1826 123.702 41.4318C123.976 41.4453 124.249 41.3951 124.501 41.2852C124.752 41.1753 124.975 41.0087 125.151 40.7984C125.346 40.4769 127.68 41.3052 128.371 41.2369C129.061 41.1687 128.624 40.5451 128.186 40.3502C127.748 40.1553 127.933 39.3757 128.497 39.6583C129.061 39.9409 130.015 40.1651 130.199 40.7302C130.384 41.2954 130.9 40.9836 130.958 41.4318C131.016 41.8801 133.049 42.4063 133.108 42.8838C133.166 43.3612 131.162 43.6438 131.717 44.0823C132.271 44.5208 133.166 43.5172 133.925 43.4587C134.683 43.4002 134.683 45.0958 135.257 44.8424C136.026 44.5014 136.638 45.164 137.397 46.2359C138.156 47.3078 137.339 48.3212 137.397 48.7012C137.455 49.0813 138.914 48.9546 139.731 48.5161C140.548 48.0776 141.317 49.0228 141.949 49.588C142.581 50.1532 139.615 51.1081 139.858 50.5624C140.101 50.0168 138.097 48.5356 136.269 49.2372C134.44 49.9388 135.695 51.0009 135.889 51.6343C136.084 52.2677 134.246 52.9011 132.544 52.3359C130.841 51.7708 131.337 52.716 130.598 52.716C129.859 52.716 129.149 53.7879 129.781 54.4797C130.413 55.1716 131.795 54.5479 132.933 54.6064C134.071 54.6649 134.197 54.9865 134.323 54.3531C134.45 53.7197 135.646 54.0412 136.463 54.2264C137.28 54.4115 137.096 55.5614 138.107 55.6881C139.119 55.8147 138.302 56.8184 138.934 57.52C139.566 58.2216 141.579 57.8318 142.338 58.5919C143.097 59.352 146.307 60.8624 146.754 60.2972C147.201 59.732 143.982 56.7599 143.029 56.5066C142.076 56.2532 144.001 55.9414 145.178 56.8866C146.355 57.8318 148.145 58.2801 149.069 57.14C149.993 55.9999 148.31 56.3117 148.31 55.4932C148.31 54.6746 147.746 53.5443 146.861 53.5443C145.976 53.5443 143.7 51.7708 144.527 51.3907C145.353 51.0107 144.274 50.504 144.906 49.8121C145.538 49.1203 146.044 50.4358 146.803 50.4942L146.822 50.4845ZM133.506 47.4539C134.265 47.3273 134.119 46.1579 133.691 45.5538C133.38 45.1153 132.563 45.0471 131.863 45.1153C131.162 45.1835 129.917 46.2554 130.598 47.3273C131.279 48.3992 132.728 47.5904 133.487 47.4637L133.506 47.4539ZM125.618 31.0052C125.239 31.8335 126.435 31.8335 126.503 32.7787C126.571 33.7239 127.758 34.0455 128.643 33.4706C129.528 32.8956 132.057 33.646 132.057 32.9054C132.057 32.1648 129.402 30.9565 128.458 31.1319C127.515 31.3073 126.017 30.1964 125.599 31.015L125.618 31.0052ZM149.283 84.8339C149.409 85.3406 153.076 86.851 153.173 86.1591C153.271 85.4673 149.156 84.4051 149.263 84.8436L149.283 84.8339ZM165.302 88.605C165.05 89.0728 164.67 88.264 165.215 87.845C165.76 87.4259 165.137 87.2603 164.631 87.5039C164.126 87.7475 164.252 86.3735 164.709 86.1202C165.166 85.8668 163.581 85.3601 163.581 85.8181C163.581 86.2761 162.443 85.9935 162.316 85.5647C162.19 85.136 161.392 85.019 161.684 84.7267C161.976 84.4344 160.712 84.259 160.585 84.7267C160.459 85.1944 160.079 84.3954 160.712 83.7523C161.344 83.1091 161.139 82.4952 161.684 82.1542C162.229 81.8131 161.684 81.4331 161.013 81.6864C159.959 82.5186 159.157 83.6289 158.698 84.8924C158.698 85.5257 158.698 86.2858 158.066 86.2468C157.434 86.2079 156.801 86.7536 157.268 87.0849C157.735 87.4162 156.043 88.3809 156.85 88.8194C157.395 89.1117 158.28 88.6927 159.039 88.7707C159.379 88.8545 159.733 88.8683 160.079 88.8114C160.425 88.7545 160.756 88.6279 161.052 88.4394C161.684 87.9716 161.684 88.8584 162.355 88.7707C163.026 88.683 161.976 89.3164 162.025 89.7451C162.073 90.1739 162.735 89.4918 163.24 89.2384C163.746 88.9851 164.378 89.2384 164.125 89.6574C163.873 90.0764 165.516 90.5052 165.896 89.8328C166.275 89.1604 165.536 88.1665 165.283 88.6148L165.302 88.605ZM51.1814 76.9896C50.0434 77.5937 52.7765 80.4878 53.3407 80.1273C53.7297 79.8739 52.6696 78.6656 52.6696 77.9153C52.6696 77.165 52.3097 76.3854 51.1814 76.9896ZM155.255 91.4212C154.808 91.4796 155.158 90.7878 155.255 90.4467C155.352 90.1057 154.282 90.6027 154.282 91.0119C154.282 91.4212 153.553 91.5868 153.553 91.8402C153.553 92.5808 153.456 92.191 152.95 92.4444C152.444 92.6977 150.489 92.4443 150.431 91.9961C150.372 91.5479 148.942 91.3335 148.884 90.7293C148.826 90.1252 148.125 89.94 148.69 89.2774C149.254 88.6148 148.602 88.3029 148.057 88.7999C147.513 89.2969 147.211 88.5173 147.931 88.2347C148.651 87.9521 150.022 87.6695 149.322 86.4028C148.621 85.136 144.274 86.7828 143.165 87.3772C142.056 87.9716 140.675 90.0277 140.072 90.0277C139.469 90.0277 141.122 88.9558 141.365 88.5466C141.609 88.1373 141.307 87.7183 141.657 87.8742C142.007 88.0301 142.98 86.5197 143.603 86.013C144.225 85.5063 144.993 86.013 145.091 85.5745C145.188 85.136 145.499 84.8729 146.131 84.3077C146.764 83.7425 154.302 83.8302 155.031 83.8594C156.049 83.6671 156.96 83.1049 157.589 82.2808C157.998 81.6474 158.562 81.6474 159.535 81.7157C160.507 81.7839 161.013 80.8581 161.48 80.5073C161.947 80.1565 161.801 80.0006 161.353 79.9129C160.906 79.8252 160.507 79.5329 160.945 79.4939C161.383 79.4549 161.606 79.2113 161.801 78.6461C161.995 78.0809 161.645 78.3246 161.042 77.5352C160.439 76.7459 160.128 77.7886 159.525 77.7301C158.922 77.6717 159.933 76.9018 159.428 76.59C159.047 76.4591 158.637 76.44 158.246 76.535C157.854 76.63 157.498 76.835 157.22 77.126C156.461 77.7594 156.529 77.126 155.868 77.7301C155.206 78.3343 155.206 77.4086 155.518 77.1552C155.829 76.9019 156.053 77.1552 156.335 76.8142C156.617 76.4731 156.908 76.8142 157.628 76.3367C158.348 75.8592 158.99 76.0833 159.214 75.7325C159.437 75.3817 158.863 74.914 158.173 75.0699C157.482 75.2258 157.006 74.0954 156.558 74.4365C156.111 74.7776 156.208 73.9688 155.712 74.2806C155.216 74.5924 154.914 74.1831 154.739 73.5887C154.154 72.7346 153.313 72.0894 152.337 71.747C151.52 71.4936 152.055 71.0551 152.493 71.367C152.93 71.6788 153.465 71.0551 153.631 70.7433C153.796 70.4315 153.319 70.1392 153.066 70.1099C152.814 70.0807 152.814 69.6617 152.872 69.3499C152.93 69.038 151.987 68.619 151.958 68.3072C151.928 67.9954 151.394 67.7615 151.423 67.4789C151.452 67.1963 150.888 66.787 150.888 66.407C150.888 66.027 149.915 65.2669 149.915 64.8284C149.915 64.3899 149.38 64.0683 149.195 63.5324C149.01 62.9964 148.748 63.24 148.563 64.0001C148.378 64.7602 147.707 64.731 147.892 64.9746C148.281 65.491 147.989 65.5105 147.707 65.8223C147.425 66.1342 147.892 66.6214 147.425 66.6214C146.958 66.6214 147.172 67.5958 146.919 67.1573C146.666 66.7188 146.063 66.8358 146.063 67.284C146.063 67.7323 145.091 68.1318 144.643 68.1026C144.196 68.0733 144.235 67.2158 143.885 67.4692C143.534 67.7225 143.603 66.7481 143.068 66.7773C142.533 66.8065 142.153 66.7773 142.309 66.2706C142.465 65.7639 141.395 65.5787 141.745 65.2961C142.095 65.0135 141.648 64.5068 141.579 63.6883C141.511 62.8698 142.056 62.8015 142.056 62.4897C142.056 62.1779 141.677 62.1682 141.297 62.4215C140.918 62.6749 140.918 62.0707 140.51 62.1097C140.101 62.1487 138.866 62.1097 138.807 61.5055C138.749 60.9014 138.331 61.2229 138.146 60.687C137.961 60.151 137.446 60.5603 137.446 60.1803C137.446 59.8002 137.232 59.6346 136.852 59.6054C136.473 59.5761 136.347 59.1668 135.88 59.0986C135.374 59.1376 134.886 59.3017 134.46 59.5761C134.178 59.7028 133.487 59.1376 133.166 59.352C132.845 59.5664 132.816 59.1961 132.028 58.972C131.24 58.7478 130.199 58.6894 130.083 58.972C129.966 59.2545 129.392 59.352 129.489 60.0146C129.587 60.6772 130.238 60.5603 130.404 60.9891C130.569 61.4178 130.083 61.2717 130.054 61.6809C130.024 62.0902 129.616 62.061 129.616 62.3533C129.616 62.6456 129.898 62.5677 130.054 63.1426C130.209 63.7175 130.53 63.6785 130.618 64.4386C130.705 65.1987 130.365 65.033 130.054 65.1305C129.742 65.2279 130.054 65.608 129.645 66.1049C129.237 66.6019 128.818 67.1476 129.168 67.4594C129.519 67.7712 130.812 68.3169 131.318 69.1745C131.752 70.1572 131.861 71.2532 131.629 72.3024C131.474 73.2769 130.404 73.4718 129.616 74.2514C129.364 74.5074 129.06 74.7054 128.724 74.8316C128.388 74.9578 128.028 75.0092 127.671 74.9822C127.291 74.9822 127.515 75.7715 128.05 76.3756C128.585 76.9798 128.147 77.165 128.429 77.7984C128.711 78.4317 128.429 78.9385 128.838 79.5036C129.246 80.0688 128.993 80.2929 128.527 80.7022C128.06 81.1115 128.711 80.8971 128.74 81.4331C128.77 81.969 128.527 81.6572 128.108 81.3648C127.69 81.0725 127.32 81.9105 127.32 82.2516C127.32 82.5926 126.348 81.7839 126.124 81.8131C125.9 81.8423 126.192 81.2771 125.618 80.8386C125.044 80.4001 124.646 80.3027 124.646 79.8642C124.646 79.4257 123.673 79.1041 123.673 78.5974C123.755 77.8692 123.723 77.1326 123.576 76.4146C123.499 76.2276 123.474 76.0238 123.501 75.8237C123.528 75.6235 123.608 75.4341 123.731 75.2745C123.926 74.9237 123.517 74.3878 122.943 74.3878C122.23 74.3094 121.512 74.2672 120.794 74.2611C120.541 74.3147 120.28 74.3174 120.026 74.2689C119.773 74.2203 119.531 74.1216 119.316 73.9785C118.742 73.5213 118.079 73.1893 117.37 73.0041C117.054 72.9584 116.753 72.8406 116.49 72.6598C116.227 72.479 116.009 72.2401 115.853 71.9614C115.756 71.669 114.783 71.4547 114.559 71.1721C114.107 70.8613 113.557 70.7262 113.013 70.792C112.633 70.8505 111.69 69.993 111.067 70.032C110.349 70.1895 109.643 70.4012 108.957 70.6654C108.733 70.6654 108.957 70.1879 109.142 69.9638C109.326 69.7396 108.665 68.7944 108.509 68.161C108.354 67.5276 108.13 66.8358 107.469 66.9332C106.917 66.9709 106.367 66.8383 105.893 66.5532C105.682 65.6715 105.659 64.755 105.825 63.8637C105.99 63.1036 106.798 61.9635 106.798 61.486C106.798 61.0086 107.332 60.7942 107.77 60.6675C108.208 60.5408 107.867 59.6248 108.334 59.5566C108.801 59.4884 108.84 59.3033 108.937 58.933C109.035 58.5627 109.599 58.8063 109.287 58.4847C108.976 58.1632 109.219 58.0755 109.949 58.0755C110.678 58.0755 111.748 57.8221 111.593 57.101C111.437 56.3799 109.482 56.9841 109.482 56.4092C109.482 55.8342 107.08 55.7758 107.235 55.4347C107.391 55.0936 109.638 55.6881 110.455 55.9999C110.988 56.2389 111.577 56.3266 112.157 56.2532C112.828 56.2532 112.381 55.3665 112.507 55.0157C112.633 54.6649 113.898 55.5614 114.627 55.3665C115.357 55.1716 116.047 53.6904 116.641 53.2812C117.234 52.8719 116.709 52.4919 115.542 52.5893C115.097 52.6264 114.649 52.5721 114.226 52.4296C113.803 52.2872 113.413 52.0597 113.081 51.761C112.449 51.2933 112.507 50.9132 113.168 50.9717C113.83 51.0302 115.415 52.3359 116.009 52.3652C116.602 52.3944 117.652 51.1958 118.158 50.8158C118.664 50.4358 117.681 50.2799 117.341 49.9875C117.001 49.6952 117.934 49.5198 118.44 49.5198C118.946 49.5198 119.17 49.9583 119.354 50.1824C119.539 50.4065 120.434 50.0265 120.872 50.0265C121.309 50.0265 120.813 49.2957 120.084 49.052C119.354 48.8084 120.084 48.2335 120.337 48.672C120.59 49.1105 121.066 49.0228 121.309 49.5295C121.669 50.2604 121.903 49.7731 122.535 49.5295C123.046 49.328 123.493 48.9912 123.829 48.5551C124.179 48.175 124.237 48.6233 124.655 48.0191C125.074 47.415 124.461 46.8498 123.955 46.4698C123.449 46.0897 123.955 45.7097 123.478 45.4953C123.002 45.2809 122.885 44.7645 123.478 44.9009C123.738 44.9742 124.015 44.9649 124.269 44.8741C124.523 44.7833 124.743 44.6156 124.899 44.3942C125.181 43.9459 123.926 43.8485 124.519 43.5366C125.113 43.2248 124.616 42.9033 124.043 42.9033C123.469 42.9033 123.002 42.6207 122.973 42.1432C122.943 41.6657 122 41.9873 121.358 41.7047C120.632 41.4953 119.872 41.4291 119.121 41.5098C118.8 41.5098 118.771 42.8448 119.247 42.874C119.724 42.9033 120.094 43.41 119.685 43.5659C119.277 43.7218 119.753 44.2285 119.432 44.1993C119.111 44.17 118.615 44.0141 118.518 44.8327C118.421 45.6512 118.362 45.9728 117.827 46.2554C117.292 46.538 117.701 45.3394 117.195 45.3686C116.689 45.3979 116.631 46.3431 117.001 46.4795C117.37 46.6159 117.448 46.8888 117.545 47.3662C117.643 47.8437 116.845 47.4929 116.573 48.0581C116.3 48.6233 116.222 47.8047 115.785 47.4247C115.347 47.0447 114.812 46.4503 114.812 45.9435C114.81 45.7798 114.871 45.6216 114.984 45.503C115.097 45.3845 115.252 45.3153 115.415 45.3102C115.765 45.2419 115.415 44.9301 115.415 44.3357C115.415 43.7413 114.968 43.9557 114.443 43.3613C113.917 42.7668 113.402 42.7571 113.12 43.0397C112.838 43.3223 113.022 43.868 112.585 44.0141C112.147 44.1603 112.332 45.086 111.953 45.1542C111.573 45.2225 111.797 43.6049 111.476 43.4489C111.155 43.293 111.194 42.913 111.67 42.8448C112.147 42.7766 112.429 42.2796 112.011 42.2796C111.51 42.1643 111.031 41.9703 110.591 41.7047C110.309 41.578 109.842 42.2406 109.521 41.9873C109.2 41.7339 109.521 41.1103 109.589 40.7595C109.657 40.4087 110.095 40.9154 110.406 40.4769C110.717 40.0384 109.521 40.0286 109.521 39.5609C109.521 39.0931 108.548 38.9567 108.256 38.8008C107.965 38.6449 108.48 37.8264 108.325 37.534C108.169 37.2417 106.992 36.1698 106.496 36.2672C106 36.3647 105.864 35.6046 106.146 35.6338C106.428 35.6631 106.652 35.4779 107.187 34.8738C107.722 34.2696 107.79 34.0845 107.41 33.9578C107.031 33.8311 106.836 33.4511 107.498 33.4803C108.159 33.5096 109.336 33.9578 109.715 33.6752C110.458 32.7805 111.143 31.84 111.768 30.859C112.235 30.1964 111.418 30.1282 110.28 30.2256C109.142 30.3231 108.889 29.7871 107.945 29.7189C106.933 29.649 105.918 29.8124 104.979 30.1964C104.726 30.479 105.446 30.7324 105.358 31.0539C105.27 31.3755 104.697 30.8298 104.444 30.9565C104.191 31.0832 104.531 31.4924 104.444 32.6033C104.372 32.8901 104.385 33.1915 104.479 33.4714C104.574 33.7514 104.748 33.998 104.979 34.1819C105.237 34.6896 105.325 35.2668 105.232 35.8287C105.232 36.5206 104.57 36.4914 104.346 36.6473C104.123 36.8032 104.911 37.0565 104.784 37.5048C104.658 37.953 103.996 37.2514 103.617 37.3781C103.238 37.5048 102.926 38.5767 103.335 38.9275C103.743 39.2783 103.899 39.2101 103.588 39.6193C103.277 40.0286 102.926 40.5938 103.685 41.2369C104.444 41.8801 105.825 41.7729 106.554 42.2114C107.284 42.6499 106.243 42.4063 106.554 42.9422C106.866 43.4782 106.078 43.6731 106.107 44.0823C106.136 44.4916 106.428 44.2675 106.807 43.5756C107.187 42.8838 107.469 43.7608 107.439 44.3649C107.41 44.9691 106.866 44.6183 106.467 45.2224C106.341 45.4683 106.132 45.6606 105.876 45.7644C105.621 45.8682 105.337 45.8764 105.076 45.7876C104.483 45.6609 104.823 46.6451 105.076 47.1811C105.329 47.717 105.018 47.9119 104.317 47.717C103.617 47.5222 103.218 47.0836 103.559 46.5477C103.899 46.0117 104.162 45.3784 103.753 45.4368C103.345 45.4953 102.391 45.4368 102.109 44.9691C101.827 44.5014 102.304 44.7157 103.15 44.8132C103.996 44.9106 103.277 44.2383 103.909 44.2383C104.541 44.2383 105.018 44.5891 105.553 44.1116C106.087 43.6341 105.202 42.7181 104.765 42.8838C104.327 43.0494 103.627 43.2248 103.627 42.7863C103.627 42.3478 104.385 42.6596 104.794 42.5622C105.202 42.4647 104.57 41.8996 103.938 42.0555C103.673 42.1726 103.378 42.2026 103.095 42.1414C102.812 42.0801 102.555 41.9307 102.362 41.7144C101.856 41.1687 100.942 40.8569 100.718 42.0847C100.495 43.3125 99.6194 42.6596 99.2692 43.0592C98.9191 43.4587 99.6777 43.751 100.534 43.79C101.39 43.829 102.012 44.6085 101.604 44.6085C101.195 44.6085 101.39 45.2127 100.942 44.9886C100.495 44.7645 100.057 44.9886 100.378 45.3686C100.699 45.7487 100.252 45.9046 100.281 46.2846C100.31 46.6646 99.6194 46.2846 98.958 46.2846C98.0204 46.2859 97.0864 46.4004 96.1762 46.6257C95.7873 46.716 95.3829 46.7146 94.9946 46.6216C94.6064 46.5285 94.2451 46.3465 93.9391 46.0897C93.5598 45.6805 93.054 45.7487 92.4218 45.7487C91.7895 45.7487 91.9841 45.1445 91.1573 45.1153C90.3306 45.086 90.5251 44.3844 90.4375 43.9751C90.35 43.5659 88.6965 43.6926 88.0935 44.0726C87.4904 44.4526 86.333 44.287 86.012 44.9886C85.691 45.6902 86.2941 45.583 86.6442 45.583C86.9944 45.583 87.0916 45.0178 87.967 45.1445C88.8424 45.2712 89.4844 44.2285 89.9123 44.6085C90.3403 44.9886 88.395 45.7097 87.578 45.8363C86.7609 45.963 86.9457 46.6257 87.7336 47.7853C88.5214 48.9449 87.3931 48.2822 87.3931 48.8572C87.3931 49.4321 85.905 48.6623 86.508 48.4771C87.1111 48.292 86.8193 47.6878 86.3427 47.3078C85.8661 46.9277 85.5548 47.3078 85.6229 46.8985C85.691 46.4892 85.1172 46.8985 84.6503 46.5769C84.1834 46.2554 83.9889 45.9435 83.3956 46.2651C82.5421 46.5217 81.6597 46.669 80.7694 46.7036C79.4466 46.9277 77.015 46.8595 76.5773 46.421C76.1396 45.9825 77.7153 45.1835 78.1822 45.3102C78.649 45.4368 78.3767 44.8132 77.6472 44.2383C76.9177 43.6633 75.3128 43.3223 75.342 43.6731C75.3712 44.0239 74.4277 43.6731 73.2605 43.4782C72.0934 43.2833 71.9377 42.8448 71.1791 42.8156C70.1758 42.7746 69.2075 42.4354 68.3973 41.8411C67.5122 41.1395 65.4794 41.3344 65.1778 41.9678C64.8763 42.6012 64.2052 42.5622 63.534 42.5622C62.8629 42.5622 63.855 41.7826 63.6021 41.6462C63.3493 41.5098 63.6021 40.6036 63.1255 40.5451C62.6489 40.4866 62.1529 42.6304 61.1802 42.5622C60.2076 42.494 59.8283 40.2917 59.0404 39.7168C58.2526 39.1419 57.5231 39.1224 58.1845 39.9701C58.8459 40.8179 57.6203 40.2235 57.6787 40.7984C57.7371 41.3734 56.6088 42.0263 56.638 41.7144C56.6671 41.4026 56.0058 41.0518 55.2471 41.9288C54.4884 42.8058 53.9535 42.6889 53.8951 42.377C53.8367 42.0652 51.5899 43.1956 51.6775 43.5756C51.765 43.9557 51.337 44.2383 50.7048 44.209C50.0726 44.1798 50.5784 43.6731 51.055 43.4197C51.9049 42.7885 52.8254 42.2588 53.7978 41.8411C54.5565 41.7144 56.0057 41.1103 56.0446 40.7595C56.0836 40.4087 55.3152 40.701 54.8094 40.6036C54.3036 40.5061 53.4185 41.081 52.5723 41.4611C51.7261 41.8411 50.734 41.7144 50.9869 42.2211C51.2398 42.7279 50.199 42.1529 50.0142 42.5037C49.8294 42.8545 49.382 42.5037 49.6932 42.2796C50.0045 42.0555 48.9346 41.7437 48.9346 41.9678C48.9346 42.1919 48.7498 42.4745 47.9619 42.4745C47.1741 42.4745 46.4446 43.0104 46.9893 43.3905C47.534 43.7705 47.8063 43.9557 47.5534 44.209C47.3005 44.4624 46.5127 43.5464 45.4136 43.6438C44.3145 43.7413 42.0969 42.4063 42.0969 42.0945C42.0969 41.7826 40.5406 41.997 39.4707 41.8801V63.8052C39.4707 63.8052 40.0154 64.2145 40.2196 63.9611C40.4239 63.7078 40.813 64.0391 41.5327 63.7078C42.2525 63.3765 42.5054 64.0878 42.5054 64.4191C42.5054 64.7505 43.478 65.3059 43.9352 65.8516C44.3923 66.3973 44.5674 66.826 45.0343 66.5727C45.5011 66.3193 46.3376 66.1049 46.3376 65.5982C46.3376 65.0915 48.2829 64.9648 48.2829 65.6859C48.2829 66.407 50.2282 67.245 51.3565 69.1842C52.4848 71.1234 52.3291 71.5424 53.8756 72.1758C55.4222 72.8092 55.4319 73.1502 55.2276 73.6959C55.0234 74.2416 56.2003 74.5339 55.5194 75.0017L54.5468 75.6935C54.5468 75.9664 54.8288 76.1418 55.1498 76.4146C55.4708 76.6875 54.4592 76.7265 54.7705 77.0188C55.0817 77.3111 54.7121 77.7399 55.0234 78.0907C55.2003 78.2364 55.4255 78.3103 55.6543 78.2977C55.883 78.285 56.0987 78.1868 56.2586 78.0225C56.6088 77.7399 56.852 78.3733 56.5699 78.8508C56.5244 78.9317 56.5093 79.0262 56.5272 79.1173C56.5452 79.2084 56.595 79.2901 56.6677 79.3477C56.7404 79.4053 56.8313 79.435 56.9239 79.4314C57.0165 79.4278 57.1048 79.3912 57.1729 79.3282C57.455 78.9774 58.058 79.8934 58.3401 80.0493C58.6222 80.2052 58.9042 80.6827 58.4374 80.6827C57.9705 80.6827 58.0289 81.5013 58.3693 81.5402C58.7097 81.5792 58.6903 82.008 58.6903 82.3003C58.6903 82.5926 59.7894 82.9922 60.1979 82.8655C60.6064 82.7388 60.9954 83.1189 61.1705 83.4697C61.31 83.6556 61.5046 83.7925 61.7265 83.8607C61.9484 83.929 62.1862 83.9252 62.4058 83.8497C62.6879 83.6256 62.8726 84.259 62.9407 84.6975C63.0088 85.136 63.6313 84.8924 64.0107 84.8534C64.39 84.8144 64.6137 85.3601 64.8666 85.2724C65.421 85.058 65.5863 86.0325 65.956 86.6074L105.183 86.393C105.183 86.393 105.183 85.4186 105.679 85.7499C106.175 86.0812 105.679 86.6366 106.263 86.851C106.846 87.0654 107.235 87.3967 107.488 87.27C107.741 87.1433 108.286 86.7243 108.791 87.3187C109.297 87.9132 109.677 87.3967 109.968 87.7767C110.26 88.1568 110.815 88.4491 111.194 87.9911C111.573 87.5331 112.663 88.0691 113.227 88.2737C113.917 87.7182 114.462 86.5294 115.084 86.5294C115.902 86.5294 118.002 86.7243 118.109 87.7962C118.216 88.8681 119.5 87.8644 119.627 88.8779C119.734 89.7354 120.599 90.4078 120.424 90.8268C120.708 90.9987 120.98 91.1874 121.241 91.3919C121.98 91.3147 122.727 91.4148 123.42 91.6843C124.295 91.9961 125.628 91.3043 126.066 92.3762C126.503 93.448 127.534 94.2666 126.571 94.3251C125.754 94.3933 124.675 93.2531 124.743 93.8865C124.811 94.5199 124.295 94.1984 124.295 95.1533C124.295 96.1083 123.663 97.4238 123.323 97.3653C123.269 97.5565 123.261 97.7578 123.3 97.9526C123.339 98.1474 123.424 98.3302 123.547 98.4859C124.033 98.1351 124.723 97.5115 125.317 97.57C126.289 97.6382 126.513 98.2034 127.145 97.7649C127.778 97.3264 127.904 97.1315 128.03 97.4433C128.044 97.491 128.044 97.5417 128.03 97.5895C128.264 97.4628 128.439 97.3361 128.449 97.2386C128.455 97.0472 128.429 96.8561 128.371 96.6735C127.739 96.7612 127.525 96.8099 127.35 96.3714C127.097 95.738 129.246 95.1046 130.268 95.2313C131.289 95.358 131.902 94.6758 132.213 95.0948C132.787 94.5208 133.442 94.0349 134.158 93.6527L139.021 93.6039C139.021 93.6039 140.578 92.6295 140.792 91.7525C141.006 90.8755 142.007 88.7609 142.601 89.2287C143.194 89.6964 144.449 89.3456 144.488 89.7744C144.399 90.4832 144.461 91.2027 144.669 91.8861C144.877 92.5694 145.226 93.2012 145.694 93.7404C146.131 93.4123 146.642 93.198 147.182 93.1167C147.531 93.0473 147.861 92.9035 148.15 92.695C148.438 92.4865 148.679 92.2183 148.855 91.9084C149.108 91.4407 149.458 92.3566 148.952 92.5126C148.446 92.6685 149.361 93.0485 150.246 93.0193C151.131 92.9901 149.837 93.3311 149.176 93.3019C148.514 93.2726 148.203 93.3701 147.347 94.2763C146.491 95.1825 146.676 95.4067 147.182 95.8549C147.688 96.3032 148.349 96.1083 149.049 95.5041C149.75 94.9 149.711 94.3055 150.401 94.3348C151.526 94.161 152.629 93.8636 153.689 93.4481C154.477 93.1947 153.971 93.068 153.971 92.7172C153.971 92.3664 155.362 92.3761 155.868 92.0253C156.373 91.6745 155.644 91.353 155.197 91.4212H155.255ZM73.0952 50.426C72.2684 51.4589 71.9961 51.6149 71.1499 51.4589C70.3037 51.303 69.7687 51.7415 70.1772 52.0436C70.5858 52.3457 70.6247 52.5893 69.7493 52.7939C68.8739 52.9986 68.2903 53.6709 67.9402 53.6027C67.59 53.5345 69.4478 52.1898 68.9712 51.839C68.4946 51.4882 67.3177 52.4431 67.2885 52.8719C67.2593 53.3006 66.4909 53.3201 66.0143 53.3007C65.5377 53.2812 64.9055 52.8232 65.3821 52.7647C65.8587 52.7062 65.528 52.1898 66.1894 51.9364C66.8508 51.6831 66.0629 51.3128 66.2575 51.0302C66.452 50.7476 67.7943 51.3128 67.8137 50.8061C67.8332 50.2993 66.4909 49.8803 66.0338 50.1824C65.6534 50.4941 65.1977 50.6996 64.7127 50.7783C64.2277 50.857 63.7305 50.8061 63.2714 50.6306C62.8824 50.4552 66.4326 50.0752 67.0356 49.5295C67.6386 48.9838 70.3523 48.3407 70.5566 48.8474C70.7608 49.3541 69.0976 49.6757 69.8952 50.1337C70.2842 50.3266 70.722 50.3982 71.1521 50.3391C71.5821 50.28 71.9845 50.0931 72.3074 49.8024C72.57 49.3249 73.8733 49.4029 73.0466 50.426H73.0952ZM81.0807 60.5895C80.108 61.4471 80.1761 61.2132 79.3202 61.3691C78.4642 61.525 79.1451 62.3436 78.1141 62.4507C77.0831 62.5579 74.6028 62.6262 74.2235 62.0415C74.1068 61.8563 75.5755 61.9928 75.6824 61.5737C75.7894 61.1547 76.1785 60.4629 76.8107 60.4629C77.4429 60.4629 77.3846 59.6346 76.3536 59.1279C75.3226 58.6212 77.832 58.2996 78.4156 59.1279C78.9992 59.9562 80.0205 60.5116 80.5943 59.9269C81.1682 59.3423 84.4849 57.7442 84.4849 58.4945C84.4849 59.2448 82.0047 59.732 81.032 60.5895H81.0807ZM103.043 83.5768C102.353 83.6548 103.111 81.7449 101.847 81.0433C101.259 80.732 100.756 80.2817 100.382 79.7315C100.007 79.1813 99.772 78.5478 99.6972 77.886C99.7262 77.6948 99.8078 77.5154 99.9329 77.3679C100.058 77.2205 100.221 77.1107 100.405 77.0511C100.589 76.9914 100.785 76.9841 100.973 77.0301C101.161 77.076 101.332 77.1733 101.467 77.3111C101.973 77.9445 102.732 80.5366 103.17 81.3648C103.607 82.1931 103.559 83.5086 102.994 83.5768H103.043Z" fill="#BABABA" stroke="white" stroke-width="0.23663" stroke-miterlimit="10"/>
<path d="M55.186 73.6512C55.3903 73.1055 55.4389 72.7644 53.8341 72.131C52.2292 71.4976 52.4043 71.0786 51.3149 69.1394C50.2255 67.2003 48.2413 66.3525 48.2413 65.6412C48.2413 64.9298 46.296 65.0078 46.296 65.5535C46.296 66.0992 45.4498 66.2746 44.9927 66.5279C44.5355 66.7813 44.3118 66.3623 43.8936 65.8068C43.4753 65.2514 42.4638 64.7154 42.4638 64.3744C42.4638 64.0333 42.2109 63.322 41.4911 63.663C40.7714 64.0041 40.392 63.663 40.1781 63.9164C39.9641 64.1697 39.4486 63.8092 39.4486 63.8092V41.9425C39.2234 41.9237 39.0014 41.8779 38.7872 41.8061C37.8729 41.4553 36.5209 40.8316 35.7914 40.9876C34.9145 41.2183 33.997 41.2482 33.1069 41.0753C32.4147 40.7308 31.6295 40.6213 30.8698 40.7634C29.8291 40.9193 29.1677 40.1885 27.8351 39.8767C26.6221 39.689 25.3825 39.7755 24.2072 40.13C23.7695 40.2859 23.8667 39.6526 23.2929 39.7208C22.719 39.789 23.1664 39.4674 22.8552 38.9899C22.5439 38.5124 20.9585 38.9899 20.3944 38.9899C19.8302 38.9899 19.6649 38.7073 19.6941 38.4247C19.7232 38.1422 19.1883 38.2396 18.9743 38.6099C18.915 38.6965 18.839 38.7704 18.7508 38.8272C18.6627 38.884 18.564 38.9227 18.4608 38.9408C18.3575 38.959 18.2517 38.9563 18.1494 38.9329C18.0472 38.9096 17.9507 38.866 17.8655 38.8048C17.6126 38.5514 18.4004 38.454 18.4296 38.1714C18.4588 37.8888 17.6126 37.7329 17.3013 37.6354C16.9901 37.538 16.4746 37.9473 15.8132 38.5514C15.4932 38.781 15.1293 38.9418 14.7444 39.024C14.3594 39.1062 13.9617 39.1078 13.5761 39.0289C12.973 38.9607 12.2144 39.0874 12.2436 39.4382C12.2727 39.789 13.0022 39.75 12.5645 40.1983C12.1268 40.6465 11.9615 39.5941 11.5238 40.0716C11.0861 40.549 9.75357 40.5101 9.4326 40.4516C9.11162 40.3931 8.08061 41.5235 7.75964 41.8353C7.43867 42.1471 8.01253 42.4395 7.16632 43.3555C6.32012 44.2714 4.04412 44.0863 3.56752 44.0863C3.09092 44.0863 3.44108 44.6223 3.18819 44.9731C2.9353 45.3239 3.47025 45.6357 4.76388 45.9475C6.0575 46.2593 6.94261 47.9939 7.09824 48.4129C7.25386 48.8319 8.86846 48.4129 9.50068 48.4713C10.1329 48.5298 9.4326 49.4458 9.97728 49.7089C10.522 49.972 11.3293 49.5822 11.4849 50.0207C11.6405 50.4592 10.415 50.0207 9.78275 50.4982C9.15053 50.9757 8.8101 51.1901 8.58639 50.849C8.36268 50.5079 7.29277 50.7223 6.75781 50.7808C6.22285 50.8393 6.75781 50.1182 6.75781 49.8063C6.75781 49.4945 6.02832 49.2704 4.98759 49.8745C3.94685 50.4787 4.32619 50.2546 4.19975 50.7321C4.0733 51.2095 3.62588 50.4397 2.96448 50.8587C2.30307 51.2778 1.23316 51.5506 1.01918 51.9599C0.805194 52.3691 2.43925 52.6615 3.07147 52.7882C3.70369 52.9148 2.3128 53.3241 2.81858 53.48C3.32435 53.6359 3.10065 54.1134 3.89822 54.5227C4.69579 54.9319 6.44656 54.5227 6.92316 54.5227C7.39976 54.5227 7.83745 55.0879 8.21679 54.6786C8.59612 54.2693 10.0162 53.1292 10.7457 53.7918C11.4752 54.4545 9.95783 54.3668 10.3372 54.7663C10.7165 55.1658 11.1834 56.1598 10.4928 56.7152C10.23 56.8639 9.9375 56.9524 9.63645 56.9743C9.33541 56.9962 9.03326 56.951 8.75175 56.8419C8.37241 56.8419 8.59612 57.5337 7.99308 58.0112C7.39004 58.4887 6.95234 57.5045 6.19367 57.5045C5.43501 57.5045 5.60036 58.479 5.62954 58.9564C5.65872 59.4339 4.49153 58.859 4.20947 59.9991C3.9274 61.1392 2.73104 60.155 3.51889 61.2659C4.30673 62.3768 4.18029 61.6752 4.81251 62.1234C5.44473 62.5716 4.1122 63.3512 4.74443 63.4779C5.37665 63.6046 6.07696 64.7447 6.51465 65.1539C6.95234 65.5632 7.4873 64.9298 8.18761 64.9006C8.88792 64.8713 8.53776 63.9261 8.91709 64.3062C9.29643 64.6862 9.83139 65.6607 9.48123 65.914C9.13108 66.1674 9.41314 66.9567 9.35478 67.3367C9.29642 67.7167 10.804 67.5901 10.9013 67.1516C10.9986 66.7131 12.1949 66.5766 12.8466 67.3075C13.4983 68.0383 13.7317 68.1553 13.7317 67.5901C13.7317 67.0249 14.3056 66.3915 14.3348 66.8592C14.3639 67.327 14.8989 67.4634 15.8813 67.0249C16.8636 66.5864 16.4162 67.0249 15.8813 67.6875C15.181 68.5548 15.8813 69.8313 15.3755 69.958C14.8697 70.0847 14.4612 71.3807 13.6442 71.4781C12.8271 71.5756 11.4265 73.1249 11.2417 73.427C11.0569 73.7291 9.29643 72.9203 9.03382 73.6512C8.7712 74.382 7.71101 74.9179 7.99308 75.2005C8.27515 75.4831 9.62713 74.6646 9.69522 74.2845C9.7633 73.9045 9.9481 73.963 10.201 74.2845C10.4539 74.6061 11.0861 74.1579 11.3682 73.9045C11.6502 73.6512 12.1268 73.7486 12.4089 73.7778C12.691 73.8071 12.8174 73.4368 13.6734 73.2711C14.5293 73.1055 14.3348 72.8618 14.5196 72.4233C14.7044 71.9848 16.7372 71.0299 17.1165 70.9324C17.4959 70.835 17.2722 70.2113 17.6807 70.1724C18.274 69.9739 18.8134 69.6404 19.2564 69.1979C19.7913 68.7497 19.9178 68.9446 20.336 68.7886C20.7542 68.6327 20.4235 67.8142 20.8418 67.7362C21.0275 67.7207 21.2017 67.6398 21.3335 67.5078C21.4653 67.3758 21.5461 67.2012 21.5615 67.0151C21.5615 66.6643 20.5208 66.6643 20.4235 66.4402C20.3263 66.2161 21.2503 65.3976 21.5907 65.4658C21.8297 65.4675 22.0609 65.381 22.2403 65.2229C22.4197 65.0647 22.5347 64.8459 22.5634 64.6083C22.5634 64.1015 23.0983 64.0041 23.536 63.5656C23.9737 63.1271 23.857 62.747 24.2655 62.7081C24.674 62.6691 25.0533 62.1137 25.491 61.8603C25.9287 61.6069 25.491 62.1721 26.347 62.2014C27.2029 62.2306 27.0084 63.0296 26.347 62.747C25.6856 62.4645 25.4327 62.4937 24.8685 63.0296C24.3044 63.5656 24.7421 63.7215 24.2947 64.3257C23.8473 64.9298 23.8278 65.3001 24.392 65.3683C24.9561 65.4365 24.392 65.8361 23.8862 66.0017C23.3804 66.1674 23.7306 66.4694 24.4503 66.4694C25.1701 66.4694 26.2497 65.4268 27.2613 64.9201C28.2728 64.4134 29.0315 64.9201 29.3136 64.8324C29.5956 64.7447 29.0023 64.2574 29.3136 64.1015C29.6248 63.9456 28.9051 63.8482 28.6911 63.244C28.4771 62.6399 29.0315 63.0296 29.1579 62.5522C29.2844 62.0747 29.6345 62.2696 29.9458 62.4937C30.257 62.7178 30.7045 62.2696 30.9865 62.864C31.2686 63.4584 31.5896 62.7081 32.0953 63.1173C32.6011 63.5266 31.9981 63.4681 31.4631 63.5948C30.9282 63.7215 31.2102 64.4523 31.6187 64.1015C32.0273 63.7507 32.3774 63.5364 32.7567 63.8774C33.1361 64.2185 33.2917 64.0723 33.6127 63.7507C33.9336 63.4292 33.9239 63.7507 33.9239 64.0431C33.9239 64.3354 34.5853 64.3841 35.5385 64.54C36.5698 64.6167 37.6062 64.5874 38.6315 64.4523C39.0692 64.4523 38.9136 65.115 39.896 65.3001C40.8784 65.4853 41.1215 64.3257 41.6273 64.7349C42.1331 65.1442 41.6273 65.3001 41.3452 65.6217C41.0632 65.9432 41.6565 65.9627 42.0358 66.1284C42.6365 66.3023 43.2026 66.5792 43.7088 66.9469C44.16 67.5189 44.7311 67.9846 45.3817 68.3112C46.3544 68.8179 45.3817 67.0444 46.2085 67.6096C47.0352 68.1747 46.7143 67.6096 47.3368 68.2137C47.9593 68.8179 47.755 67.9604 47.4632 67.0151C47.1714 66.0699 47.755 66.6936 48.0371 67.1418C48.3044 67.7273 48.3391 68.3928 48.1343 69.003C47.9398 69.5682 46.9963 69.1005 47.0839 68.7789C47.1714 68.4573 46.1112 68.5938 46.1112 69.0323C46.1696 69.3455 46.3077 69.6384 46.5122 69.8825C46.7167 70.1266 46.9806 70.3137 47.2784 70.4257C47.7842 70.5232 47.4048 71.3125 47.7161 71.4002C48.0273 71.4879 48.1343 72.3746 48.3872 72.2187C48.6401 72.0628 48.5428 71.1176 48.2608 70.6693C47.9787 70.2211 48.0954 69.5974 48.4748 69.6949C48.8541 69.7923 48.4748 70.4842 48.6693 70.6693C48.8638 70.8545 49.0778 70.4452 49.5155 70.1919C49.9532 69.9385 49.3307 69.2174 49.5155 68.8276C49.7003 68.4378 50.1769 69.1492 50.3714 69.8021C50.566 70.4549 49.8948 70.4355 49.8948 70.7765C49.8948 71.1176 49.2918 70.9617 49.107 71.1566C48.9222 71.3514 49.0097 72.6085 49.2626 72.6377C49.5155 72.667 49.6711 71.5951 49.8365 72.131C50.0018 72.667 50.5854 71.4392 50.7508 71.9459C50.9161 72.4526 51.6651 73.0178 51.9471 72.9203C52.2292 72.8229 51.8207 72.2577 51.383 72.2285C50.9453 72.1992 51.0037 71.4684 51.383 71.4294C51.7623 71.3904 52.521 72.4818 52.4821 72.8618C52.4432 73.2419 52.1027 73.2029 51.7623 73.5829C51.4219 73.963 50.9356 72.9495 50.5271 72.9885C50.1185 73.0275 50.527 73.6512 50.7216 74.0897C50.9161 74.5282 50.2158 75.1323 50.7216 75.4831C51.2274 75.8339 51.1009 75.259 51.1982 75.0056C51.2954 74.7523 51.704 75.0739 51.986 75.2882C52.2681 75.5026 52.2973 74.7815 52.2973 74.4989C52.2973 74.2163 52.7739 74.3722 53.0268 74.7523C53.2797 75.1323 53.3088 74.343 53.6882 74.4112C54.0675 74.4794 53.8146 75.0739 53.8146 75.3857C53.8146 75.6975 54.476 75.1031 54.4176 75.4831C54.413 75.5382 54.413 75.5937 54.4176 75.6488L55.3903 74.9569C56.149 74.5282 55.011 74.1969 55.186 73.6512ZM1.92374 78.1434C2.68241 77.8218 2.99365 77.4418 2.68241 77.0617C2.37116 76.6817 1.34015 78.426 1.92374 78.1434ZM7.29277 75.298C6.59246 75.0446 4.77361 76.1555 5.34747 76.2724C5.79489 76.3309 5.97969 75.8924 6.48547 75.8924C6.99125 75.8924 7.98335 75.5513 7.29277 75.298ZM23.2929 67.8629C23.2929 67.5121 22.8163 67.5511 22.1938 68.2722C21.5713 68.9933 21.0266 69.3831 20.9293 69.7241C20.8321 70.0652 20.1026 69.6657 19.8886 70.1042C19.6746 70.5427 20.0442 71.5366 20.4819 71.215C20.9196 70.8935 20.9585 71.215 21.2406 71.215C21.957 70.9239 22.5962 70.4702 23.1081 69.8898C23.3901 69.4415 22.6023 69.3148 22.5731 69.0323C22.5439 68.7497 23.2345 68.7497 23.5457 68.5548C23.857 68.3599 23.2637 68.2137 23.2929 67.8629ZM3.18819 64.1308C3.1201 63.6241 1.76812 64.1308 1.92374 64.579C2.07937 65.0273 3.36326 65.3586 3.86904 65.1734C3.97082 65.1519 4.06486 65.1032 4.1411 65.0323C4.21734 64.9614 4.27291 64.8711 4.30188 64.771C4.33085 64.6709 4.33213 64.5648 4.30557 64.4641C4.27902 64.3633 4.22563 64.2717 4.15111 64.199C3.84959 63.8774 3.24655 64.6375 3.18819 64.1308ZM18.5658 133.97C17.7779 134.067 18.2156 136.045 18.6339 135.714C19.0521 135.383 19.4995 135.441 19.6551 135.139C19.8108 134.837 19.3536 133.862 18.5658 133.97ZM17.5251 132.761C17.0582 132.83 17.3597 133.687 17.6612 133.463C18.1767 133.073 17.9919 132.674 17.5251 132.742V132.761ZM12.6034 131.163C13.0217 131.602 13.3232 131.485 13.4399 131.095C13.5566 130.705 12.156 130.666 12.6034 131.144V131.163ZM14.8308 132.138C15.1323 132.605 15.4533 132.703 15.7159 132.284C15.9785 131.865 14.4807 131.553 14.8308 132.089V132.138ZM144.359 89.8075C144.359 89.3788 143.055 89.7198 142.472 89.2619C141.888 88.8039 140.867 90.8989 140.663 91.7857C140.458 92.6724 138.892 93.6371 138.892 93.6371L134.029 93.6859C133.313 94.068 132.658 94.554 132.084 95.1281L132.142 95.206C132.59 96.0246 130.936 96.5313 129.36 96.5897C128.982 96.6033 128.605 96.6424 128.232 96.7067C128.29 96.8893 128.316 97.0804 128.31 97.2718C128.31 97.3693 128.125 97.496 127.892 97.6227C127.648 98.1099 125.713 99.0551 124.624 99.63C123.534 100.205 121.783 99.9418 121.783 98.9966C121.783 98.0514 122.668 98.2366 122.863 98.6848C122.931 98.8505 123.145 98.6848 123.427 98.5191C123.304 98.3633 123.22 98.1806 123.181 97.9858C123.142 97.791 123.15 97.5897 123.203 97.3985C122.844 97.2426 123.398 95.8297 122.668 95.586C121.939 95.3424 121.025 96.6579 121.151 95.8297C121.278 95.0014 122.416 94.3193 121.725 93.2376C121.034 92.156 119.78 92.1657 119.517 92.9843C119.254 93.8028 118.379 93.4325 118.058 94.0659C117.632 95.0153 117.5 96.071 117.679 97.0965C117.932 98.0709 117.62 98.6166 116.706 99.1818C115.792 99.7469 115.257 98.3145 115.627 96.4631C115.879 95.206 116.599 93.9977 115.947 93.9977C115.296 93.9977 116.765 92.4873 118.087 92.1657C119.41 91.8442 121.005 91.9806 121.005 91.6005C121.005 91.5226 121.073 91.4641 121.171 91.4349C120.91 91.2304 120.637 91.0416 120.354 90.8697C120.328 90.9623 120.269 91.0421 120.188 91.0938C119.673 91.4544 119.809 90.5189 118.865 90.5189C117.922 90.5189 116.969 91.4056 116.21 91.0256C115.451 90.6456 115.831 90.1389 115.14 90.1389C114.45 90.1389 115.646 88.8136 114.634 89.3788C113.623 89.944 112.106 91.3277 111.415 90.7138C110.724 90.0999 110.092 90.8989 109.586 90.3922C109.081 89.8855 111.347 88.5018 112.426 88.5603C112.697 88.5657 112.959 88.4642 113.156 88.2777C112.592 88.073 111.425 87.615 111.123 87.9951C110.822 88.3751 110.15 88.1607 109.898 87.7807C109.645 87.4007 109.226 87.9074 108.721 87.3227C108.215 86.738 107.748 87.1473 107.417 87.274C107.087 87.4006 106.746 87.0596 106.192 86.855C105.637 86.6503 106.065 86.0949 105.608 85.7538C105.151 85.4128 105.112 86.397 105.112 86.397L65.8852 86.6114C65.9251 86.6739 65.9707 86.7326 66.0214 86.7868C66.498 87.2935 66.1186 87.6735 66.2743 88.2777C66.4299 88.8818 66.2743 89.7296 65.8366 89.7296C65.7484 89.7365 65.6606 89.7123 65.5883 89.6612C65.5161 89.6102 65.4639 89.5354 65.4408 89.4499C65.4177 89.3643 65.4252 89.2734 65.4619 89.1928C65.4987 89.1122 65.5624 89.047 65.642 89.0085C65.9922 88.8136 65.8074 88.1218 65.4572 88.1218C65.1071 88.1218 65.1752 87.8782 65.1849 87.6053C64.4393 87.7469 63.6739 87.7469 62.9283 87.6053C62.9339 87.6441 62.9339 87.6835 62.9283 87.7222C63.0002 88.4043 63.2483 89.0559 63.6481 89.6127C64.1539 90.2753 63.8037 90.6943 64.2803 90.9477C64.7569 91.201 64.718 91.4836 64.2803 91.4154C63.8426 91.3472 64.1539 91.7662 63.9983 92.7114C63.8426 93.6566 63.8718 95.6348 63.7745 96.2195C63.6773 96.8041 62.9867 97.8078 63.3952 98.4412C63.629 98.7707 63.7921 99.1452 63.8742 99.541C63.9562 99.9368 63.9554 100.345 63.8718 100.741C63.7507 101.043 63.7017 101.37 63.7287 101.695C63.7557 102.02 63.858 102.334 64.0274 102.612C64.3776 103.216 64.0955 104.259 64.4748 104.473C64.9181 104.802 65.2834 105.224 65.5448 105.711C65.8949 106.276 66.2062 105.935 66.2743 106.5C66.3423 107.065 66.3326 107.163 66.8384 107.387C67.3442 107.611 67.0232 108.176 67.0232 108.498C67.0232 108.819 67.6943 109.375 68.5113 110.105C69.3284 110.836 68.6378 111.431 69.2408 111.431C69.8837 111.507 70.493 111.76 71.0013 112.161C71.6044 112.541 71.7892 112.317 72.2074 112.415C72.8304 112.756 73.3025 113.32 73.5302 113.993C73.6085 114.305 73.7159 114.608 73.8512 114.9L77.1193 114.461C77.6081 114.813 78.1412 115.098 78.7047 115.309C79.2786 115.445 82.3813 116.595 82.3813 116.595H86.4276L86.9041 115.991H89.1218C89.6343 116.507 90.1767 116.991 90.7461 117.443C90.9504 117.511 91.6507 118.154 91.6507 118.554C91.6393 118.739 91.6808 118.923 91.7704 119.086C91.86 119.248 91.9939 119.381 92.1565 119.47C92.6766 119.809 93.2308 120.094 93.81 120.318C93.985 120.249 94.3157 118.963 94.9285 119.002C95.5413 119.041 97.1851 119.499 97.4574 120.454C97.7105 121.218 98.1761 121.895 98.7997 122.403C99.072 122.608 98.9358 123.182 99.1401 123.485C99.3443 123.787 99.3054 124.362 99.5486 124.362C99.7918 124.362 100.998 125.112 101.494 125.073C101.709 125.089 101.915 125.167 102.087 125.297C102.155 124.167 100.998 123.972 101.679 123.455C102.36 122.939 101.679 122.344 102.029 122.091C102.379 121.838 103.07 121.594 103.07 121.214C103.07 120.834 103.41 120.834 103.916 120.893C104.422 120.951 105.365 120.074 105.307 119.723C105.248 119.372 105.404 119.314 105.997 119.441C106.591 119.567 106.503 118.739 106.882 118.875C107.262 119.012 107.583 119.216 107.612 118.934C107.641 118.651 108.02 118.71 108.302 119.09C108.585 119.47 109.411 119.567 109.47 119.09C109.528 118.612 110.014 119.09 110.442 119.538C110.87 119.986 111.036 119.85 111.639 119.889C112.242 119.928 112.242 119.762 112.271 119.382C112.3 119.002 112.932 120.201 113.535 120.269C114.138 120.337 113.662 119.889 113.214 119.538C112.767 119.187 113.312 119.031 112.932 118.749C112.553 118.466 113.409 118.086 114.168 118.115C114.926 118.145 114.887 118.339 115.14 117.891C115.393 117.443 115.714 117.891 115.714 118.271C115.714 118.651 116.94 118.047 117.659 118.047C117.952 118.058 118.235 118.156 118.471 118.33C118.706 118.504 118.885 118.745 118.982 119.022C119.041 119.402 119.488 119.587 119.955 119.178C120.422 118.768 120.83 118.291 121.278 118.729C121.725 119.168 122.163 119.782 122.698 120.318C123.233 120.854 122.445 121.516 122.698 121.925C122.951 122.335 122.698 122.9 123.301 123.348C123.904 123.796 123.359 124.712 123.865 124.839C124.371 124.966 124.779 125.755 124.837 126.067C124.896 126.379 125.81 126.798 125.907 126.262C126.005 125.726 126.481 125.092 126.54 124.586C126.492 123.581 126.223 122.599 125.752 121.711C125.343 121.136 125.849 121.009 125.343 120.347C124.797 119.523 124.521 118.549 124.555 117.56C124.806 116.425 125.388 115.39 126.228 114.588C126.763 114.12 127.357 114.373 127.483 113.867C127.61 113.36 128.271 112.727 128.65 112.727C129.03 112.727 129.448 112.824 129.506 112.415C129.638 112.117 129.849 111.861 130.117 111.675C130.385 111.489 130.698 111.381 131.024 111.362C131.841 111.236 131.364 110.797 131.15 110.388C130.936 109.979 131.335 109.628 131.49 109.881C131.62 110.004 131.787 110.077 131.965 110.09C132.142 110.102 132.318 110.053 132.463 109.949C132.784 109.725 133.504 109.121 132.813 109.092C132.123 109.063 131.957 108.78 132.366 108.614C132.774 108.449 132.434 107.698 131.86 107.64C131.286 107.582 131.481 107.289 131.86 106.938C132.239 106.588 131.354 106.022 130.946 105.74C130.537 105.457 131.199 105.301 131.51 105.233C131.821 105.165 131.578 103.713 131.734 103.372C131.889 103.031 132.434 103.021 132.21 103.372C131.986 103.723 131.675 104.288 132.084 104.756C132.288 104.985 132.43 105.264 132.496 105.564C132.562 105.864 132.551 106.176 132.463 106.471C132.307 107.192 132.619 107.007 133.095 106.052C133.572 105.097 133.63 104.288 133.309 104.19C132.988 104.093 133.027 103.148 133.377 103.586C133.728 104.025 133.854 104.093 134.35 103.528C134.846 102.963 135.449 101.978 135.109 101.754C134.768 101.53 135.264 101.316 135.897 101.345C136.628 101.334 137.344 101.136 137.978 100.77C138.289 100.156 135.799 101.062 135.799 100.712C135.799 100.361 137.375 100.02 138.104 99.9808C138.834 99.9418 138.484 99.0064 138.795 99.3864C138.943 99.5581 139.154 99.6637 139.38 99.6802C139.606 99.6966 139.829 99.6225 140.001 99.4741C140.41 99.2208 140.089 98.4997 139.622 98.373C139.155 98.2463 139.962 97.9247 139.807 97.6421C139.787 97.322 139.864 97.0034 140.027 96.7273C140.19 96.4512 140.432 96.2302 140.721 96.0928C141.324 95.9661 141.042 95.586 141.548 95.586C142.053 95.586 142.141 94.9916 142.588 94.5434C143.036 94.0951 143.658 95.245 144.349 94.6116C144.683 94.3168 145.041 94.0496 145.419 93.8126C144.965 93.2511 144.635 92.5991 144.453 91.9001C144.27 91.2012 144.238 90.4712 144.359 89.7588V89.8075Z" fill="#BABABA" stroke="white" stroke-width="0.23663" stroke-miterlimit="10"/>
<path d="M130.273 128.247C130.186 128.432 129.719 128.003 129.699 127.672C129.68 127.34 129.213 127.282 129.213 126.697C129.213 126.112 129.446 125.791 129.738 126.288C130.03 126.785 129.835 127.116 129.884 127.36C129.933 127.603 130.429 127.915 130.273 128.247Z" fill="#BABABA" stroke="white" stroke-width="0.23663" stroke-miterlimit="10"/>
</svg>
