<svg width="169" height="169" viewBox="0 0 169 169" fill="none" xmlns="http://www.w3.org/2000/svg">
<g opacity="0.1">
<path d="M58.0937 36.9688C58.0945 31.9724 59.5129 27.0786 62.184 22.8561C64.8552 18.6336 68.6696 15.2555 73.1841 13.1144C77.6985 10.9732 82.7278 10.1568 87.6878 10.76C92.6477 11.3632 97.3348 13.3613 101.204 16.522C105.074 19.6828 107.968 23.8766 109.549 28.6163C111.13 33.356 111.334 38.447 110.138 43.2981C108.941 48.1491 106.392 52.5611 102.788 56.0215C99.1837 59.4819 94.6716 61.8487 89.7759 62.847V79.2188H117.598C121.425 79.2188 125.095 80.7388 127.802 83.4445C130.508 86.1502 132.03 89.8201 132.031 93.6472V106.153C138.429 107.478 144.108 111.127 147.973 116.395C151.837 121.663 153.613 128.176 152.956 134.676C152.299 141.176 149.257 147.202 144.417 151.591C139.578 155.979 133.283 158.419 126.75 158.438C120.201 158.444 113.884 156.017 109.024 151.628C104.164 147.239 101.109 141.201 100.451 134.685C99.7927 128.17 101.579 121.642 105.463 116.37C109.347 111.098 115.051 107.456 121.469 106.153V93.6472C121.469 92.6205 121.061 91.6359 120.335 90.9099C119.609 90.1839 118.624 89.7761 117.598 89.7761H51.4023C50.3756 89.7761 49.391 90.1839 48.665 90.9099C47.939 91.6359 47.5312 92.6205 47.5312 93.6472V106.153C53.9286 107.478 59.6081 111.127 63.4726 116.395C67.3371 121.663 69.1125 128.176 68.4559 134.676C67.7994 141.176 64.7574 147.202 59.9175 151.591C55.0776 155.979 48.7831 158.419 42.2499 158.438C35.7014 158.444 29.3841 156.017 24.5243 151.628C19.6645 147.239 16.6089 141.201 15.9508 134.685C15.2927 128.17 17.079 121.642 20.9629 116.37C24.8467 111.098 30.5511 107.456 36.9687 106.153V93.6472C36.9687 91.7518 37.342 89.8749 38.0674 88.1237C38.7927 86.3725 39.8559 84.7814 41.1962 83.4411C42.5365 82.1008 44.1276 81.0376 45.8788 80.3123C47.63 79.5869 49.5069 79.2136 51.4023 79.2136H79.2187V62.8417C73.256 61.6225 67.8972 58.382 64.0481 53.6678C60.1989 48.9535 58.0956 43.0549 58.0937 36.9688Z" fill="#F67218"/>
</g>
</svg>
