<svg width="186" height="186" viewBox="0 0 186 186" fill="none" xmlns="http://www.w3.org/2000/svg">
<g opacity="0.1">
<path d="M15.5 170.5V155C15.5 155 54.25 139.5 93 139.5C131.75 139.5 170.5 155 170.5 155V170.5H15.5ZM87.575 70.5253C78.275 40.3003 31 47.2753 31 47.2753C31 47.2753 32.55 107.725 76.725 98.4253C73.625 75.9503 62 69.7503 62 69.7503C83.7 69.7503 85.25 96.1003 85.25 96.1003V131.75H100.75V99.2003C100.75 99.2003 100.75 68.9753 124 61.2253C124 61.2253 108.5 84.4753 108.5 99.9753C162.75 105.4 162.75 31.0003 162.75 31.0003C162.75 31.0003 93.775 23.2503 87.575 70.5253Z" fill="#1DB559"/>
</g>
</svg>
