<svg width="203" height="203" viewBox="0 0 203 203" fill="none" xmlns="http://www.w3.org/2000/svg">
<g opacity="0.1" clip-path="url(#clip0_4487_4984)">
<path d="M101.5 46.5208C109.352 46.5208 116.882 49.6398 122.433 55.1916C127.985 60.7435 131.104 68.2734 131.104 76.1249C131.104 83.9764 127.985 91.5064 122.433 97.0582C116.882 102.61 109.352 105.729 101.5 105.729C93.6486 105.729 86.1187 102.61 80.5668 97.0582C75.015 91.5064 71.896 83.9764 71.896 76.1249C71.896 68.2734 75.015 60.7435 80.5668 55.1916C86.1187 49.6398 93.6486 46.5208 101.5 46.5208ZM42.2918 67.6666C47.0285 67.6666 51.4268 68.9353 55.233 71.2191C53.9643 83.3145 57.5168 95.3253 64.791 104.714C60.5618 112.834 52.1035 118.417 42.2918 118.417C35.5619 118.417 29.1077 115.743 24.349 110.984C19.5902 106.226 16.9168 99.7715 16.9168 93.0416C16.9168 86.3117 19.5902 79.8575 24.349 75.0987C29.1077 70.34 35.5619 67.6666 42.2918 67.6666ZM160.708 67.6666C167.438 67.6666 173.893 70.34 178.651 75.0987C183.41 79.8575 186.083 86.3117 186.083 93.0416C186.083 99.7715 183.41 106.226 178.651 110.984C173.893 115.743 167.438 118.417 160.708 118.417C150.897 118.417 142.438 112.834 138.209 104.714C145.584 95.1936 149.007 83.1978 147.767 71.2191C151.573 68.9353 155.972 67.6666 160.708 67.6666ZM46.521 154.365C46.521 136.856 71.1347 122.646 101.5 122.646C131.866 122.646 156.479 136.856 156.479 154.365V169.167H46.521V154.365ZM0.00012207 169.167V156.479C0.00012207 144.722 15.9864 134.826 37.6397 131.95C32.6493 137.702 29.6043 145.652 29.6043 154.365V169.167H0.00012207ZM203 169.167H173.396V154.365C173.396 145.652 170.351 137.702 165.361 131.95C187.014 134.826 203 144.722 203 156.479V169.167Z" fill="#2EA2CF"/>
</g>
<defs>
<clipPath id="clip0_4487_4984">
<rect width="203" height="203" fill="white"/>
</clipPath>
</defs>
</svg>
