<svg width="33" height="32" viewBox="0 0 33 32" fill="none" xmlns="http://www.w3.org/2000/svg">
<ellipse cx="16.32" cy="16" rx="16.32" ry="16" fill="#A3A3A3"/>
<path d="M16.5 9.25C13.05 9.25 10.25 12.05 10.25 15.5C10.25 18.95 13.05 21.75 16.5 21.75C19.95 21.75 22.75 18.95 22.75 15.5C22.75 12.05 19.95 9.25 16.5 9.25ZM13.125 15.0187C13.2313 14.275 13.5625 13.6063 14.0813 13.0813C15.3313 11.8375 17.3 11.7687 18.6375 12.8563V12.2625C18.6375 12.0063 18.85 11.7938 19.1062 11.7938C19.3625 11.7938 19.575 12.0063 19.575 12.2625V13.9312C19.575 14.1875 19.3625 14.4 19.1062 14.4H17.4375C17.1813 14.4 16.9688 14.1875 16.9688 13.9312C16.9688 13.675 17.1813 13.4625 17.4375 13.4625H17.9062C16.9375 12.7875 15.6 12.8812 14.7375 13.7437C14.3625 14.1187 14.125 14.6062 14.0437 15.15C14.0125 15.3812 13.8125 15.55 13.5812 15.55C13.5562 15.55 13.5375 15.55 13.5125 15.5437C13.2687 15.5125 13.0875 15.275 13.125 15.0187ZM18.9187 17.9187C18.25 18.5875 17.375 18.9187 16.5 18.9187C15.7375 18.9187 14.9812 18.65 14.3562 18.1437V18.7312C14.3562 18.9875 14.1438 19.2 13.8875 19.2C13.6313 19.2 13.4188 18.9875 13.4188 18.7312V17.0625C13.4188 16.8063 13.6313 16.5938 13.8875 16.5938H15.5562C15.8125 16.5938 16.025 16.8063 16.025 17.0625C16.025 17.3188 15.8125 17.5312 15.5562 17.5312H15.0875C16.0562 18.2063 17.3938 18.1125 18.2563 17.25C18.6313 16.875 18.8687 16.3875 18.95 15.8438C18.9875 15.5875 19.2188 15.4062 19.4813 15.4437C19.7375 15.4812 19.9125 15.7188 19.8813 15.975C19.7688 16.7313 19.4375 17.4 18.9187 17.9187Z" fill="#292D32"/>
</svg>
