<svg width="33" height="32" viewBox="0 0 33 32" fill="none" xmlns="http://www.w3.org/2000/svg">
<ellipse cx="16.5993" cy="16" rx="16.32" ry="16" fill="#E2808C"/>
<g clip-path="url(#clip0_4367_1958)">
<path d="M15.671 21.5604C15.7287 22.3915 16.5172 23.0342 17.367 22.8226L17.599 22.764C18.0105 22.6608 18.3758 22.3586 18.4985 21.9062C18.6941 21.1808 18.9723 19.6742 18.5536 17.8973C18.6845 17.9154 18.8158 17.9305 18.9474 17.9426C19.5812 18.0004 20.431 18.0066 21.1838 17.756C21.6443 17.6022 22.0674 17.1506 22.2505 16.6244C22.4141 16.1515 22.3927 15.5915 22.0425 15.084C22.0941 14.9782 22.1341 14.8688 22.1652 14.7613C22.2336 14.5213 22.2656 14.2573 22.2656 14.0004C22.2656 13.7435 22.2336 13.4795 22.1652 13.2395C22.1305 13.1195 22.0852 12.9968 22.023 12.8804C22.1732 12.5364 22.1181 12.1524 22.0203 11.86C21.9202 11.5712 21.7737 11.3007 21.5865 11.0591C21.6345 10.924 21.6541 10.7817 21.6541 10.6457C21.6541 10.3746 21.575 10.0902 21.4292 9.83506C21.1323 9.31418 20.543 8.88929 19.7101 8.88929H16.599C16.0612 8.88929 15.6478 8.96129 15.2958 9.08307C14.9932 9.19359 14.7039 9.33791 14.4336 9.51329L14.391 9.53995C13.943 9.81284 13.503 10.0813 12.5527 10.1817C11.8718 10.2546 11.2656 10.804 11.2656 11.556V15.1115C11.2656 15.8671 11.8745 16.3844 12.4718 16.5471C13.2265 16.7533 13.871 17.2466 14.367 17.8004C14.8647 18.3577 15.1794 18.9382 15.2905 19.2573C15.4674 19.7684 15.607 20.6253 15.671 21.5595V21.5604Z" fill="#C92034"/>
</g>
<defs>
<clipPath id="clip0_4367_1958">
<rect width="14.2222" height="14.2222" fill="white" transform="matrix(1 0 0 -1 9.48828 23.1113)"/>
</clipPath>
</defs>
</svg>
