<svg width="34" height="32" viewBox="0 0 34 32" fill="none" xmlns="http://www.w3.org/2000/svg">
<ellipse cx="17.2399" cy="16" rx="16.32" ry="16" fill="#FAEDCC"/>
<g clip-path="url(#clip0_4367_1964)">
<path d="M16.9434 8.26562V10.3002H17.9607V8.26562H16.9434ZM13.2343 11.9747L11.7084 10.4488L10.9881 11.169L12.5141 12.695L13.2343 11.9747ZM22.3901 12.695L23.916 11.169L23.1958 10.4488L21.6698 11.9747L22.3901 12.695ZM17.4521 11.3175C16.4823 11.3174 15.5451 11.6671 14.8125 12.3025C14.0799 12.9379 13.6012 13.8163 13.4642 14.7764L13.4541 14.8476C13.3767 15.3824 13.408 15.9274 13.5461 16.4498C13.6842 16.9723 13.9262 17.4615 14.2577 17.8883C14.6474 18.3919 14.9088 18.8731 14.9088 19.3553V20.982C14.9088 21.1169 14.9624 21.2462 15.0578 21.3416C15.1532 21.437 15.2826 21.4906 15.4175 21.4906H19.4867C19.6216 21.4906 19.751 21.437 19.8464 21.3416C19.9417 21.2462 19.9953 21.1169 19.9953 20.982V19.3553C19.9953 18.8731 20.2568 18.3919 20.6464 17.8883C21.2873 17.0602 21.6108 15.9809 21.4501 14.8466L21.4399 14.7754C21.3028 13.8155 20.8239 12.9374 20.0914 12.3022C19.3588 11.667 18.4217 11.3173 17.4521 11.3175ZM9.82227 16.4041H11.8569V15.3868H9.82227V16.4041ZM23.0473 16.4041H25.0819V15.3868H23.0473V16.4041ZM15.9261 23.5252H18.978V22.5079H15.9261V23.5252Z" fill="#F2B004"/>
</g>
<defs>
<clipPath id="clip0_4367_1964">
<rect width="15.2596" height="15.2596" fill="white" transform="translate(9.82227 8.26562)"/>
</clipPath>
</defs>
</svg>
