<svg width="34" height="32" viewBox="0 0 34 32" fill="none" xmlns="http://www.w3.org/2000/svg">
<ellipse cx="16.9606" cy="16" rx="16.32" ry="16" fill="#96DAB1"/>
<g clip-path="url(#clip0_4367_1952)">
<path d="M16.0323 10.4396C16.0901 9.60849 16.8785 8.96582 17.7283 9.17738L17.9603 9.23605C18.3718 9.33916 18.7372 9.64138 18.8598 10.0938C19.0554 10.8192 19.3336 12.3258 18.915 14.1027C19.0459 14.0846 19.1771 14.0695 19.3087 14.0574C19.9425 13.9996 20.7923 13.9934 21.5452 14.244C22.0056 14.3978 22.4287 14.8494 22.6118 15.3756C22.7754 15.8485 22.7541 16.4085 22.4038 16.916C22.4554 17.0218 22.4954 17.1312 22.5265 17.2387C22.595 17.4787 22.627 17.7427 22.627 17.9996C22.627 18.2565 22.595 18.5205 22.5265 18.7605C22.4918 18.8805 22.4465 19.0032 22.3843 19.1196C22.5345 19.4636 22.4794 19.8476 22.3816 20.14C22.2815 20.4288 22.135 20.6993 21.9478 20.9409C21.9958 21.076 22.0154 21.2183 22.0154 21.3543C22.0154 21.6254 21.9363 21.9098 21.7905 22.1649C21.4936 22.6858 20.9043 23.1107 20.0714 23.1107H16.9603C16.4225 23.1107 16.0092 23.0387 15.6572 22.9169C15.3545 22.8064 15.0653 22.6621 14.795 22.4867L14.7523 22.46C14.3043 22.1872 13.8643 21.9187 12.9141 21.8183C12.2332 21.7454 11.627 21.196 11.627 20.444V16.8885C11.627 16.1329 12.2358 15.6156 12.8332 15.4529C13.5878 15.2467 14.2323 14.7534 14.7283 14.1996C15.2261 13.6423 15.5407 13.0618 15.6518 12.7427C15.8287 12.2316 15.9683 11.3747 16.0323 10.4405V10.4396Z" fill="#1DB559"/>
</g>
<defs>
<clipPath id="clip0_4367_1952">
<rect width="14.2222" height="14.2222" fill="white" transform="translate(9.84961 8.88867)"/>
</clipPath>
</defs>
</svg>
