<svg width="44" height="44" viewBox="0 0 44 44" fill="none" xmlns="http://www.w3.org/2000/svg">
<rect width="44" height="44" rx="4" fill="#1DB559"/>
<path d="M24.2199 31.6293C23.0399 31.6293 21.3699 30.7993 20.0499 26.8293L19.3299 24.6693L17.1699 23.9493C13.2099 22.6293 12.3799 20.9593 12.3799 19.7793C12.3799 18.6093 13.2099 16.9293 17.1699 15.5993L25.6599 12.7693C27.7799 12.0593 29.5499 12.2693 30.6399 13.3493C31.7299 14.4293 31.9399 16.2093 31.2299 18.3293L28.3999 26.8193C27.0699 30.7993 25.3999 31.6293 24.2199 31.6293ZM17.6399 17.0293C14.8599 17.9593 13.8699 19.0593 13.8699 19.7793C13.8699 20.4993 14.8599 21.5993 17.6399 22.5193L20.1599 23.3593C20.3799 23.4293 20.5599 23.6093 20.6299 23.8293L21.4699 26.3493C22.3899 29.1293 23.4999 30.1193 24.2199 30.1193C24.9399 30.1193 26.0399 29.1293 26.9699 26.3493L29.7999 17.8593C30.3099 16.3193 30.2199 15.0593 29.5699 14.4093C28.9199 13.7593 27.6599 13.6793 26.1299 14.1893L17.6399 17.0293Z" fill="#292D32"/>
<path d="M20.1098 24.4C19.9198 24.4 19.7298 24.33 19.5798 24.18C19.2898 23.89 19.2898 23.41 19.5798 23.12L23.1598 19.53C23.4498 19.24 23.9298 19.24 24.2198 19.53C24.5098 19.82 24.5098 20.3 24.2198 20.59L20.6398 24.18C20.4998 24.33 20.2998 24.4 20.1098 24.4Z" fill="#292D32"/>
<path d="M17.3997 16.3202L25.8897 13.4902C29.6997 12.2202 31.7697 14.3002 30.5097 18.1102L27.6797 26.6002C25.7797 32.3102 22.6597 32.3102 20.7597 26.6002L19.9197 24.0802L17.3997 23.2402C11.6897 21.3402 11.6897 18.2302 17.3997 16.3202Z" stroke="#292D32" stroke-width="1.5" stroke-linecap="round" stroke-linejoin="round"/>
<path d="M20.1104 23.6486L23.6904 20.0586" stroke="#292D32" stroke-width="1.5" stroke-linecap="round" stroke-linejoin="round"/>
</svg>
