<svg width="27" height="27" viewBox="0 0 27 27" fill="none" xmlns="http://www.w3.org/2000/svg">
<path d="M25.05 13.7734C25.05 12.9203 24.9734 12.1 24.8313 11.3125H13.5V15.9664H19.975C19.6961 17.4703 18.8484 18.7445 17.5742 19.5977V22.6164H21.4625C23.7375 20.5219 25.05 17.4375 25.05 13.7734Z" fill="#4285F4"/>
<path d="M13.5001 25.5314C16.7485 25.5314 19.472 24.4541 21.4626 22.6166L17.5743 19.5979C16.497 20.3197 15.1188 20.7463 13.5001 20.7463C10.3665 20.7463 7.71416 18.6299 6.76807 15.7861H2.74854V18.9033C4.72822 22.8354 8.79697 25.5314 13.5001 25.5314Z" fill="#34A853"/>
<path d="M6.76797 15.7857C6.52734 15.0639 6.39063 14.2928 6.39063 13.4998C6.39063 12.7068 6.52734 11.9357 6.76797 11.2139V8.09668H2.74844C1.90625 9.77324 1.46801 11.6236 1.46875 13.4998C1.46875 15.4412 1.93359 17.2787 2.74844 18.9029L6.76797 15.7857Z" fill="#FBBC05"/>
<path d="M13.5001 6.25391C15.2665 6.25391 16.8524 6.86094 18.0993 8.05312L21.5501 4.60234C19.4665 2.66094 16.7431 1.46875 13.5001 1.46875C8.79697 1.46875 4.72822 4.16484 2.74854 8.09687L6.76807 11.2141C7.71416 8.37031 10.3665 6.25391 13.5001 6.25391Z" fill="#EA4335"/>
</svg>
