<svg width="24" height="24" viewBox="0 0 24 24" fill="none" xmlns="http://www.w3.org/2000/svg">
<g clip-path="url(#clip0_5962_10953)">
<path d="M21.333 2.66797H2.66634C2.31272 2.66797 1.97358 2.80844 1.72353 3.05849C1.47348 3.30854 1.33301 3.64768 1.33301 4.0013V20.0013C1.33301 20.3549 1.47348 20.6941 1.72353 20.9441C1.97358 21.1942 2.31272 21.3346 2.66634 21.3346H21.333C21.6866 21.3346 22.0258 21.1942 22.2758 20.9441C22.5259 20.6941 22.6663 20.3549 22.6663 20.0013V4.0013C22.6663 3.64768 22.5259 3.30854 22.2758 3.05849C22.0258 2.80844 21.6866 2.66797 21.333 2.66797ZM2.66634 20.0013V4.0013H21.333V20.0013H2.66634Z" fill="#474747"/>
<path d="M5.94629 9.33203C6.34185 9.33203 6.72853 9.21473 7.05743 8.99497C7.38633 8.77521 7.64267 8.46285 7.79405 8.0974C7.94542 7.73195 7.98503 7.32981 7.90786 6.94185C7.83069 6.55389 7.64021 6.19752 7.3605 5.91782C7.0808 5.63811 6.72443 5.44763 6.33647 5.37046C5.94851 5.29329 5.54637 5.3329 5.18092 5.48427C4.81547 5.63565 4.50311 5.89199 4.28335 6.22089C4.06359 6.54979 3.94629 6.93647 3.94629 7.33203C3.94629 7.86247 4.157 8.37117 4.53208 8.74625C4.90715 9.12132 5.41586 9.33203 5.94629 9.33203ZM5.94629 6.26537C6.15753 6.26405 6.36442 6.32548 6.5407 6.44188C6.71699 6.55828 6.85474 6.72441 6.9365 6.9192C7.01826 7.11398 7.04033 7.32866 6.99993 7.53601C6.95953 7.74336 6.85847 7.93405 6.70956 8.08389C6.56066 8.23373 6.37061 8.33599 6.16352 8.37769C5.95642 8.41939 5.74161 8.39866 5.54631 8.31813C5.35102 8.23759 5.18403 8.10088 5.06653 7.92533C4.94902 7.74977 4.88629 7.54328 4.88629 7.33203C4.88804 7.05144 5.00028 6.78284 5.19869 6.58443C5.3971 6.38602 5.6657 6.27378 5.94629 6.27203V6.26537Z" fill="#474747"/>
<path d="M15.1863 10.2485L11.5863 13.8485L8.91962 11.1819C8.79471 11.0577 8.62575 10.988 8.44962 10.988C8.2735 10.988 8.10453 11.0577 7.97962 11.1819L3.94629 15.2685V17.1552L8.47296 12.6285L10.6663 14.7885L8.16629 17.2885H9.99962L15.633 11.6552L19.9996 16.0019V14.1219L16.1263 10.2485C16.0014 10.1244 15.8324 10.0547 15.6563 10.0547C15.4802 10.0547 15.3112 10.1244 15.1863 10.2485Z" fill="#474747"/>
</g>
<defs>
<clipPath id="clip0_5962_10953">
<rect width="24" height="24" fill="white"/>
</clipPath>
</defs>
</svg>
