<svg width="26" height="27" viewBox="0 0 26 27" fill="none" xmlns="http://www.w3.org/2000/svg">
<g clip-path="url(#clip0_1947_3145)">
<path d="M21.4632 22.7416H17.796V16.6505C17.796 15.198 17.7715 13.3282 15.8887 13.3282C13.9787 13.3282 13.6864 14.9108 13.6864 16.5448V22.7412H10.0194V10.2154H13.5398V11.9272H13.5891C13.9414 11.2883 14.4505 10.7627 15.0622 10.4064C15.6739 10.0501 16.3652 9.87637 17.0626 9.90381C20.7794 9.90381 21.4647 12.4968 21.4647 15.8701L21.4632 22.7416ZM5.88149 8.50333C4.70615 8.50354 3.75318 7.49312 3.75299 6.24655C3.7528 4.99999 4.70538 3.98926 5.88072 3.98905C7.05605 3.98875 8.00902 4.99917 8.00922 6.24573C8.00932 6.84436 7.78521 7.41851 7.38619 7.84189C6.98716 8.26527 6.44591 8.5032 5.88149 8.50333ZM7.71512 22.7417H4.04409V10.2154H7.71502V22.7416L7.71512 22.7417ZM23.2914 0.37691H2.20138C1.20461 0.365016 0.387182 1.21189 0.375 2.26906V24.7305C0.386795 25.7882 1.20413 26.6359 2.20128 26.6249H23.2914C24.2907 26.638 25.1112 25.7903 25.125 24.7305V2.26732C25.1108 1.20809 24.2902 0.361325 23.2914 0.375167" fill="#0A66C2"/>
</g>
<defs>
<clipPath id="clip0_1947_3145">
<rect width="24.75" height="26.25" fill="white" transform="translate(0.375 0.375)"/>
</clipPath>
</defs>
</svg>
