<svg width="24" height="25" viewBox="0 0 24 25" fill="none" xmlns="http://www.w3.org/2000/svg">
<path d="M12 16.75C9.38 16.75 7.25 14.62 7.25 12V6.5C7.25 3.88 9.38 1.75 12 1.75C14.62 1.75 16.75 3.88 16.75 6.5V12C16.75 14.62 14.62 16.75 12 16.75ZM12 3.25C10.21 3.25 8.75 4.71 8.75 6.5V12C8.75 13.79 10.21 15.25 12 15.25C13.79 15.25 15.25 13.79 15.25 12V6.5C15.25 4.71 13.79 3.25 12 3.25Z" fill="#474747"/>
<path d="M11.9996 20.2484C7.36961 20.2484 3.59961 16.4784 3.59961 11.8484V10.1484C3.59961 9.73844 3.93961 9.39844 4.34961 9.39844C4.75961 9.39844 5.09961 9.73844 5.09961 10.1484V11.8484C5.09961 15.6484 8.19961 18.7484 11.9996 18.7484C15.7996 18.7484 18.8996 15.6484 18.8996 11.8484V10.1484C18.8996 9.73844 19.2396 9.39844 19.6496 9.39844C20.0596 9.39844 20.3996 9.73844 20.3996 10.1484V11.8484C20.3996 16.4784 16.6296 20.2484 11.9996 20.2484Z" fill="#474747"/>
<path d="M13.3899 7.68031C13.3099 7.68031 13.2199 7.67031 13.1299 7.64031C12.3999 7.37031 11.5999 7.37031 10.8699 7.64031C10.4799 7.78031 10.0499 7.58031 9.90988 7.19031C9.76988 6.80031 9.96988 6.37031 10.3599 6.23031C11.4199 5.85031 12.5899 5.85031 13.6499 6.23031C14.0399 6.37031 14.2399 6.80031 14.0999 7.19031C13.9799 7.49031 13.6899 7.68031 13.3899 7.68031Z" fill="#474747"/>
<path d="M12.8001 9.80031C12.7301 9.80031 12.6701 9.79031 12.6001 9.77031C12.2001 9.66031 11.7901 9.66031 11.3901 9.77031C10.9901 9.88031 10.5801 9.64031 10.4701 9.24031C10.3601 8.85031 10.6001 8.44031 11.0001 8.33031C11.6501 8.15031 12.3501 8.15031 13.0001 8.33031C13.4001 8.44031 13.6401 8.85031 13.5301 9.25031C13.4401 9.58031 13.1301 9.80031 12.8001 9.80031Z" fill="#474747"/>
<path d="M12 23.25C11.59 23.25 11.25 22.91 11.25 22.5V19.5C11.25 19.09 11.59 18.75 12 18.75C12.41 18.75 12.75 19.09 12.75 19.5V22.5C12.75 22.91 12.41 23.25 12 23.25Z" fill="#474747"/>
</svg>
