<svg width="50" height="53" viewBox="0 0 50 53" fill="none" xmlns="http://www.w3.org/2000/svg">
<path d="M15.2499 10.2505C15.2511 8.39184 15.7835 6.57229 16.7844 5.00619C17.7853 3.4401 19.2131 2.19272 20.8993 1.41105C22.5856 0.629367 24.4601 0.345954 26.3021 0.594201C28.1441 0.842447 29.8767 1.61201 31.2959 2.81221C32.715 4.01241 33.7616 5.59325 34.3122 7.36844C34.8628 9.14364 34.8945 11.0392 34.4037 12.8319C33.9128 14.6245 32.9198 16.2395 31.5416 17.4865C30.1634 18.7336 28.4575 19.5607 26.6249 19.8705V24.8755H36.3749C37.6678 24.8755 38.9078 25.3891 39.822 26.3033C40.7362 27.2176 41.2499 28.4575 41.2499 29.7505V33.1337C43.6612 33.5412 45.8316 34.8397 47.3307 36.7719C48.8299 38.7041 49.5484 41.129 49.344 43.566C49.1395 46.003 48.027 48.2743 46.2269 49.9297C44.4268 51.5851 42.0704 52.5039 39.6249 52.5039C37.1793 52.5039 34.8229 51.5851 33.0228 49.9297C31.2227 48.2743 30.1102 46.003 29.9057 43.566C29.7013 41.129 30.4198 38.7041 31.919 36.7719C33.4181 34.8397 35.5885 33.5412 37.9999 33.1337V29.7505C37.9999 29.3195 37.8286 28.9062 37.5239 28.6014C37.2192 28.2967 36.8058 28.1255 36.3749 28.1255H13.6249C13.1939 28.1255 12.7806 28.2967 12.4758 28.6014C12.1711 28.9062 11.9999 29.3195 11.9999 29.7505V33.1337C14.4112 33.5412 16.5816 34.8397 18.0807 36.7719C19.5799 38.7041 20.2984 41.129 20.094 43.566C19.8895 46.003 18.777 48.2743 16.9769 49.9297C15.1768 51.5851 12.8204 52.5039 10.3749 52.5039C7.92927 52.5039 5.57294 51.5851 3.77282 49.9297C1.97271 48.2743 0.860188 46.003 0.655742 43.566C0.451296 41.129 1.16985 38.7041 2.66899 36.7719C4.16813 34.8397 6.33846 33.5412 8.74985 33.1337V29.7505C8.74985 28.4575 9.26346 27.2176 10.1777 26.3033C11.0919 25.3891 12.3319 24.8755 13.6249 24.8755H23.3749V19.8705C21.1022 19.4857 19.0392 18.3083 17.5519 16.5474C16.0646 14.7864 15.249 12.5555 15.2499 10.2505Z" fill="black"/>
</svg>
