<svg width="27" height="27" viewBox="0 0 27 27" fill="none" xmlns="http://www.w3.org/2000/svg">
<g clip-path="url(#clip0_1947_3159)">
<path d="M23.0937 26.625H3.40625C1.595 26.625 0.125 25.155 0.125 23.3437V3.65625C0.125 1.845 1.595 0.375 3.40625 0.375H23.0937C24.905 0.375 26.375 1.845 26.375 3.65625V23.3437C26.375 25.155 24.905 26.625 23.0937 26.625Z" fill="#1D9BF0"/>
<path d="M10.205 20.167C16.3935 20.167 19.7797 15.0352 19.7797 10.5923C19.7797 10.448 19.7797 10.3036 19.7732 10.1592C20.4294 9.68672 21.0003 9.08953 21.4532 8.41359C20.8494 8.68266 20.1997 8.85984 19.5172 8.94516C20.2128 8.53172 20.7444 7.86891 21.0003 7.08141C20.3507 7.46859 19.6288 7.74422 18.861 7.89516C18.2441 7.23891 17.3713 6.83203 16.4066 6.83203C14.5494 6.83203 13.04 8.34141 13.04 10.1986C13.04 10.4611 13.0728 10.717 13.1253 10.9664C10.3297 10.8286 7.84909 9.48328 6.18878 7.44891C5.90003 7.94766 5.73597 8.52516 5.73597 9.14203C5.73597 10.3102 6.33315 11.3405 7.23222 11.9442C6.68097 11.9245 6.16253 11.7736 5.70972 11.5242C5.70972 11.5373 5.70972 11.5505 5.70972 11.5702C5.70972 13.1977 6.87128 14.5627 8.4069 14.8711C8.12472 14.9498 7.8294 14.9892 7.52097 14.9892C7.3044 14.9892 7.0944 14.9695 6.89097 14.9302C7.31753 16.2689 8.5644 17.2402 10.0344 17.2664C8.8794 18.172 7.42909 18.7102 5.85409 18.7102C5.58503 18.7102 5.31597 18.697 5.05347 18.6642C6.53659 19.6092 8.30847 20.167 10.205 20.167Z" fill="white"/>
</g>
<defs>
<clipPath id="clip0_1947_3159">
<rect width="26.25" height="26.25" fill="white" transform="translate(0.125 0.375)"/>
</clipPath>
</defs>
</svg>
