<svg width="66" height="65" viewBox="0 0 66 65" fill="none" xmlns="http://www.w3.org/2000/svg">
<path d="M53.3395 15.8441L37.252 6.55449C34.6249 5.03783 31.3749 5.03783 28.7207 6.55449L12.6603 15.8441C10.0332 17.3607 8.4082 20.1774 8.4082 23.2378V41.7628C8.4082 44.7962 10.0332 47.6128 12.6603 49.1566L28.7478 58.4462C31.3749 59.9628 34.6249 59.9628 37.279 58.4462L53.3665 49.1566C55.9936 47.6399 57.6186 44.8232 57.6186 41.7628V23.2378C57.5915 20.1774 55.9665 17.3878 53.3395 15.8441ZM32.9999 19.8795C36.4936 19.8795 39.3103 22.6962 39.3103 26.1899C39.3103 29.6837 36.4936 32.5003 32.9999 32.5003C29.5061 32.5003 26.6895 29.6837 26.6895 26.1899C26.6895 22.7232 29.5061 19.8795 32.9999 19.8795ZM40.2582 45.1212H25.7415C23.5478 45.1212 22.2749 42.6837 23.4936 40.8691C25.3353 38.1337 28.9103 36.292 32.9999 36.292C37.0895 36.292 40.6645 38.1337 42.5061 40.8691C43.7249 42.6566 42.4249 45.1212 40.2582 45.1212Z" fill="#292D32"/>
</svg>
